<?xml version="1.0" encoding="UTF-8" standalone="no"?>
<!-- Created with Inkscape (http://www.inkscape.org/) -->

<svg
   version="1.1"
   id="svg1"
   width="215.99588"
   height="242.63672"
   viewBox="0 0 215.99588 242.63672"
   sodipodi:docname="commit-scheme.svg"
   inkscape:version="1.4.2 (ebf0e940d0, 2025-05-08)"
   xmlns:inkscape="http://www.inkscape.org/namespaces/inkscape"
   xmlns:sodipodi="http://sodipodi.sourceforge.net/DTD/sodipodi-0.dtd"
   xmlns="http://www.w3.org/2000/svg"
   xmlns:svg="http://www.w3.org/2000/svg">
  <defs
     id="defs1">
    <clipPath
       clipPathUnits="userSpaceOnUse"
       id="clipPath2">
      <path
         d="M 0,0 H 200 V 200 H 0 Z"
         transform="matrix(0.99999999,0,0,-0.99999999,-1.1759172e-5,200)"
         id="path2" />
    </clipPath>
    <clipPath
       clipPathUnits="userSpaceOnUse"
       id="clipPath3">
      <path
         d="M 0,0 H 200 V 200 H 0 Z"
         transform="matrix(0.99999999,0,0,-0.99999999,-1.1759172e-5,200)"
         id="path3" />
    </clipPath>
    <clipPath
       clipPathUnits="userSpaceOnUse"
       id="clipPath4">
      <path
         d="M 0,0 H 200 V 200 H 0 Z"
         transform="matrix(0.99999999,0,0,-0.99999999,-1.1759172e-5,200)"
         id="path4" />
    </clipPath>
    <clipPath
       clipPathUnits="userSpaceOnUse"
       id="clipPath5">
      <path
         d="M 0,0 H 200 V 200 H 0 Z"
         transform="matrix(0.99999999,0,0,-0.99999999,-1.1759172e-5,200)"
         id="path5" />
    </clipPath>
    <clipPath
       clipPathUnits="userSpaceOnUse"
       id="clipPath6">
      <path
         d="M 0,0 H 200 V 200 H 0 Z"
         transform="matrix(0.99999999,0,0,-0.99999999,-1.1759172e-5,200)"
         id="path6" />
    </clipPath>
    <clipPath
       clipPathUnits="userSpaceOnUse"
       id="clipPath7">
      <path
         d="M 0,0 H 200 V 200 H 0 Z"
         transform="matrix(0.99999999,0,0,-0.99999999,-1.1759172e-5,200)"
         id="path7" />
    </clipPath>
    <clipPath
       clipPathUnits="userSpaceOnUse"
       id="clipPath8">
      <path
         d="M 0,0 H 200 V 200 H 0 Z"
         transform="matrix(0.99999999,0,0,-0.99999999,-1.1759172e-5,200)"
         id="path8" />
    </clipPath>
    <clipPath
       clipPathUnits="userSpaceOnUse"
       id="clipPath9">
      <path
         d="M 0,0 H 200 V 200 H 0 Z"
         transform="matrix(0.99999999,0,0,-0.99999999,-1.1759172e-5,200)"
         id="path9" />
    </clipPath>
    <clipPath
       clipPathUnits="userSpaceOnUse"
       id="clipPath10">
      <path
         d="M 0,0 H 200 V 200 H 0 Z"
         transform="matrix(0.99999999,0,0,-0.99999999,-1.1759172e-5,200)"
         id="path10" />
    </clipPath>
    <clipPath
       clipPathUnits="userSpaceOnUse"
       id="clipPath11">
      <path
         d="M 0,0 H 200 V 200 H 0 Z"
         transform="matrix(0.99999999,0,0,-0.99999999,-1.1759172e-5,200)"
         id="path11" />
    </clipPath>
    <clipPath
       clipPathUnits="userSpaceOnUse"
       id="clipPath12">
      <path
         d="M 0,0 H 200 V 200 H 0 Z"
         transform="matrix(0.99999999,0,0,-0.99999999,-1.1759172e-5,200)"
         id="path12" />
    </clipPath>
    <clipPath
       clipPathUnits="userSpaceOnUse"
       id="clipPath13">
      <path
         d="M 0,0 H 200 V 200 H 0 Z"
         transform="matrix(0.99999999,0,0,-0.99999999,-1.1759172e-5,200)"
         id="path13" />
    </clipPath>
    <clipPath
       clipPathUnits="userSpaceOnUse"
       id="clipPath14">
      <path
         d="M 0,0 H 200 V 200 H 0 Z"
         transform="matrix(0.99999999,0,0,-0.99999999,-1.1759172e-5,200)"
         id="path14" />
    </clipPath>
    <clipPath
       clipPathUnits="userSpaceOnUse"
       id="clipPath15">
      <path
         d="M 0,0 H 200 V 200 H 0 Z"
         transform="matrix(0.99999999,0,0,-0.99999999,-1.1759172e-5,200)"
         id="path15" />
    </clipPath>
    <clipPath
       clipPathUnits="userSpaceOnUse"
       id="clipPath16">
      <path
         d="M 0,0 H 200 V 200 H 0 Z"
         transform="matrix(0.99999999,0,0,-0.99999999,-1.1759172e-5,200)"
         id="path16" />
    </clipPath>
    <clipPath
       clipPathUnits="userSpaceOnUse"
       id="clipPath17">
      <path
         d="M 0,0 H 200 V 200 H 0 Z"
         transform="matrix(0.99999999,0,0,-0.99999999,-1.1759172e-5,200)"
         id="path17" />
    </clipPath>
    <clipPath
       clipPathUnits="userSpaceOnUse"
       id="clipPath18">
      <path
         d="M 0,0 H 200 V 200 H 0 Z"
         transform="matrix(0.99999999,0,0,-0.99999999,-1.1759172e-5,200)"
         id="path18" />
    </clipPath>
    <clipPath
       clipPathUnits="userSpaceOnUse"
       id="clipPath19">
      <path
         d="M 0,0 H 200 V 200 H 0 Z"
         transform="matrix(0.99999999,0,0,-0.99999999,-1.1759172e-5,200)"
         id="path19" />
    </clipPath>
    <clipPath
       clipPathUnits="userSpaceOnUse"
       id="clipPath20">
      <path
         d="M 0,0 H 200 V 200 H 0 Z"
         transform="matrix(0.99999999,0,0,-0.99999999,-1.1759172e-5,200)"
         id="path20" />
    </clipPath>
    <clipPath
       clipPathUnits="userSpaceOnUse"
       id="clipPath21">
      <path
         d="M 0,0 H 200 V 200 H 0 Z"
         transform="matrix(0.99999999,0,0,-0.99999999,-1.1759172e-5,200)"
         id="path21" />
    </clipPath>
    <clipPath
       clipPathUnits="userSpaceOnUse"
       id="clipPath22">
      <path
         d="M 0,0 H 200 V 200 H 0 Z"
         transform="matrix(0.99999999,0,0,-0.99999999,-1.1759172e-5,200)"
         id="path22" />
    </clipPath>
    <clipPath
       clipPathUnits="userSpaceOnUse"
       id="clipPath23">
      <path
         d="M 0,0 H 200 V 200 H 0 Z"
         transform="matrix(0.99999999,0,0,-0.99999999,-1.1759172e-5,200)"
         id="path23" />
    </clipPath>
    <clipPath
       clipPathUnits="userSpaceOnUse"
       id="clipPath24">
      <path
         d="M 0,0 H 200 V 200 H 0 Z"
         transform="matrix(0.99999999,0,0,-0.99999999,-1.1759172e-5,200)"
         id="path24" />
    </clipPath>
    <clipPath
       clipPathUnits="userSpaceOnUse"
       id="clipPath25">
      <path
         d="M 0,0 H 200 V 200 H 0 Z"
         transform="matrix(0.99999999,0,0,-0.99999999,-1.1759172e-5,200)"
         id="path25" />
    </clipPath>
    <clipPath
       clipPathUnits="userSpaceOnUse"
       id="clipPath26">
      <path
         d="M 0,0 H 200 V 200 H 0 Z"
         transform="matrix(0.99999999,0,0,-0.99999999,-1.1759172e-5,200)"
         id="path26" />
    </clipPath>
    <clipPath
       clipPathUnits="userSpaceOnUse"
       id="clipPath27">
      <path
         d="M 0,0 H 200 V 200 H 0 Z"
         transform="matrix(0.99999999,0,0,-0.99999999,-1.1759172e-5,200)"
         id="path27" />
    </clipPath>
    <clipPath
       clipPathUnits="userSpaceOnUse"
       id="clipPath28">
      <path
         d="M 0,0 H 200 V 200 H 0 Z"
         transform="matrix(0.99999999,0,0,-0.99999999,-1.1759172e-5,200)"
         id="path28" />
    </clipPath>
    <clipPath
       clipPathUnits="userSpaceOnUse"
       id="clipPath29">
      <path
         d="M 0,0 H 200 V 200 H 0 Z"
         transform="matrix(0.99999999,0,0,-0.99999999,-1.1759172e-5,200)"
         id="path29" />
    </clipPath>
    <clipPath
       clipPathUnits="userSpaceOnUse"
       id="clipPath30">
      <path
         d="M 0,0 H 200 V 200 H 0 Z"
         transform="matrix(0.99999999,0,0,-0.99999999,-1.1759172e-5,200)"
         id="path30" />
    </clipPath>
    <clipPath
       clipPathUnits="userSpaceOnUse"
       id="clipPath31">
      <path
         d="M 0,0 H 200 V 200 H 0 Z"
         transform="matrix(0.99999999,0,0,-0.99999999,-1.1759172e-5,200)"
         id="path31" />
    </clipPath>
    <clipPath
       clipPathUnits="userSpaceOnUse"
       id="clipPath32">
      <path
         d="M 0,0 H 200 V 200 H 0 Z"
         transform="matrix(0.99999999,0,0,-0.99999999,-1.1759172e-5,200)"
         id="path32" />
    </clipPath>
  </defs>
  <sodipodi:namedview
     id="namedview1"
     pagecolor="#ffffff"
     bordercolor="#000000"
     borderopacity="0.25"
     inkscape:showpageshadow="false"
     inkscape:pageopacity="0.0"
     inkscape:pagecheckerboard="false"
     inkscape:deskcolor="#d1d1d1"
     inkscape:clip-to-page="true"
     showborder="false"
     borderlayer="false"
     inkscape:antialias-rendering="true"
     inkscape:zoom="1.6463681"
     inkscape:cx="43.125229"
     inkscape:cy="180.39709"
     inkscape:window-width="1920"
     inkscape:window-height="1052"
     inkscape:window-x="0"
     inkscape:window-y="0"
     inkscape:window-maximized="1"
     inkscape:current-layer="g1">
    <inkscape:page
       x="0"
       y="0"
       inkscape:label="12"
       id="page1"
       width="215.99588"
       height="242.63672"
       margin="0"
       bleed="0" />
  </sodipodi:namedview>
  <g
     id="g1"
     inkscape:groupmode="layer"
     inkscape:label="12"
     transform="translate(-107.03775,-42.328476)">
    <path
       id="path76"
       d="m 209.91593,43.437846 c 0,-0.34375 0.10156,-0.61328 0.3125,-0.8125 0.21875,-0.19531 0.50391,-0.29687 0.85938,-0.29687 0.36328,0 0.64843,0.10156 0.85937,0.29687 0.21875,0.19922 0.32813,0.46875 0.32813,0.8125 0,0.33594 -0.10938,0.60547 -0.32813,0.8125 -0.21094,0.19531 -0.49609,0.29688 -0.85937,0.29688 -0.35547,0 -0.64063,-0.10157 -0.85938,-0.29688 -0.21094,-0.20703 -0.3125,-0.47656 -0.3125,-0.8125 z m 3.95313,0 c 0,-0.34375 0.10156,-0.61328 0.3125,-0.8125 0.21875,-0.19531 0.5039,-0.29687 0.85937,-0.29687 0.36328,0 0.64844,0.10156 0.85938,0.29687 0.21875,0.19922 0.32812,0.46875 0.32812,0.8125 0,0.33594 -0.10937,0.60547 -0.32812,0.8125 -0.21094,0.19531 -0.4961,0.29688 -0.85938,0.29688 -0.35547,0 -0.64062,-0.10157 -0.85937,-0.29688 -0.21094,-0.20703 -0.3125,-0.47656 -0.3125,-0.8125 z m 3.96875,0 c 0,-0.34375 0.10156,-0.61328 0.3125,-0.8125 0.21875,-0.19531 0.5039,-0.29687 0.85937,-0.29687 0.36328,0 0.64844,0.10156 0.85938,0.29687 0.21875,0.19922 0.32812,0.46875 0.32812,0.8125 0,0.33594 -0.10937,0.60547 -0.32812,0.8125 -0.21094,0.19531 -0.4961,0.29688 -0.85938,0.29688 -0.35547,0 -0.64062,-0.10157 -0.85937,-0.29688 -0.21094,-0.20703 -0.3125,-0.47656 -0.3125,-0.8125 z m 0,0"
       style="fill:#000040;fill-opacity:1;fill-rule:nonzero;stroke:none;stroke-width:1.33333"
       aria-label="…" />
    <path
       id="path77"
       d="M 317.45448,87.723626 H 112.6169 c -2.93459,0 -5.31348,2.37888 -5.31348,5.31347 v 46.130994 c 0,2.93458 2.37889,5.31348 5.31348,5.31348 h 204.83758 c 2.9346,0 5.31348,-2.3789 5.31348,-5.31348 V 93.037096 c 0,-2.93459 -2.37888,-5.31347 -5.31348,-5.31347 z m 5.31348,28.342594 H 107.30342"
       style="fill:none;stroke:#000040;stroke-width:0.531333;stroke-linecap:butt;stroke-linejoin:miter;stroke-miterlimit:10;stroke-dasharray:none;stroke-opacity:1" />
    <path
       id="path78"
       d="m 126.4003,100.80504 c 0.21875,0 0.40625,0.0156 0.64063,0.0312 1.35937,0.0937 2.3125,0.625 2.3125,1.84375 0,1.375 -1.23438,2.03125 -2.4375,2.03125 -1.125,0 -1.95313,-0.17188 -2.39063,-0.39063 l -0.3125,1.09375 c 0.53125,0.21875 1.34375,0.375 2.60938,0.375 1.92187,0 3.8125,-0.95312 3.8125,-3.1875 0,-1.39062 -0.85938,-2.25 -2.23438,-2.4375 v -0.0625 c 1.28125,-0.390624 1.92188,-1.359374 1.92188,-2.343754 0,-1.92187 -1.57813,-2.5 -3.125,-2.5 -1.25,0 -2.375,0.28125 -2.75,0.5 l 0.3125,0.95313 c 0.4375,-0.20313 1.20312,-0.375 2.23437,-0.375 1.10938,0 2.04688,0.40625 2.04688,1.67187 0,0.95313 -0.82813,1.54688 -1.82813,1.70313 -0.32812,0.0625 -1.03125,0.0781 -1.39062,0.0781 h -0.23438 v 1.015704 z m 6.41797,-1.062504 c 0.53125,-0.3125 1.5,-0.5 2.14063,-0.5 1.14062,0 1.48437,0.35937 1.48437,1.437504 0,0.23437 -0.0156,0.5 -0.0469,0.79687 -0.26563,-0.0312 -0.53125,-0.0312 -0.79688,-0.0312 -2.125,0 -3.59375,0.51563 -3.59375,2.21875 0,1.26563 0.95313,2.0625 2.1875,2.0625 1.23438,0 1.92188,-0.57812 2.26563,-1.09375 h 0.0781 l 0.29688,1.01563 h 0.85937 c -0.15625,-0.54688 -0.20312,-1.1875 -0.20312,-1.90625 0,-0.98438 0.0937,-2.10938 0.0937,-3.28125 0,-1.031254 -0.29687,-2.234384 -2.3125,-2.234384 -1.0625,0 -2.09375,0.21875 -2.82812,0.65625 z m 1.6875,4.968754 c -0.75,0 -1.28125,-0.46875 -1.28125,-1.15625 0,-0.98438 1.14063,-1.21875 2.34375,-1.21875 0.28125,0 0.5625,0.0156 0.82813,0.0156 v 1.21875 c -0.20313,0.5 -0.78125,1.14063 -1.89063,1.14063 z m 8.54297,3.8125 h 1.10937 v -2.82813 c 0.20313,0.0625 0.625,0.0937 0.79688,0.0937 1.89062,0 2.95312,-1.51562 2.95312,-3.95312 0,-2.593754 -0.96875,-3.609384 -2.89062,-3.609384 -0.25,0 -0.51563,0.0156 -0.85938,0.0781 v -2.875 h -1.10937 v 2.85937 c -0.21875,-0.0469 -0.45313,-0.0625 -0.70313,-0.0625 -1.95312,0 -3.04687,1.29688 -3.04687,3.750004 0,2.59375 0.98437,3.8125 2.75,3.8125 0.29687,0 0.67187,0 1,-0.10937 z m 1.75,-9.343754 c 1.45312,0 1.95312,1.015624 1.95312,2.656254 0,1.9375 -0.64062,3 -1.875,3 -0.29687,0 -0.54687,0 -0.73437,-0.0469 v -5.531254 c 0.26562,-0.0781 0.42187,-0.0781 0.65625,-0.0781 z m -2.45313,5.656254 c -1.29687,0 -1.89062,-1.21875 -1.89062,-2.85938 0,-1.90625 0.71875,-2.796874 1.90625,-2.796874 0.29687,0 0.46875,0.0156 0.70312,0.0625 v 5.515624 c -0.28125,0.0625 -0.5,0.0781 -0.71875,0.0781 z m 11.85938,0.78125 h 1.17187 v -7.265634 h -0.6875 l -3.28125,4.390634 -0.5625,0.89062 h -0.0625 l 0.0469,-0.85937 v -4.421884 h -1.15625 v 7.265634 h 0.67188 l 3.26562,-4.28125 0.59375,-0.92188 h 0.0469 l -0.0469,0.89063 z m 7.66016,0 h 1.45312 l -2.4375,-3.28125 -0.75,-0.59375 0.60938,-0.46875 2.25,-2.921884 h -1.26563 l -2.32813,3.078134 -0.625,0.20312 v -3.281254 h -1.15624 v 7.265634 h 1.15624 v -3.26563 h 0.67188 z m 7.13281,-1.375 c -0.34375,0.28125 -0.92188,0.53125 -1.60938,0.53125 -1.625,0 -2.17187,-1.32813 -2.17187,-2.79688 0,-1.875 0.6875,-2.796874 2.0625,-2.796874 0.60937,0 1.17187,0.17187 1.60937,0.42187 l 0.34375,-1.01562 c -0.53125,-0.26563 -1.14062,-0.42188 -2.0625,-0.42188 -2.03125,0 -3.15625,1.375 -3.15625,3.812504 0,2.29688 0.84375,3.8125 3.07813,3.8125 0.875,0 1.70312,-0.23437 2.28125,-0.65625 z m 6.51562,1.375 h 1.17188 v -7.265634 h -0.6875 l -3.28125,4.390634 -0.5625,0.89062 h -0.0625 l 0.0469,-0.85937 v -4.421884 h -1.15625 v 7.265634 h 0.67188 l 3.26561,-4.28125 0.59375,-0.92188 h 0.0469 l -0.0469,0.89063 z m 3.41016,2.90625 h 1.15625 v -3.01563 c 0.48437,0.20313 0.8125,0.28125 1.53125,0.28125 2.03125,0 3.34375,-1.51562 3.34375,-3.95312 0,-2.593754 -0.9375,-3.671884 -2.875,-3.671884 -0.90625,0 -1.64063,0.375 -2.07813,1.04688 h -0.0625 l -0.21875,-0.85938 h -0.79688 z m 2.9375,-9.343754 c 1.375,0 1.89062,1.046874 1.89062,2.640624 0,1.92188 -0.85937,2.95313 -2.1875,2.95313 -0.71875,0 -1.125,-0.14063 -1.48437,-0.40625 v -3.625 c 0.23437,-1.046884 0.78125,-1.562504 1.78125,-1.562504 z m 4.52344,2.796874 c 0,2.29688 1,3.8125 3.1875,3.8125 2.03124,0 3.17187,-1.35937 3.17187,-3.8125 0,-2.296874 -1,-3.812504 -3.17187,-3.812504 -2.04688,0 -3.1875,1.375 -3.1875,3.812504 z m 1.20312,0 c 0,-1.89062 0.6875,-2.796874 1.98438,-2.796874 1.4375,0 1.96874,1.296874 1.96874,2.796874 0,1.89063 -0.67187,2.79688 -1.96874,2.79688 -1.45313,0 -1.98438,-1.3125 -1.98438,-2.79688 z m 7,3.625 c 0.67188,0.0625 1.34375,0.125 2.15625,0.125 2.15625,0 3.26563,-0.65625 3.26563,-2.15625 0,-0.96875 -0.42188,-1.54687 -1.5625,-1.76562 v -0.0625 c 0.92187,-0.29688 1.28124,-1.04688 1.28124,-1.71875 0,-1.187504 -0.78124,-1.781254 -2.6875,-1.781254 -1.10937,0 -1.78124,0.0781 -2.45312,0.10937 z m 1.15625,-3.29687 h 1.28125 c 1.35938,0 1.8125,0.46875 1.8125,1.17187 0,0.89063 -0.625,1.21875 -1.90625,1.21875 -0.48437,0 -0.82813,-0.0156 -1.1875,-0.0469 z m 0,-0.89063 v -2.109374 c 0.34375,-0.0156 0.64063,-0.0469 1.25,-0.0469 1.15625,0 1.57813,0.26563 1.57813,1.031254 0,0.60938 -0.71876,1.125 -1.40626,1.125 z m 6.35156,-1.671874 c 0.53125,-0.3125 1.5,-0.5 2.14063,-0.5 1.14062,0 1.48437,0.35937 1.48437,1.437504 0,0.23437 -0.0156,0.5 -0.0469,0.79687 -0.26562,-0.0312 -0.53125,-0.0312 -0.79687,-0.0312 -2.125,0 -3.59375,0.51563 -3.59375,2.21875 0,1.26563 0.95312,2.0625 2.1875,2.0625 1.23437,0 1.92187,-0.57812 2.26562,-1.09375 h 0.0781 l 0.29688,1.01563 h 0.85937 c -0.15625,-0.54688 -0.20312,-1.1875 -0.20312,-1.90625 0,-0.98438 0.0937,-2.10938 0.0937,-3.28125 0,-1.031254 -0.29687,-2.234384 -2.3125,-2.234384 -1.0625,0 -2.09375,0.21875 -2.82812,0.65625 z m 1.6875,4.968754 c -0.75,0 -1.28125,-0.46875 -1.28125,-1.15625 0,-0.98438 1.14063,-1.21875 2.34375,-1.21875 0.28125,0 0.5625,0.0156 0.82813,0.0156 v 1.21875 c -0.20313,0.5 -0.78125,1.14063 -1.89063,1.14063 z m 9.73047,0.90625 h 1.15625 v -7.265634 h -1.15625 v 3.031254 h -3.29687 v -3.031254 h -1.15625 v 7.265634 h 1.15625 v -3.21875 h 3.29687 z m 7.85547,0 h 1.15625 v -7.265634 h -1.15625 v 3.031254 h -3.29688 v -3.031254 h -1.15625 v 7.265634 h 1.15625 v -3.21875 h 3.29688 z m 2.99609,-3.64063 c 0,2.29688 1,3.8125 3.1875,3.8125 2.03125,0 3.17188,-1.35937 3.17188,-3.8125 0,-2.296874 -1,-3.812504 -3.17188,-3.812504 -2.04687,0 -3.1875,1.375 -3.1875,3.812504 z m 1.20313,0 c 0,-1.89062 0.6875,-2.796874 1.98437,-2.796874 1.4375,0 1.96875,1.296874 1.96875,2.796874 0,1.89063 -0.67187,2.79688 -1.96875,2.79688 -1.45312,0 -1.98437,-1.3125 -1.98437,-2.79688 z m 11.875,2.21875 c -0.34375,0.29688 -1.07813,0.57813 -1.73438,0.57813 -1.71875,0 -2.32812,-0.98438 -2.34375,-2.67188 h 4.67188 c 0.0469,-0.39062 0.0781,-0.75 0.0781,-1.0625 0,-2.437504 -1.4375,-2.875004 -2.76563,-2.875004 -2.03125,0 -3.1875,1.35938 -3.1875,3.812504 0,2.3125 0.98438,3.8125 3.20313,3.8125 1,0 1.92187,-0.28125 2.51562,-0.75 z m -2.07813,-5.015624 c 1.03125,0 1.625,0.53125 1.625,2.000004 h -3.60937 c 0.125,-1.437504 0.85937,-2.000004 1.98437,-2.000004 z m 13.03906,5.062504 c -0.34374,0.28125 -0.92187,0.53125 -1.60937,0.53125 -1.625,0 -2.17187,-1.32813 -2.17187,-2.79688 0,-1.875 0.6875,-2.796874 2.0625,-2.796874 0.60937,0 1.17187,0.17187 1.60937,0.42187 l 0.34375,-1.01562 c -0.53125,-0.26563 -1.14062,-0.42188 -2.0625,-0.42188 -2.03125,0 -3.15625,1.375 -3.15625,3.812504 0,2.29688 0.84375,3.8125 3.07813,3.8125 0.875,0 1.70312,-0.23437 2.28124,-0.65625 z m 1.25391,-2.26563 c 0,2.29688 1,3.8125 3.1875,3.8125 2.03125,0 3.17188,-1.35937 3.17188,-3.8125 0,-2.296874 -1,-3.812504 -3.17188,-3.812504 -2.04687,0 -3.1875,1.375 -3.1875,3.812504 z m 1.20313,0 c 0,-1.89062 0.6875,-2.796874 1.98437,-2.796874 1.4375,0 1.96875,1.296874 1.96875,2.796874 0,1.89063 -0.67187,2.79688 -1.96875,2.79688 -1.45312,0 -1.98437,-1.3125 -1.98437,-2.79688 z m 11.57813,2.26563 c -0.34376,0.28125 -0.92188,0.53125 -1.60939,0.53125 -1.625,0 -2.17187,-1.32813 -2.17187,-2.79688 0,-1.875 0.6875,-2.796874 2.0625,-2.796874 0.60937,0 1.17188,0.17187 1.60937,0.42187 l 0.34376,-1.01562 c -0.53125,-0.26563 -1.14063,-0.42188 -2.06251,-0.42188 -2.03125,0 -3.15625,1.375 -3.15625,3.812504 0,2.29688 0.84376,3.8125 3.07813,3.8125 0.875,0 1.70312,-0.23437 2.28126,-0.65625 z m 6.39061,-5.890634 h -5.73437 v 1.01563 h 2.28125 v 6.250004 h 1.17188 v -6.250004 h 2.28124 z m 0.50781,3.625004 c 0,2.29688 1,3.8125 3.18751,3.8125 2.03125,0 3.17187,-1.35937 3.17187,-3.8125 0,-2.296874 -1,-3.812504 -3.17187,-3.812504 -2.04688,0 -3.18751,1.375 -3.18751,3.812504 z m 1.20314,0 c 0,-1.89062 0.68749,-2.796874 1.98437,-2.796874 1.43749,0 1.96875,1.296874 1.96875,2.796874 0,1.89063 -0.67188,2.79688 -1.96875,2.79688 -1.45313,0 -1.98437,-1.3125 -1.98437,-2.79688 z m 10.625,3.64063 h 1.15624 v -7.218754 c -0.59375,-0.10938 -1.20312,-0.23438 -1.92187,-0.23438 -1.92188,0 -3.18751,0.73438 -3.18751,2.484384 0,1.10937 0.81251,1.78125 1.82814,1.9375 l -0.59376,0.54687 -1.73438,2.48438 h 1.40626 l 1.92188,-2.84375 1.125,-0.17188 z m 0,-6.296884 v 2.609384 c -0.78126,0.0156 -0.82814,0.0156 -0.85938,0.0156 -1.125,0 -1.89062,-0.5 -1.89062,-1.35937 0,-0.968754 0.67186,-1.406254 1.90624,-1.406254 0.23438,0 0.59376,0.0469 0.84376,0.14062 z m 7.73828,6.296884 h 1.15625 v -7.265634 h -1.15625 v 3.031254 h -3.29688 v -3.031254 h -1.15626 v 7.265634 h 1.15626 v -3.21875 h 3.29688 z m 7.93358,0 h 1.17188 v -7.265634 h -0.6875 l -3.28124,4.390634 -0.56251,0.89062 h -0.0625 l 0.0469,-0.85937 v -4.421884 h -1.15624 v 7.265634 h 0.67187 l 3.26562,-4.28125 0.59375,-0.92188 h 0.0469 l -0.0469,0.89063 z m 8.28516,-1.42188 c -0.34374,0.29688 -1.07812,0.57813 -1.73437,0.57813 -1.71875,0 -2.32812,-0.98438 -2.34375,-2.67188 h 4.67187 c 0.0469,-0.39062 0.0781,-0.75 0.0781,-1.0625 0,-2.437504 -1.4375,-2.875004 -2.76562,-2.875004 -2.03126,0 -3.18751,1.35938 -3.18751,3.812504 0,2.3125 0.98437,3.8125 3.20313,3.8125 1,0 1.92187,-0.28125 2.51563,-0.75 z m -2.07812,-5.015624 c 1.03124,0 1.625,0.53125 1.625,2.000004 h -3.60937 c 0.12493,-1.437504 0.85937,-2.000004 1.98437,-2.000004 z m 0,0"
       style="fill:#000040;fill-opacity:1;fill-rule:nonzero;stroke:none;stroke-width:1.33333"
       aria-label="Зафиксированноесостояние" />
    <path
       id="path79"
       d="m 122.04484,132.58629 c -0.45313,0.28125 -1.10938,0.46875 -1.96875,0.46875 -1.92188,0 -3.40625,-1.39062 -3.40625,-4.1875 0,-3.10937 1.625,-4.1875 3.23437,-4.1875 0.85938,0 1.53125,0.10938 1.98438,0.32813 l 0.29687,-1.0625 c -0.53125,-0.20313 -1.21875,-0.34375 -2.375,-0.34375 -2.15625,0 -4.42187,1.46875 -4.42187,5.26562 0,3.65625 1.98437,5.26563 4.40625,5.26563 1,0 1.95312,-0.14063 2.53125,-0.59375 z m 6.04297,0 c -0.34376,0.28125 -0.92188,0.53125 -1.60938,0.53125 -1.625,0 -2.17188,-1.32812 -2.17188,-2.79687 0,-1.875 0.6875,-2.79688 2.0625,-2.79688 0.60938,0 1.17188,0.17188 1.60938,0.42188 l 0.34375,-1.01563 c -0.53125,-0.26562 -1.14063,-0.42187 -2.0625,-0.42187 -2.03125,0 -3.15625,1.375 -3.15625,3.8125 0,2.29687 0.84375,3.8125 3.07812,3.8125 0.875,0 1.70313,-0.23438 2.28126,-0.65625 z m 3.14062,-2.15625 c 0.34375,-0.0937 0.76562,-0.10937 1.07812,-0.10937 1.17188,0 1.59376,0.57812 1.59376,1.34375 0,0.85937 -0.42188,1.35937 -1.64063,1.35937 -0.3125,0 -0.67187,-0.0156 -1.03125,-0.0781 z m 0,-3.73437 h -1.15625 v 7.26562 c 0.67187,0.0625 1.29687,0.0937 1.9375,0.0937 2.1875,0 3.10937,-0.76562 3.10937,-2.51562 0,-1.23438 -0.60937,-2.17188 -2.60937,-2.17188 -0.375,0 -0.8125,0.0312 -1.28125,0.0937 z m 5.03125,7.26562 h 1.17187 v -7.26562 h -1.17187 z m 7.31641,0 h 1.17187 v -7.26562 h -4.34375 c -0.125,5.21875 -0.59375,6.28125 -1.375,6.28125 -0.125,0 -0.25,-0.0156 -0.375,-0.0625 l -0.1875,0.96875 c 0.21875,0.10937 0.48438,0.14062 0.84375,0.14062 1.82813,0 2.01563,-3.85937 2.15625,-6.3125 h 2.10938 z m 7.66015,0 h 1.45313 l -2.4375,-3.28125 -0.75,-0.59375 0.60937,-0.46875 2.25,-2.92187 h -1.26562 l -2.32813,3.07812 -0.625,0.20313 v -3.28125 h -1.15625 v 7.26562 h 1.15625 v -3.26562 h 0.67188 z m 2.95313,-5.875 c 0.53125,-0.3125 1.5,-0.5 2.14062,-0.5 1.14063,0 1.48438,0.35938 1.48438,1.4375 0,0.23438 -0.0156,0.5 -0.0469,0.79688 -0.26563,-0.0312 -0.53125,-0.0312 -0.79688,-0.0312 -2.125,0 -3.59375,0.51562 -3.59375,2.21875 0,1.26562 0.95313,2.0625 2.1875,2.0625 1.23438,0 1.92188,-0.57813 2.26563,-1.09375 h 0.0781 l 0.29687,1.01562 h 0.85938 c -0.15625,-0.54687 -0.20313,-1.1875 -0.20313,-1.90625 0,-0.98437 0.0937,-2.10937 0.0937,-3.28125 0,-1.03125 -0.29688,-2.23437 -2.3125,-2.23437 -1.0625,0 -2.09375,0.21875 -2.82812,0.65625 z m 1.6875,4.96875 c -0.75,0 -1.28125,-0.46875 -1.28125,-1.15625 0,-0.98437 1.14062,-1.21875 2.34375,-1.21875 0.28125,0 0.5625,0.0156 0.82812,0.0156 v 1.21875 c -0.20312,0.5 -0.78125,1.14062 -1.89062,1.14062 z m 13.60156,0.90625 h 1.15625 v -7.26562 h -1.15625 v 3.03125 h -3.29688 v -3.03125 h -1.15625 v 7.26562 h 1.15625 v -3.21875 h 3.29688 z m 3.65234,-5.875 c 0.53125,-0.3125 1.5,-0.5 2.14063,-0.5 1.14062,0 1.48437,0.35938 1.48437,1.4375 0,0.23438 -0.0156,0.5 -0.0469,0.79688 -0.26562,-0.0312 -0.53125,-0.0312 -0.79687,-0.0312 -2.125,0 -3.59375,0.51562 -3.59375,2.21875 0,1.26562 0.95312,2.0625 2.1875,2.0625 1.23437,0 1.92187,-0.57813 2.26562,-1.09375 h 0.0781 l 0.29688,1.01562 h 0.85937 c -0.15625,-0.54687 -0.20312,-1.1875 -0.20312,-1.90625 0,-0.98437 0.0937,-2.10937 0.0937,-3.28125 0,-1.03125 -0.29687,-2.23437 -2.3125,-2.23437 -1.0625,0 -2.09375,0.21875 -2.82812,0.65625 z m 1.6875,4.96875 c -0.75,0 -1.28125,-0.46875 -1.28125,-1.15625 0,-0.98437 1.14063,-1.21875 2.34375,-1.21875 0.28125,0 0.5625,0.0156 0.82813,0.0156 v 1.21875 c -0.20313,0.5 -0.78125,1.14062 -1.89063,1.14062 z m 13.53516,0.90625 h 1.15625 v -7.26562 h -5.53125 v 7.26562 h 1.15625 v -6.25 h 3.21875 z m 3.40625,2.90625 h 1.15625 v -3.01562 c 0.48437,0.20312 0.8125,0.28125 1.53125,0.28125 2.03125,0 3.34375,-1.51563 3.34375,-3.95313 0,-2.59375 -0.9375,-3.67187 -2.875,-3.67187 -0.90625,0 -1.64063,0.375 -2.07813,1.04687 h -0.0625 l -0.21876,-0.85937 h -0.79687 z m 2.9375,-9.34375 c 1.375,0 1.89062,1.04688 1.89062,2.64063 0,1.92187 -0.85937,2.95312 -2.1875,2.95312 -0.71875,0 -1.125,-0.14062 -1.48437,-0.40625 v -3.625 c 0.23437,-1.04687 0.78125,-1.5625 1.78125,-1.5625 z m 9.80469,5.01563 c -0.34375,0.29687 -1.07813,0.57812 -1.73438,0.57812 -1.71875,0 -2.32812,-0.98437 -2.34375,-2.67187 h 4.67188 c 0.0469,-0.39063 0.0781,-0.75 0.0781,-1.0625 0,-2.4375 -1.4375,-2.875 -2.76563,-2.875 -2.03125,0 -3.1875,1.35937 -3.1875,3.8125 0,2.3125 0.98437,3.8125 3.20313,3.8125 1,0 1.92187,-0.28125 2.51562,-0.75 z m -2.07813,-5.01563 c 1.03125,0 1.625,0.53125 1.625,2 h -3.60937 c 0.125,-1.4375 0.85937,-2 1.98437,-2 z m 10.71094,5.42188 h -1.0625 v -6.25 h -4.39063 c -0.0625,4.10937 -0.85937,5.82812 -1.15625,6.25 h -0.85937 v 2.85937 h 0.78125 l 0.21875,-1.84375 h 5.46875 l 0.21875,1.84375 h 0.78125 z m -5.4375,0 c 0.65625,-1.26563 0.95312,-3.57813 1.03125,-5.23438 h 2.1875 v 5.23438 z m 8.03906,-2.51563 c 0.34375,-0.0937 0.76563,-0.10937 1.07813,-0.10937 1.17187,0 1.59375,0.57812 1.59375,1.34375 0,0.85937 -0.42188,1.35937 -1.64063,1.35937 -0.3125,0 -0.67187,-0.0156 -1.03125,-0.0781 z m 0,-3.73437 h -1.15625 v 7.26562 c 0.67188,0.0625 1.29688,0.0937 1.9375,0.0937 2.1875,0 3.10938,-0.76562 3.10938,-2.51562 0,-1.23438 -0.60938,-2.17188 -2.60938,-2.17188 -0.375,0 -0.8125,0.0312 -1.28125,0.0937 z m 5.03125,7.26562 h 1.17188 v -7.26562 h -1.17188 z m 9.83594,-1.01562 h -1.0625 v -6.25 h -4.39063 c -0.0625,4.10937 -0.85937,5.82812 -1.15625,6.25 h -0.85937 v 2.85937 h 0.78125 l 0.21875,-1.84375 h 5.46875 l 0.21875,1.84375 h 0.78125 z m -5.4375,0 c 0.65625,-1.26563 0.95312,-3.57813 1.03125,-5.23438 h 2.1875 v 5.23438 z m 7.27344,-6.25 h -1.34376 l 2.92188,7.26562 c -0.3125,1.39063 -0.875,1.90625 -1.40625,1.90625 -0.10937,0 -0.25,-0.0312 -0.35937,-0.0781 l -0.20313,1.01562 c 0.23437,0.0937 0.5,0.14063 0.85937,0.14063 1.28126,0 1.875,-1.82813 2.51563,-3.71875 l 2.14063,-6.53125 h -1.17188 l -1.40625,4.6875 -0.32813,1.42187 h -0.0625 l -0.40625,-1.40625 z m 15.90624,6.25 h -1.04687 v -6.25 h -1.17187 v 6.25 h -2.48438 v -6.25 h -1.17188 v 6.25 h -2.48437 v -6.25 h -1.15625 v 7.26562 h 8.5 l 0.21875,1.89063 h 0.79687 z m 5.96485,1.01562 h 1.17187 v -7.26562 h -0.68749 l -3.28126,4.39062 -0.5625,0.89063 h -0.0625 l 0.0469,-0.85938 v -4.42187 h -1.15626 v 7.26562 h 0.67187 l 3.26563,-4.28125 0.59376,-0.92187 h 0.0469 l -0.0469,0.89062 z m 7.94531,0 h 1.17188 v -7.26562 h -0.68751 l -3.28125,4.39062 -0.56249,0.89063 h -0.0625 l 0.0469,-0.85938 v -4.42187 h -1.15626 v 7.26562 h 0.67188 l 3.26563,-4.28125 0.59375,-0.92187 h 0.0469 l -0.0469,0.89062 z m -3.85937,-9.85937 c 0.20312,1.15625 1.23437,1.6875 2.29688,1.6875 1.125,0 2.04686,-0.625 2.21874,-1.75 l -0.875,-0.28125 c -0.17188,0.82812 -0.6875,1.1875 -1.32813,1.1875 -0.625,0 -1.125,-0.3125 -1.31249,-1.20313 z m 15.38672,9.85937 h 1.45312 l -2.4375,-3.28125 -0.75,-0.59375 0.60938,-0.46875 2.25,-2.92187 h -1.26563 l -2.32812,3.07812 -0.625,0.20313 v -3.28125 h -1.15625 v 7.26562 h 1.15625 v -3.26562 h 0.67187 z m 2.15234,-3.64062 c 0,2.29687 1,3.8125 3.1875,3.8125 2.03125,0 3.17188,-1.35938 3.17188,-3.8125 0,-2.29688 -1,-3.8125 -3.17188,-3.8125 -2.04688,0 -3.1875,1.375 -3.1875,3.8125 z m 1.20312,0 c 0,-1.89063 0.6875,-2.79688 1.98438,-2.79688 1.4375,0 1.96874,1.29688 1.96874,2.79688 0,1.89062 -0.67186,2.79687 -1.96874,2.79687 -1.45312,0 -1.98438,-1.3125 -1.98438,-2.79687 z m 13,3.64062 h 1.14063 v -7.26562 h -1.17188 l -1.90625,3.21875 -0.4375,0.875 h -0.0156 l -0.42188,-0.84375 -2.04686,-3.25 h -1.14063 v 7.26562 h 1.07812 v -4.32812 l -0.12493,-1.375 h 0.0625 l 0.48437,1.125 1.82812,2.84375 h 0.40626 l 1.76562,-2.84375 0.51563,-1.125 h 0.0781 l -0.0937,1.375 z m 9.37891,0 h 1.14063 v -7.26562 h -1.17188 l -1.90626,3.21875 -0.43749,0.875 h -0.0156 l -0.42188,-0.84375 -2.04687,-3.25 h -1.14062 v 7.26562 h 1.07812 v -4.32812 l -0.12494,-1.375 h 0.0625 l 0.48437,1.125 1.82812,2.84375 h 0.40625 l 1.76563,-2.84375 0.51563,-1.125 h 0.0781 l -0.0937,1.375 z m 7.91407,0 h 1.17186 v -7.26562 h -0.68749 l -3.28125,4.39062 -0.56251,0.89063 h -0.0625 l 0.0469,-0.85938 v -4.42187 h -1.15625 v 7.26562 h 0.67186 l 3.26563,-4.28125 0.59376,-0.92187 h 0.0469 l -0.0469,0.89062 z m 8.05077,-7.26562 h -5.73437 v 1.01562 h 2.28125 v 6.25 h 1.17187 v -6.25 h 2.28125 z m 0,0"
       style="fill:#000040;fill-opacity:1;fill-rule:nonzero;stroke:none;stroke-width:1.33333"
       aria-label="Ссылканапредыдущийкоммит" />
    <path
       id="path80"
       d="M 317.45448,182.80864 H 112.6169 c -2.93459,0 -5.31348,2.3789 -5.31348,5.31348 v 46.13099 c 0,2.93459 2.37889,5.31347 5.31348,5.31347 h 204.83758 c 2.9346,0 5.31348,-2.37888 5.31348,-5.31347 v -46.13099 c 0,-2.93458 -2.37888,-5.31348 -5.31348,-5.31348 z m 5.31348,28.34262 H 107.30342"
       style="fill:none;stroke:#000040;stroke-width:0.531333;stroke-linecap:butt;stroke-linejoin:miter;stroke-miterlimit:10;stroke-dasharray:none;stroke-opacity:1" />
    <path
       id="path81"
       d="m 126.4003,195.89097 c 0.21875,0 0.40625,0.0156 0.64063,0.0312 1.35937,0.0937 2.3125,0.625 2.3125,1.84375 0,1.375 -1.23438,2.03125 -2.4375,2.03125 -1.125,0 -1.95313,-0.17187 -2.39063,-0.39062 l -0.3125,1.09375 c 0.53125,0.21875 1.34375,0.375 2.60938,0.375 1.92187,0 3.8125,-0.95313 3.8125,-3.1875 0,-1.39063 -0.85938,-2.25 -2.23438,-2.4375 v -0.0625 c 1.28125,-0.39063 1.92188,-1.35938 1.92188,-2.34375 0,-1.92188 -1.57813,-2.5 -3.125,-2.5 -1.25,0 -2.375,0.28125 -2.75,0.5 l 0.3125,0.95312 c 0.4375,-0.20312 1.20312,-0.375 2.23437,-0.375 1.10938,0 2.04688,0.40625 2.04688,1.67188 0,0.95312 -0.82813,1.54687 -1.82813,1.70312 -0.32812,0.0625 -1.03125,0.0781 -1.39062,0.0781 h -0.23438 v 1.01562 z m 6.41797,-1.0625 c 0.53125,-0.3125 1.5,-0.5 2.14063,-0.5 1.14062,0 1.48437,0.35938 1.48437,1.4375 0,0.23438 -0.0156,0.5 -0.0469,0.79688 -0.26563,-0.0312 -0.53125,-0.0312 -0.79688,-0.0312 -2.125,0 -3.59375,0.51562 -3.59375,2.21875 0,1.26562 0.95313,2.0625 2.1875,2.0625 1.23438,0 1.92188,-0.57813 2.26563,-1.09375 h 0.0781 l 0.29688,1.01562 h 0.85937 c -0.15625,-0.54687 -0.20312,-1.1875 -0.20312,-1.90625 0,-0.98437 0.0937,-2.10937 0.0937,-3.28125 0,-1.03125 -0.29687,-2.23437 -2.3125,-2.23437 -1.0625,0 -2.09375,0.21875 -2.82812,0.65625 z m 1.6875,4.96875 c -0.75,0 -1.28125,-0.46875 -1.28125,-1.15625 0,-0.98437 1.14063,-1.21875 2.34375,-1.21875 0.28125,0 0.5625,0.0156 0.82813,0.0156 v 1.21875 c -0.20313,0.5 -0.78125,1.14062 -1.89063,1.14062 z m 8.54297,3.8125 h 1.10937 v -2.82812 c 0.20313,0.0625 0.625,0.0937 0.79688,0.0937 1.89062,0 2.95312,-1.51563 2.95312,-3.95313 0,-2.59375 -0.96875,-3.60937 -2.89062,-3.60937 -0.25,0 -0.51563,0.0156 -0.85938,0.0781 v -2.875 h -1.10937 v 2.85938 c -0.21875,-0.0469 -0.45313,-0.0625 -0.70313,-0.0625 -1.95312,0 -3.04687,1.29687 -3.04687,3.75 0,2.59375 0.98437,3.8125 2.75,3.8125 0.29687,0 0.67187,0 1,-0.10938 z m 1.75,-9.34375 c 1.45312,0 1.95312,1.01563 1.95312,2.65625 0,1.9375 -0.64062,3 -1.875,3 -0.29687,0 -0.54687,0 -0.73437,-0.0469 v -5.53125 c 0.26562,-0.0781 0.42187,-0.0781 0.65625,-0.0781 z m -2.45313,5.65625 c -1.29687,0 -1.89062,-1.21875 -1.89062,-2.85937 0,-1.90625 0.71875,-2.79688 1.90625,-2.79688 0.29687,0 0.46875,0.0156 0.70312,0.0625 v 5.51563 c -0.28125,0.0625 -0.5,0.0781 -0.71875,0.0781 z m 11.85938,0.78125 h 1.17187 v -7.26562 h -0.6875 l -3.28125,4.39062 -0.5625,0.89063 h -0.0625 l 0.0469,-0.85938 v -4.42187 h -1.15626 v 7.26562 h 0.67187 l 3.26563,-4.28125 0.59375,-0.92187 h 0.0469 l -0.0469,0.89062 z m 7.66016,0 h 1.45312 l -2.4375,-3.28125 -0.75,-0.59375 0.60938,-0.46875 2.25,-2.92187 h -1.26563 l -2.32813,3.07812 -0.625,0.20313 v -3.28125 h -1.15624 v 7.26562 h 1.15624 v -3.26562 h 0.67188 z m 7.13281,-1.375 c -0.34375,0.28125 -0.92188,0.53125 -1.60938,0.53125 -1.625,0 -2.17187,-1.32812 -2.17187,-2.79687 0,-1.875 0.6875,-2.79688 2.0625,-2.79688 0.60937,0 1.17187,0.17188 1.60937,0.42188 l 0.34375,-1.01563 c -0.53125,-0.26562 -1.14062,-0.42187 -2.0625,-0.42187 -2.03125,0 -3.15625,1.375 -3.15625,3.8125 0,2.29687 0.84375,3.8125 3.07813,3.8125 0.875,0 1.70312,-0.23438 2.28125,-0.65625 z m 6.51562,1.375 h 1.17188 v -7.26562 h -0.6875 l -3.28125,4.39062 -0.5625,0.89063 h -0.0625 l 0.0469,-0.85938 v -4.42187 h -1.15626 v 7.26562 h 0.67188 l 3.26562,-4.28125 0.59375,-0.92187 h 0.0469 l -0.0469,0.89062 z m 3.41016,2.90625 h 1.15625 v -3.01562 c 0.48437,0.20312 0.8125,0.28125 1.53125,0.28125 2.03125,0 3.34375,-1.51563 3.34375,-3.95313 0,-2.59375 -0.9375,-3.67187 -2.875,-3.67187 -0.90625,0 -1.64063,0.375 -2.07813,1.04687 h -0.0625 l -0.21875,-0.85937 h -0.79688 z m 2.9375,-9.34375 c 1.375,0 1.89062,1.04688 1.89062,2.64063 0,1.92187 -0.85937,2.95312 -2.1875,2.95312 -0.71875,0 -1.125,-0.14062 -1.48437,-0.40625 v -3.625 c 0.23437,-1.04687 0.78125,-1.5625 1.78125,-1.5625 z m 4.52344,2.79688 c 0,2.29687 1,3.8125 3.1875,3.8125 2.03124,0 3.17187,-1.35938 3.17187,-3.8125 0,-2.29688 -1,-3.8125 -3.17187,-3.8125 -2.04688,0 -3.1875,1.375 -3.1875,3.8125 z m 1.20312,0 c 0,-1.89063 0.6875,-2.79688 1.98438,-2.79688 1.4375,0 1.96874,1.29688 1.96874,2.79688 0,1.89062 -0.67187,2.79687 -1.96874,2.79687 -1.45313,0 -1.98438,-1.3125 -1.98438,-2.79687 z m 7,3.625 c 0.67188,0.0625 1.34375,0.125 2.15625,0.125 2.15625,0 3.26563,-0.65625 3.26563,-2.15625 0,-0.96875 -0.42188,-1.54688 -1.5625,-1.76563 v -0.0625 c 0.92187,-0.29687 1.28124,-1.04687 1.28124,-1.71875 0,-1.1875 -0.78124,-1.78125 -2.6875,-1.78125 -1.10937,0 -1.78124,0.0781 -2.45312,0.10938 z m 1.15625,-3.29688 h 1.28125 c 1.35938,0 1.8125,0.46875 1.8125,1.17188 0,0.89062 -0.625,1.21875 -1.90625,1.21875 -0.48437,0 -0.82813,-0.0156 -1.1875,-0.0469 z m 0,-0.89062 v -2.10938 c 0.34375,-0.0156 0.64063,-0.0469 1.25,-0.0469 1.15625,0 1.57813,0.26562 1.57813,1.03125 0,0.60937 -0.71876,1.125 -1.40626,1.125 z m 6.35156,-1.67188 c 0.53125,-0.3125 1.5,-0.5 2.14063,-0.5 1.14062,0 1.48437,0.35938 1.48437,1.4375 0,0.23438 -0.0156,0.5 -0.0469,0.79688 -0.26562,-0.0312 -0.53125,-0.0312 -0.79687,-0.0312 -2.125,0 -3.59375,0.51562 -3.59375,2.21875 0,1.26562 0.95312,2.0625 2.1875,2.0625 1.23437,0 1.92187,-0.57813 2.26562,-1.09375 h 0.0781 l 0.29688,1.01562 h 0.85937 c -0.15625,-0.54687 -0.20312,-1.1875 -0.20312,-1.90625 0,-0.98437 0.0937,-2.10937 0.0937,-3.28125 0,-1.03125 -0.29687,-2.23437 -2.3125,-2.23437 -1.0625,0 -2.09375,0.21875 -2.82812,0.65625 z m 1.6875,4.96875 c -0.75,0 -1.28125,-0.46875 -1.28125,-1.15625 0,-0.98437 1.14063,-1.21875 2.34375,-1.21875 0.28125,0 0.5625,0.0156 0.82813,0.0156 v 1.21875 c -0.20313,0.5 -0.78125,1.14062 -1.89063,1.14062 z m 9.73047,0.90625 h 1.15625 v -7.26562 h -1.15625 v 3.03125 h -3.29687 v -3.03125 h -1.15625 v 7.26562 h 1.15625 v -3.21875 h 3.29687 z m 7.85547,0 h 1.15625 v -7.26562 h -1.15625 v 3.03125 h -3.29688 v -3.03125 h -1.15625 v 7.26562 h 1.15625 v -3.21875 h 3.29688 z m 2.99609,-3.64062 c 0,2.29687 1,3.8125 3.1875,3.8125 2.03125,0 3.17188,-1.35938 3.17188,-3.8125 0,-2.29688 -1,-3.8125 -3.17188,-3.8125 -2.04687,0 -3.1875,1.375 -3.1875,3.8125 z m 1.20313,0 c 0,-1.89063 0.6875,-2.79688 1.98437,-2.79688 1.4375,0 1.96875,1.29688 1.96875,2.79688 0,1.89062 -0.67187,2.79687 -1.96875,2.79687 -1.45312,0 -1.98437,-1.3125 -1.98437,-2.79687 z m 11.875,2.21875 c -0.34375,0.29687 -1.07813,0.57812 -1.73438,0.57812 -1.71875,0 -2.32812,-0.98437 -2.34375,-2.67187 h 4.67188 c 0.0469,-0.39063 0.0781,-0.75 0.0781,-1.0625 0,-2.4375 -1.4375,-2.875 -2.76563,-2.875 -2.03125,0 -3.1875,1.35937 -3.1875,3.8125 0,2.3125 0.98438,3.8125 3.20313,3.8125 1,0 1.92187,-0.28125 2.51562,-0.75 z m -2.07813,-5.01563 c 1.03125,0 1.625,0.53125 1.625,2 h -3.60937 c 0.125,-1.4375 0.85937,-2 1.98437,-2 z m 13.03906,5.0625 c -0.34374,0.28125 -0.92187,0.53125 -1.60937,0.53125 -1.625,0 -2.17187,-1.32812 -2.17187,-2.79687 0,-1.875 0.6875,-2.79688 2.0625,-2.79688 0.60937,0 1.17187,0.17188 1.60937,0.42188 l 0.34375,-1.01563 c -0.53125,-0.26562 -1.14062,-0.42187 -2.0625,-0.42187 -2.03125,0 -3.15625,1.375 -3.15625,3.8125 0,2.29687 0.84375,3.8125 3.07813,3.8125 0.875,0 1.70312,-0.23438 2.28124,-0.65625 z m 1.25391,-2.26562 c 0,2.29687 1,3.8125 3.1875,3.8125 2.03125,0 3.17188,-1.35938 3.17188,-3.8125 0,-2.29688 -1,-3.8125 -3.17188,-3.8125 -2.04687,0 -3.1875,1.375 -3.1875,3.8125 z m 1.20313,0 c 0,-1.89063 0.6875,-2.79688 1.98437,-2.79688 1.4375,0 1.96875,1.29688 1.96875,2.79688 0,1.89062 -0.67187,2.79687 -1.96875,2.79687 -1.45312,0 -1.98437,-1.3125 -1.98437,-2.79687 z m 11.57813,2.26562 c -0.34376,0.28125 -0.92188,0.53125 -1.60939,0.53125 -1.625,0 -2.17187,-1.32812 -2.17187,-2.79687 0,-1.875 0.6875,-2.79688 2.0625,-2.79688 0.60937,0 1.17188,0.17188 1.60937,0.42188 l 0.34376,-1.01563 c -0.53125,-0.26562 -1.14063,-0.42187 -2.06251,-0.42187 -2.03125,0 -3.15625,1.375 -3.15625,3.8125 0,2.29687 0.84376,3.8125 3.07813,3.8125 0.875,0 1.70312,-0.23438 2.28126,-0.65625 z m 6.39061,-5.89062 h -5.73437 v 1.01562 h 2.28125 v 6.25 h 1.17188 v -6.25 h 2.28124 z m 0.50781,3.625 c 0,2.29687 1,3.8125 3.18751,3.8125 2.03125,0 3.17187,-1.35938 3.17187,-3.8125 0,-2.29688 -1,-3.8125 -3.17187,-3.8125 -2.04688,0 -3.18751,1.375 -3.18751,3.8125 z m 1.20314,0 c 0,-1.89063 0.68749,-2.79688 1.98437,-2.79688 1.43749,0 1.96875,1.29688 1.96875,2.79688 0,1.89062 -0.67188,2.79687 -1.96875,2.79687 -1.45313,0 -1.98437,-1.3125 -1.98437,-2.79687 z m 10.625,3.64062 h 1.15624 v -7.21875 c -0.59375,-0.10937 -1.20312,-0.23437 -1.92187,-0.23437 -1.92188,0 -3.18751,0.73437 -3.18751,2.48437 0,1.10938 0.81251,1.78125 1.82814,1.9375 l -0.59376,0.54688 -1.73438,2.48437 h 1.40626 l 1.92188,-2.84375 1.125,-0.17187 z m 0,-6.29687 v 2.60937 c -0.78126,0.0156 -0.82814,0.0156 -0.85938,0.0156 -1.125,0 -1.89062,-0.5 -1.89062,-1.35938 0,-0.96875 0.67186,-1.40625 1.90624,-1.40625 0.23438,0 0.59376,0.0469 0.84376,0.14063 z m 7.73828,6.29687 h 1.15625 v -7.26562 h -1.15625 v 3.03125 h -3.29688 v -3.03125 h -1.15626 v 7.26562 h 1.15626 v -3.21875 h 3.29688 z m 7.93358,0 h 1.17188 v -7.26562 h -0.6875 l -3.28124,4.39062 -0.56251,0.89063 h -0.0625 l 0.0469,-0.85938 v -4.42187 h -1.15624 v 7.26562 h 0.67187 l 3.26562,-4.28125 0.59375,-0.92187 h 0.0469 l -0.0469,0.89062 z m 8.28516,-1.42187 c -0.34374,0.29687 -1.07812,0.57812 -1.73437,0.57812 -1.71875,0 -2.32812,-0.98437 -2.34375,-2.67187 h 4.67187 c 0.0469,-0.39063 0.0781,-0.75 0.0781,-1.0625 0,-2.4375 -1.4375,-2.875 -2.76562,-2.875 -2.03126,0 -3.18751,1.35937 -3.18751,3.8125 0,2.3125 0.98437,3.8125 3.20313,3.8125 1,0 1.92187,-0.28125 2.51563,-0.75 z m -2.07812,-5.01563 c 1.03124,0 1.625,0.53125 1.625,2 h -3.60937 c 0.12493,-1.4375 0.85937,-2 1.98437,-2 z m 0,0"
       style="fill:#000040;fill-opacity:1;fill-rule:nonzero;stroke:none;stroke-width:1.33333"
       aria-label="Зафиксированноесостояние" />
    <path
       id="path82"
       d="m 122.04484,227.67223 c -0.45313,0.28125 -1.10938,0.46875 -1.96875,0.46875 -1.92188,0 -3.40625,-1.39063 -3.40625,-4.1875 0,-3.10938 1.625,-4.1875 3.23437,-4.1875 0.85938,0 1.53125,0.10937 1.98438,0.32812 l 0.29687,-1.0625 c -0.53125,-0.20312 -1.21875,-0.34375 -2.375,-0.34375 -2.15625,0 -4.42187,1.46875 -4.42187,5.26563 0,3.65625 1.98437,5.26562 4.40625,5.26562 1,0 1.95312,-0.14062 2.53125,-0.59375 z m 6.04297,0 c -0.34376,0.28125 -0.92188,0.53125 -1.60938,0.53125 -1.625,0 -2.17188,-1.32813 -2.17188,-2.79688 0,-1.875 0.6875,-2.79687 2.0625,-2.79687 0.60938,0 1.17188,0.17187 1.60938,0.42187 l 0.34375,-1.01562 c -0.53125,-0.26563 -1.14063,-0.42188 -2.0625,-0.42188 -2.03125,0 -3.15625,1.375 -3.15625,3.8125 0,2.29688 0.84375,3.8125 3.07812,3.8125 0.875,0 1.70313,-0.23437 2.28126,-0.65625 z m 3.14062,-2.15625 c 0.34375,-0.0937 0.76562,-0.10938 1.07812,-0.10938 1.17188,0 1.59376,0.57813 1.59376,1.34375 0,0.85938 -0.42188,1.35938 -1.64063,1.35938 -0.3125,0 -0.67187,-0.0156 -1.03125,-0.0781 z m 0,-3.73438 h -1.15625 v 7.26563 c 0.67187,0.0625 1.29687,0.0937 1.9375,0.0937 2.1875,0 3.10937,-0.76563 3.10937,-2.51563 0,-1.23437 -0.60937,-2.17187 -2.60937,-2.17187 -0.375,0 -0.8125,0.0312 -1.28125,0.0937 z m 5.03125,7.26563 h 1.17187 v -7.26563 h -1.17187 z m 7.31641,0 h 1.17187 v -7.26563 h -4.34375 c -0.125,5.21875 -0.59375,6.28125 -1.375,6.28125 -0.125,0 -0.25,-0.0156 -0.375,-0.0625 l -0.1875,0.96875 c 0.21875,0.10938 0.48438,0.14063 0.84375,0.14063 1.82813,0 2.01563,-3.85938 2.15625,-6.3125 h 2.10938 z m 7.66015,0 h 1.45313 l -2.4375,-3.28125 -0.75,-0.59375 0.60937,-0.46875 2.25,-2.92188 h -1.26562 l -2.32813,3.07813 -0.625,0.20312 v -3.28125 h -1.15625 v 7.26563 h 1.15625 v -3.26563 h 0.67188 z m 2.95313,-5.875 c 0.53125,-0.3125 1.5,-0.5 2.14062,-0.5 1.14063,0 1.48438,0.35937 1.48438,1.4375 0,0.23437 -0.0156,0.5 -0.0469,0.79687 -0.26563,-0.0312 -0.53125,-0.0312 -0.79688,-0.0312 -2.125,0 -3.59375,0.51563 -3.59375,2.21875 0,1.26563 0.95313,2.0625 2.1875,2.0625 1.23438,0 1.92188,-0.57812 2.26563,-1.09375 h 0.0781 l 0.29688,1.01563 h 0.85938 c -0.15625,-0.54688 -0.20313,-1.1875 -0.20313,-1.90625 0,-0.98438 0.0937,-2.10938 0.0937,-3.28125 0,-1.03125 -0.29688,-2.23438 -2.3125,-2.23438 -1.0625,0 -2.09375,0.21875 -2.82813,0.65625 z m 1.6875,4.96875 c -0.75,0 -1.28125,-0.46875 -1.28125,-1.15625 0,-0.98438 1.14062,-1.21875 2.34375,-1.21875 0.28125,0 0.5625,0.0156 0.82812,0.0156 v 1.21875 c -0.20312,0.5 -0.78125,1.14063 -1.89062,1.14063 z m 13.60156,0.90625 h 1.15625 v -7.26563 h -1.15625 v 3.03125 h -3.29688 v -3.03125 h -1.15625 v 7.26563 h 1.15625 v -3.21875 h 3.29688 z m 3.65234,-5.875 c 0.53125,-0.3125 1.5,-0.5 2.14063,-0.5 1.14062,0 1.48437,0.35937 1.48437,1.4375 0,0.23437 -0.0156,0.5 -0.0469,0.79687 -0.26562,-0.0312 -0.53125,-0.0312 -0.79687,-0.0312 -2.125,0 -3.59375,0.51563 -3.59375,2.21875 0,1.26563 0.95312,2.0625 2.1875,2.0625 1.23437,0 1.92187,-0.57812 2.26562,-1.09375 h 0.0781 l 0.29689,1.01563 h 0.85937 c -0.15625,-0.54688 -0.20312,-1.1875 -0.20312,-1.90625 0,-0.98438 0.0937,-2.10938 0.0937,-3.28125 0,-1.03125 -0.29687,-2.23438 -2.3125,-2.23438 -1.0625,0 -2.09374,0.21875 -2.82812,0.65625 z m 1.6875,4.96875 c -0.75,0 -1.28125,-0.46875 -1.28125,-1.15625 0,-0.98438 1.14063,-1.21875 2.34375,-1.21875 0.28125,0 0.5625,0.0156 0.82813,0.0156 v 1.21875 c -0.20313,0.5 -0.78125,1.14063 -1.89063,1.14063 z m 13.53516,0.90625 h 1.15625 v -7.26563 h -5.53125 v 7.26563 h 1.15625 v -6.25 h 3.21875 z m 3.40625,2.90625 h 1.15625 v -3.01563 c 0.48437,0.20313 0.8125,0.28125 1.53125,0.28125 2.03125,0 3.34375,-1.51562 3.34375,-3.95312 0,-2.59375 -0.9375,-3.67188 -2.875,-3.67188 -0.90625,0 -1.64063,0.375 -2.07813,1.04688 h -0.0625 l -0.21876,-0.85938 h -0.79687 z m 2.9375,-9.34375 c 1.375,0 1.89062,1.04687 1.89062,2.64062 0,1.92188 -0.85937,2.95313 -2.1875,2.95313 -0.71875,0 -1.125,-0.14063 -1.48437,-0.40625 v -3.625 c 0.23437,-1.04688 0.78125,-1.5625 1.78125,-1.5625 z m 9.80469,5.01562 c -0.34375,0.29688 -1.07813,0.57813 -1.73438,0.57813 -1.71875,0 -2.32812,-0.98438 -2.34375,-2.67188 h 4.67188 c 0.0469,-0.39062 0.0781,-0.75 0.0781,-1.0625 0,-2.4375 -1.4375,-2.875 -2.76563,-2.875 -2.03125,0 -3.1875,1.35938 -3.1875,3.8125 0,2.3125 0.98437,3.8125 3.20313,3.8125 1,0 1.92187,-0.28125 2.51562,-0.75 z m -2.07813,-5.01562 c 1.03125,0 1.625,0.53125 1.625,2 h -3.60937 c 0.125,-1.4375 0.85937,-2 1.98437,-2 z m 10.71094,5.42187 h -1.0625 v -6.25 h -4.39063 c -0.0625,4.10938 -0.85937,5.82813 -1.15625,6.25 h -0.85937 v 2.85938 h 0.78125 l 0.21875,-1.84375 h 5.46875 l 0.21875,1.84375 h 0.78125 z m -5.4375,0 c 0.65625,-1.26562 0.95312,-3.57812 1.03125,-5.23437 h 2.1875 v 5.23437 z m 8.03906,-2.51562 c 0.34375,-0.0937 0.76563,-0.10938 1.07813,-0.10938 1.17187,0 1.59375,0.57813 1.59375,1.34375 0,0.85938 -0.42188,1.35938 -1.64063,1.35938 -0.3125,0 -0.67187,-0.0156 -1.03125,-0.0781 z m 0,-3.73438 h -1.15625 v 7.26563 c 0.67188,0.0625 1.29688,0.0937 1.9375,0.0937 2.1875,0 3.10938,-0.76563 3.10938,-2.51563 0,-1.23437 -0.60938,-2.17187 -2.60938,-2.17187 -0.375,0 -0.8125,0.0312 -1.28125,0.0937 z m 5.03125,7.26563 h 1.17188 v -7.26563 h -1.17188 z m 9.83594,-1.01563 h -1.0625 v -6.25 h -4.39063 c -0.0625,4.10938 -0.85937,5.82813 -1.15625,6.25 h -0.85937 v 2.85938 h 0.78125 l 0.21875,-1.84375 h 5.46875 l 0.21875,1.84375 h 0.78125 z m -5.4375,0 c 0.65625,-1.26562 0.95312,-3.57812 1.03125,-5.23437 h 2.1875 v 5.23437 z m 7.27344,-6.25 h -1.34376 l 2.92188,7.26563 c -0.3125,1.39062 -0.875,1.90625 -1.40625,1.90625 -0.10937,0 -0.25,-0.0312 -0.35937,-0.0781 l -0.20313,1.01563 c 0.23437,0.0937 0.5,0.14062 0.85937,0.14062 1.28126,0 1.875,-1.82812 2.51563,-3.71875 l 2.14063,-6.53125 h -1.17188 l -1.40625,4.6875 -0.32813,1.42188 h -0.0625 l -0.40625,-1.40625 z m 15.90624,6.25 h -1.04687 v -6.25 h -1.17187 v 6.25 h -2.48438 v -6.25 h -1.17188 v 6.25 h -2.48437 v -6.25 h -1.15625 v 7.26563 h 8.5 l 0.21875,1.89062 h 0.79687 z m 5.96485,1.01563 h 1.17187 v -7.26563 h -0.68749 l -3.28126,4.39063 -0.5625,0.89062 h -0.0625 l 0.0469,-0.85937 v -4.42188 h -1.15626 v 7.26563 h 0.67187 l 3.26563,-4.28125 0.59376,-0.92188 h 0.0469 l -0.0469,0.89063 z m 7.94531,0 h 1.17188 v -7.26563 h -0.68751 l -3.28125,4.39063 -0.56249,0.89062 h -0.0625 l 0.0469,-0.85937 v -4.42188 h -1.15626 v 7.26563 h 0.67188 l 3.26563,-4.28125 0.59375,-0.92188 h 0.0469 l -0.0469,0.89063 z m -3.85937,-9.85938 c 0.20312,1.15625 1.23437,1.6875 2.29688,1.6875 1.125,0 2.04686,-0.625 2.21874,-1.75 l -0.875,-0.28125 c -0.17188,0.82813 -0.6875,1.1875 -1.32813,1.1875 -0.625,0 -1.125,-0.3125 -1.31249,-1.20312 z m 15.38672,9.85938 h 1.45312 l -2.4375,-3.28125 -0.75,-0.59375 0.60938,-0.46875 2.25,-2.92188 h -1.26563 l -2.32812,3.07813 -0.625,0.20312 v -3.28125 h -1.15625 v 7.26563 h 1.15625 v -3.26563 h 0.67187 z m 2.15234,-3.64063 c 0,2.29688 1,3.8125 3.1875,3.8125 2.03125,0 3.17188,-1.35937 3.17188,-3.8125 0,-2.29687 -1,-3.8125 -3.17188,-3.8125 -2.04688,0 -3.1875,1.375 -3.1875,3.8125 z m 1.20312,0 c 0,-1.89062 0.6875,-2.79687 1.98438,-2.79687 1.4375,0 1.96874,1.29687 1.96874,2.79687 0,1.89063 -0.67186,2.79688 -1.96874,2.79688 -1.45312,0 -1.98438,-1.3125 -1.98438,-2.79688 z m 13,3.64063 h 1.14063 v -7.26563 h -1.17188 l -1.90625,3.21875 -0.4375,0.875 h -0.0156 l -0.42188,-0.84375 -2.04686,-3.25 h -1.14063 v 7.26563 h 1.07812 v -4.32813 l -0.12493,-1.375 h 0.0625 l 0.48437,1.125 1.82812,2.84375 h 0.40626 l 1.76562,-2.84375 0.51563,-1.125 h 0.0781 l -0.0937,1.375 z m 9.37891,0 h 1.14063 v -7.26563 h -1.17188 l -1.90626,3.21875 -0.43749,0.875 h -0.0156 l -0.42188,-0.84375 -2.04687,-3.25 h -1.14062 v 7.26563 h 1.07812 v -4.32813 l -0.12494,-1.375 h 0.0625 l 0.48437,1.125 1.82812,2.84375 h 0.40625 l 1.76563,-2.84375 0.51563,-1.125 h 0.0781 l -0.0937,1.375 z m 7.91407,0 h 1.17186 v -7.26563 h -0.68749 l -3.28125,4.39063 -0.56251,0.89062 h -0.0625 l 0.0469,-0.85937 v -4.42188 h -1.15625 v 7.26563 h 0.67186 l 3.26563,-4.28125 0.59376,-0.92188 h 0.0469 l -0.0469,0.89063 z m 8.05077,-7.26563 h -5.73437 v 1.01563 h 2.28125 v 6.25 h 1.17187 v -6.25 h 2.28125 z m 0,0"
       style="fill:#000040;fill-opacity:1;fill-rule:nonzero;stroke:none;stroke-width:1.33333"
       aria-label="Ссылканапредыдущийкоммит" />
    <path
       id="path83"
       d="m 209.91593,283.85582 c 0,-0.34375 0.10156,-0.61329 0.3125,-0.8125 0.21875,-0.19532 0.50391,-0.29688 0.85938,-0.29688 0.36328,0 0.64843,0.10156 0.85937,0.29688 0.21875,0.19921 0.32813,0.46875 0.32813,0.8125 0,0.33593 -0.10938,0.60546 -0.32813,0.8125 -0.21094,0.19531 -0.49609,0.29687 -0.85937,0.29687 -0.35547,0 -0.64063,-0.10156 -0.85938,-0.29687 -0.21094,-0.20704 -0.3125,-0.47657 -0.3125,-0.8125 z m 3.95313,0 c 0,-0.34375 0.10156,-0.61329 0.3125,-0.8125 0.21875,-0.19532 0.5039,-0.29688 0.85937,-0.29688 0.36328,0 0.64844,0.10156 0.85938,0.29688 0.21875,0.19921 0.32812,0.46875 0.32812,0.8125 0,0.33593 -0.10937,0.60546 -0.32812,0.8125 -0.21094,0.19531 -0.4961,0.29687 -0.85938,0.29687 -0.35547,0 -0.64062,-0.10156 -0.85937,-0.29687 -0.21094,-0.20704 -0.3125,-0.47657 -0.3125,-0.8125 z m 3.96875,0 c 0,-0.34375 0.10156,-0.61329 0.3125,-0.8125 0.21875,-0.19532 0.5039,-0.29688 0.85937,-0.29688 0.36328,0 0.64844,0.10156 0.85938,0.29688 0.21875,0.19921 0.32812,0.46875 0.32812,0.8125 0,0.33593 -0.10937,0.60546 -0.32812,0.8125 -0.21094,0.19531 -0.4961,0.29687 -0.85938,0.29687 -0.35547,0 -0.64062,-0.10156 -0.85937,-0.29687 -0.21094,-0.20704 -0.3125,-0.47657 -0.3125,-0.8125 z m 0,0"
       style="fill:#000040;fill-opacity:1;fill-rule:nonzero;stroke:none;stroke-width:1.33333"
       aria-label="…" />
    <path
       id="path84"
       d="m 215.03568,49.662206 v 36.52053"
       style="fill:none;stroke:#000040;stroke-width:1.59404;stroke-linecap:butt;stroke-linejoin:miter;stroke-miterlimit:10;stroke-dasharray:none;stroke-opacity:1" />
    <path
       id="path85"
       d="m 218.43629,83.632286 c -1.27525,0.21255 -3.1881,2.55045 -3.40061,3.18805 -0.21251,-0.6376 -2.12536,-2.9755 -3.40061,-3.18805"
       style="fill:none;stroke:#000040;stroke-width:1.2752;stroke-linecap:round;stroke-linejoin:round;stroke-miterlimit:10;stroke-dasharray:none;stroke-opacity:1" />
    <path
       id="path86"
       d="m 215.03568,144.74723 v 36.52052"
       style="fill:none;stroke:#000040;stroke-width:1.59404;stroke-linecap:butt;stroke-linejoin:miter;stroke-miterlimit:10;stroke-dasharray:none;stroke-opacity:1" />
    <path
       id="path87"
       d="m 218.43629,178.7173 c -1.27525,0.21255 -3.1881,2.55046 -3.40061,3.18806 -0.21251,-0.6376 -2.12536,-2.97551 -3.40061,-3.18806"
       style="fill:none;stroke:#000040;stroke-width:1.2752;stroke-linecap:round;stroke-linejoin:round;stroke-miterlimit:10;stroke-dasharray:none;stroke-opacity:1" />
    <path
       id="path88"
       d="m 215.03568,239.83227 v 36.52051"
       style="fill:none;stroke:#000040;stroke-width:1.59404;stroke-linecap:butt;stroke-linejoin:miter;stroke-miterlimit:10;stroke-dasharray:none;stroke-opacity:1" />
    <path
       id="path89"
       d="m 218.43629,273.80233 c -1.27525,0.21255 -3.1881,2.55046 -3.40061,3.18806 -0.21251,-0.6376 -2.12536,-2.97551 -3.40061,-3.18806"
       style="fill:none;stroke:#000040;stroke-width:1.2752;stroke-linecap:round;stroke-linejoin:round;stroke-miterlimit:10;stroke-dasharray:none;stroke-opacity:1" />
  </g>
</svg>
