<?xml version="1.0" encoding="UTF-8" standalone="no"?>
<!-- Created with Inkscape (http://www.inkscape.org/) -->

<svg
   version="1.1"
   id="svg1"
   width="238.11855"
   height="198.01953"
   viewBox="0 0 238.11855 198.01953"
   sodipodi:docname="branches.svg"
   inkscape:version="1.4.2 (ebf0e940d0, 2025-05-08)"
   xmlns:inkscape="http://www.inkscape.org/namespaces/inkscape"
   xmlns:sodipodi="http://sodipodi.sourceforge.net/DTD/sodipodi-0.dtd"
   xmlns="http://www.w3.org/2000/svg"
   xmlns:svg="http://www.w3.org/2000/svg">
  <defs
     id="defs1">
    <clipPath
       clipPathUnits="userSpaceOnUse"
       id="clipPath2">
      <path
         d="M 0,0 H 200 V 200 H 0 Z"
         transform="matrix(0.99999999,0,0,-0.99999999,-1.1759172e-5,200)"
         id="path2" />
    </clipPath>
    <clipPath
       clipPathUnits="userSpaceOnUse"
       id="clipPath3">
      <path
         d="M 0,0 H 200 V 200 H 0 Z"
         transform="matrix(0.99999999,0,0,-0.99999999,-1.1759172e-5,200)"
         id="path3" />
    </clipPath>
    <clipPath
       clipPathUnits="userSpaceOnUse"
       id="clipPath4">
      <path
         d="M 0,0 H 200 V 200 H 0 Z"
         transform="matrix(0.99999999,0,0,-0.99999999,-1.1759172e-5,200)"
         id="path4" />
    </clipPath>
    <clipPath
       clipPathUnits="userSpaceOnUse"
       id="clipPath5">
      <path
         d="M 0,0 H 200 V 200 H 0 Z"
         transform="matrix(0.99999999,0,0,-0.99999999,-1.1759172e-5,200)"
         id="path5" />
    </clipPath>
    <clipPath
       clipPathUnits="userSpaceOnUse"
       id="clipPath6">
      <path
         d="M 0,0 H 200 V 200 H 0 Z"
         transform="matrix(0.99999999,0,0,-0.99999999,-1.1759172e-5,200)"
         id="path6" />
    </clipPath>
    <clipPath
       clipPathUnits="userSpaceOnUse"
       id="clipPath7">
      <path
         d="M 0,0 H 200 V 200 H 0 Z"
         transform="matrix(0.99999999,0,0,-0.99999999,-1.1759172e-5,200)"
         id="path7" />
    </clipPath>
    <clipPath
       clipPathUnits="userSpaceOnUse"
       id="clipPath8">
      <path
         d="M 0,0 H 200 V 200 H 0 Z"
         transform="matrix(0.99999999,0,0,-0.99999999,-1.1759172e-5,200)"
         id="path8" />
    </clipPath>
    <clipPath
       clipPathUnits="userSpaceOnUse"
       id="clipPath9">
      <path
         d="M 0,0 H 200 V 200 H 0 Z"
         transform="matrix(0.99999999,0,0,-0.99999999,-1.1759172e-5,200)"
         id="path9" />
    </clipPath>
    <clipPath
       clipPathUnits="userSpaceOnUse"
       id="clipPath10">
      <path
         d="M 0,0 H 200 V 200 H 0 Z"
         transform="matrix(0.99999999,0,0,-0.99999999,-1.1759172e-5,200)"
         id="path10" />
    </clipPath>
    <clipPath
       clipPathUnits="userSpaceOnUse"
       id="clipPath11">
      <path
         d="M 0,0 H 200 V 200 H 0 Z"
         transform="matrix(0.99999999,0,0,-0.99999999,-1.1759172e-5,200)"
         id="path11" />
    </clipPath>
    <clipPath
       clipPathUnits="userSpaceOnUse"
       id="clipPath12">
      <path
         d="M 0,0 H 200 V 200 H 0 Z"
         transform="matrix(0.99999999,0,0,-0.99999999,-1.1759172e-5,200)"
         id="path12" />
    </clipPath>
    <clipPath
       clipPathUnits="userSpaceOnUse"
       id="clipPath13">
      <path
         d="M 0,0 H 200 V 200 H 0 Z"
         transform="matrix(0.99999999,0,0,-0.99999999,-1.1759172e-5,200)"
         id="path13" />
    </clipPath>
    <clipPath
       clipPathUnits="userSpaceOnUse"
       id="clipPath14">
      <path
         d="M 0,0 H 200 V 200 H 0 Z"
         transform="matrix(0.99999999,0,0,-0.99999999,-1.1759172e-5,200)"
         id="path14" />
    </clipPath>
    <clipPath
       clipPathUnits="userSpaceOnUse"
       id="clipPath15">
      <path
         d="M 0,0 H 200 V 200 H 0 Z"
         transform="matrix(0.99999999,0,0,-0.99999999,-1.1759172e-5,200)"
         id="path15" />
    </clipPath>
    <clipPath
       clipPathUnits="userSpaceOnUse"
       id="clipPath16">
      <path
         d="M 0,0 H 200 V 200 H 0 Z"
         transform="matrix(0.99999999,0,0,-0.99999999,-1.1759172e-5,200)"
         id="path16" />
    </clipPath>
    <clipPath
       clipPathUnits="userSpaceOnUse"
       id="clipPath17">
      <path
         d="M 0,0 H 200 V 200 H 0 Z"
         transform="matrix(0.99999999,0,0,-0.99999999,-1.1759172e-5,200)"
         id="path17" />
    </clipPath>
    <clipPath
       clipPathUnits="userSpaceOnUse"
       id="clipPath18">
      <path
         d="M 0,0 H 200 V 200 H 0 Z"
         transform="matrix(0.99999999,0,0,-0.99999999,-1.1759172e-5,200)"
         id="path18" />
    </clipPath>
    <clipPath
       clipPathUnits="userSpaceOnUse"
       id="clipPath19">
      <path
         d="M 0,0 H 200 V 200 H 0 Z"
         transform="matrix(0.99999999,0,0,-0.99999999,-1.1759172e-5,200)"
         id="path19" />
    </clipPath>
    <clipPath
       clipPathUnits="userSpaceOnUse"
       id="clipPath20">
      <path
         d="M 0,0 H 200 V 200 H 0 Z"
         transform="matrix(0.99999999,0,0,-0.99999999,-1.1759172e-5,200)"
         id="path20" />
    </clipPath>
    <clipPath
       clipPathUnits="userSpaceOnUse"
       id="clipPath21">
      <path
         d="M 0,0 H 200 V 200 H 0 Z"
         transform="matrix(0.99999999,0,0,-0.99999999,-1.1759172e-5,200)"
         id="path21" />
    </clipPath>
    <clipPath
       clipPathUnits="userSpaceOnUse"
       id="clipPath22">
      <path
         d="M 0,0 H 200 V 200 H 0 Z"
         transform="matrix(0.99999999,0,0,-0.99999999,-1.1759172e-5,200)"
         id="path22" />
    </clipPath>
    <clipPath
       clipPathUnits="userSpaceOnUse"
       id="clipPath23">
      <path
         d="M 0,0 H 200 V 200 H 0 Z"
         transform="matrix(0.99999999,0,0,-0.99999999,-1.1759172e-5,200)"
         id="path23" />
    </clipPath>
    <clipPath
       clipPathUnits="userSpaceOnUse"
       id="clipPath24">
      <path
         d="M 0,0 H 200 V 200 H 0 Z"
         transform="matrix(0.99999999,0,0,-0.99999999,-1.1759172e-5,200)"
         id="path24" />
    </clipPath>
    <clipPath
       clipPathUnits="userSpaceOnUse"
       id="clipPath25">
      <path
         d="M 0,0 H 200 V 200 H 0 Z"
         transform="matrix(0.99999999,0,0,-0.99999999,-1.1759172e-5,200)"
         id="path25" />
    </clipPath>
    <clipPath
       clipPathUnits="userSpaceOnUse"
       id="clipPath26">
      <path
         d="M 0,0 H 200 V 200 H 0 Z"
         transform="matrix(0.99999999,0,0,-0.99999999,-1.1759172e-5,200)"
         id="path26" />
    </clipPath>
    <clipPath
       clipPathUnits="userSpaceOnUse"
       id="clipPath27">
      <path
         d="M 0,0 H 200 V 200 H 0 Z"
         transform="matrix(0.99999999,0,0,-0.99999999,-1.1759172e-5,200)"
         id="path27" />
    </clipPath>
    <clipPath
       clipPathUnits="userSpaceOnUse"
       id="clipPath28">
      <path
         d="M 0,0 H 200 V 200 H 0 Z"
         transform="matrix(0.99999999,0,0,-0.99999999,-1.1759172e-5,200)"
         id="path28" />
    </clipPath>
    <clipPath
       clipPathUnits="userSpaceOnUse"
       id="clipPath29">
      <path
         d="M 0,0 H 200 V 200 H 0 Z"
         transform="matrix(0.99999999,0,0,-0.99999999,-1.1759172e-5,200)"
         id="path29" />
    </clipPath>
    <clipPath
       clipPathUnits="userSpaceOnUse"
       id="clipPath30">
      <path
         d="M 0,0 H 200 V 200 H 0 Z"
         transform="matrix(0.99999999,0,0,-0.99999999,-1.1759172e-5,200)"
         id="path30" />
    </clipPath>
    <clipPath
       clipPathUnits="userSpaceOnUse"
       id="clipPath31">
      <path
         d="M 0,0 H 200 V 200 H 0 Z"
         transform="matrix(0.99999999,0,0,-0.99999999,-1.1759172e-5,200)"
         id="path31" />
    </clipPath>
    <clipPath
       clipPathUnits="userSpaceOnUse"
       id="clipPath32">
      <path
         d="M 0,0 H 200 V 200 H 0 Z"
         transform="matrix(0.99999999,0,0,-0.99999999,-1.1759172e-5,200)"
         id="path32" />
    </clipPath>
  </defs>
  <sodipodi:namedview
     id="namedview1"
     pagecolor="#ffffff"
     bordercolor="#000000"
     borderopacity="0.25"
     inkscape:showpageshadow="2"
     inkscape:pageopacity="0.0"
     inkscape:pagecheckerboard="0"
     inkscape:deskcolor="#d1d1d1"
     inkscape:zoom="1.706575"
     inkscape:cx="149.42209"
     inkscape:cy="98.442786"
     inkscape:window-width="1920"
     inkscape:window-height="1052"
     inkscape:window-x="0"
     inkscape:window-y="0"
     inkscape:window-maximized="1"
     inkscape:current-layer="g1">
    <inkscape:page
       x="0"
       y="0"
       inkscape:label="13"
       id="page1"
       width="238.11855"
       height="198.01953"
       margin="0"
       bleed="0" />
  </sodipodi:namedview>
  <g
     id="g1"
     inkscape:groupmode="layer"
     inkscape:label="13"
     transform="translate(-323.77814,-71.437501)">
    <path
       id="path74"
       d="m 0.59240382,-0.71668383 c 0,-0.25321109 0.07737,-0.45366987 0.23914381,-0.60489317 0.15825693,-0.1477065 0.36926617,-0.2250765 0.63302777,-0.2250765 0.2707952,0 0.4853212,0.07737 0.647095,0.2250765 0.1582569,0.1512233 0.2391438,0.35168208 0.2391438,0.60489317 0,0.25321109 -0.080887,0.46070352 -0.2391438,0.61896045 -0.1617738,0.14770647 -0.3762998,0.22507653 -0.647095,0.22507653 -0.2637616,0 -0.47477084,-0.07737006 -0.63302777,-0.22507653 C 0.66977387,-0.25598031 0.59240382,-0.46347274 0.59240382,-0.71668383 Z m 2.95412938,0 c 0,-0.25321109 0.07737,-0.45366987 0.2391438,-0.60489317 0.158257,-0.1477065 0.3692662,-0.2250765 0.6330278,-0.2250765 0.2707952,0 0.4853212,0.07737 0.647095,0.2250765 0.1582569,0.1512233 0.2391438,0.35168208 0.2391438,0.60489317 0,0.25321109 -0.080887,0.46070352 -0.2391438,0.61896045 C 4.904026,0.04998309 4.6895,0.12735315 4.4187048,0.12735315 4.1549432,0.12735315 3.943934,0.04998309 3.785677,-0.09772338 3.6239033,-0.25598031 3.5465332,-0.46347274 3.5465332,-0.71668383 Z m 2.9681967,0 c 0,-0.25321109 0.07737,-0.45366987 0.2391438,-0.60489317 0.1582569,-0.1477065 0.3692662,-0.2250765 0.6330277,-0.2250765 0.2707952,0 0.4853213,0.07737 0.6470951,0.2250765 0.1582569,0.1512233 0.2391438,0.35168208 0.2391438,0.60489317 0,0.25321109 -0.080887,0.46070352 -0.2391438,0.61896045 -0.1617738,0.14770647 -0.3762999,0.22507653 -0.6470951,0.22507653 -0.2637615,0 -0.4747708,-0.07737006 -0.6330277,-0.22507653 C 6.5921,-0.25598031 6.5147299,-0.46347274 6.5147299,-0.71668383 Z m 0,0"
       style="fill:#000040;fill-opacity:1;fill-rule:nonzero;stroke:none"
       aria-label="…"
       transform="matrix(1.1107333,0,0,1.1107333,437.93575,269.31558)" />
    <path
       id="path75"
       d="m 22.09663,48.38612 h -44.19326 c -2.20095,0 -3.98511,-1.78416 -3.98511,-3.9851 v -7.20005 c 0,-2.20094 1.78416,-3.9851 3.98511,-3.9851 h 44.19326 c 2.20095,0 3.98511,1.78416 3.98511,3.9851 v 7.20005 c 0,2.20094 -1.78416,3.9851 -3.98511,3.9851 z"
       style="fill:none;stroke:#000040;stroke-width:0.3985;stroke-linecap:butt;stroke-linejoin:miter;stroke-miterlimit:10;stroke-dasharray:none;stroke-opacity:1"
       transform="matrix(1.1107333,0,0,-1.1107333,442.83741,268.5214)" />
    <path
       id="path76"
       d="m 5.5990999,-1.0284822 c -0.3376148,0.21100928 -0.8299697,0.35168211 -1.4770647,0.35168211 -1.4348629,0 -2.5461782,-1.04097891 -2.5461782,-3.13700411 0,-2.3351689 1.2097863,-3.137004 2.4195726,-3.137004 0.6330278,0 1.1535172,0.084404 1.491132,0.2391438 l 0.2110093,-0.7877679 c -0.393884,-0.1547401 -0.9143734,-0.2672784 -1.7724777,-0.2672784 -1.6177375,0 -3.31987875,1.0972481 -3.31987875,3.9529065 0,2.7290529 1.49113195,3.93883924 3.30581145,3.93883924 0.7596333,0 1.4629974,-0.09847098 1.8990832,-0.43608577 z m 0.7948015,-1.7021412 c 0,1.7302758 0.7455659,2.85565844 2.391438,2.85565844 1.5192666,0 2.3773706,-1.02691165 2.3773706,-2.85565844 0,-1.7162085 -0.745566,-2.8556584 -2.3773706,-2.8556584 -1.5333338,0 -2.391438,1.0269116 -2.391438,2.8556584 z m 0.9003061,0 c 0,-1.4067283 0.5204894,-2.0960251 1.4911319,-2.0960251 1.0691135,0 1.4770646,0.9706425 1.4770646,2.0960251 0,1.4207956 -0.506422,2.09602516 -1.4770646,2.09602516 -1.0831807,0 -1.4911319,-0.98470976 -1.4911319,-2.09602516 z m 9.3195745,2.72905289 V -3.6449968 c 0.168808,-0.745566 0.562692,-1.1816517 1.280123,-1.1816517 0.872172,0 1.040979,0.5064221 1.040979,1.5474011 v 3.27767689 h 0.872172 V -3.2651801 c 0,-1.8287468 -0.478288,-2.3211017 -1.688074,-2.3211017 -0.731499,0 -1.35046,0.3376148 -1.688074,0.9143734 -0.239144,-0.6752296 -0.689297,-0.9143734 -1.378594,-0.9143734 -0.815902,0 -1.29419,0.3235475 -1.688074,0.8018351 h -0.0422 L 13.153231,-5.445609 h -0.604893 v 5.44403849 h 0.872171 V -3.757535 c 0.168808,-0.5908259 0.633028,-1.0691135 1.29419,-1.0691135 0.872172,0 1.026912,0.5908258 1.026912,1.744343 v 3.08073499 z m 8.858872,0 V -3.6449968 c 0.168807,-0.745566 0.562691,-1.1816517 1.280122,-1.1816517 0.872172,0 1.040979,0.5064221 1.040979,1.5474011 v 3.27767689 h 0.872172 V -3.2651801 c 0,-1.8287468 -0.478288,-2.3211017 -1.688074,-2.3211017 -0.731499,0 -1.350459,0.3376148 -1.688074,0.9143734 -0.239144,-0.6752296 -0.689297,-0.9143734 -1.378594,-0.9143734 -0.815902,0 -1.29419,0.3235475 -1.688074,0.8018351 h -0.0422 L 22.012102,-5.445609 h -0.604893 v 5.44403849 h 0.872172 V -3.757535 c 0.168807,-0.5908259 0.633027,-1.0691135 1.29419,-1.0691135 0.872171,0 1.026911,0.5908258 1.026911,1.744343 v 3.08073499 z m 4.976301,0 h 0.872172 V -5.445609 H 30.448955 Z M 30.26608,-7.1055484 c 0,0.3235475 0.239144,0.5767586 0.590826,0.5767586 0.351682,0 0.633028,-0.2532111 0.633028,-0.5767586 0,-0.3376148 -0.281346,-0.6189604 -0.633028,-0.6189604 -0.351682,0 -0.590826,0.2813456 -0.590826,0.6189604 z m 2.205047,2.4195727 h 0.844037 v 3.1792059 c 0,1.1675845 0.323547,1.63180484 1.209786,1.63180484 0.534557,0 0.998777,-0.12660555 1.392661,-0.30948023 l -0.196942,-0.66116229 c -0.30948,0.14067283 -0.548624,0.21100924 -0.914373,0.21100924 -0.450153,0 -0.618961,-0.28134566 -0.618961,-1.04097896 V -4.6859757 H 35.6644 V -5.445609 h -1.477065 v -1.3363919 l -0.872171,0.2532111 v 1.0831808 h -0.844037 z m 7.656119,4.68440519 h 3.868502 V -0.80340563 H 42.504616 V -7.7667107 h -0.393883 l -2.405506,1.8568814 0.422019,0.548624 1.195719,-0.8581042 0.436086,-0.5064222 -0.112539,0.647095 v 5.27523107 h -1.519266 z m 0,0"
       style="fill:#000040;fill-opacity:1;fill-rule:nonzero;stroke:none"
       aria-label="Commit1"
       transform="matrix(1.1107333,0,0,1.1107333,417.90589,227.44315)" />
    <path
       id="path77"
       d="M 0,33.0166 V 5.62622"
       style="fill:none;stroke:#000040;stroke-width:1.19553;stroke-linecap:butt;stroke-linejoin:miter;stroke-miterlimit:10;stroke-dasharray:none;stroke-opacity:1"
       transform="matrix(1.1107333,0,0,-1.1107333,442.83741,268.5214)" />
    <path
       id="path78"
       d="M -1.91284,2.55046 C -1.75343,1.59402 0,0.15938 0.4782,0 0,-0.15938 -1.75343,-1.59402 -1.91284,-2.55046"
       style="fill:none;stroke:#000040;stroke-width:0.9564;stroke-linecap:round;stroke-linejoin:round;stroke-miterlimit:10;stroke-dasharray:none;stroke-opacity:1"
       transform="matrix(0,1.1107333,1.1107333,0,442.83741,262.27217)" />
    <path
       id="path79"
       d="m -58.81216,92.30171 h -44.19327 c -2.20095,0 -3.98511,-1.78416 -3.98511,-3.98511 v -7.20005 c 0,-2.20095 1.78416,-3.98511 3.98511,-3.98511 h 44.19327 c 2.20094,0 3.9851,1.78416 3.9851,3.98511 v 7.20005 c 0,2.20095 -1.78416,3.98511 -3.9851,3.98511 z"
       style="fill:none;stroke:#000040;stroke-width:0.3985;stroke-linecap:butt;stroke-linejoin:miter;stroke-miterlimit:10;stroke-dasharray:none;stroke-opacity:1"
       transform="matrix(1.1107333,0,0,-1.1107333,442.83741,268.5214)" />
    <path
       id="path80"
       d="m 5.6001224,-1.0280225 c -0.3376148,0.21100927 -0.8299697,0.35168209 -1.4770647,0.35168209 -1.4348628,0 -2.5461782,-1.04097889 -2.5461782,-3.13700409 0,-2.3351689 1.2097863,-3.1370041 2.4195727,-3.1370041 0.6330277,0 1.1535172,0.084404 1.4911319,0.2391438 L 5.6985934,-7.4989726 C 5.3047095,-7.6537127 4.78422,-7.766251 3.9261157,-7.766251 c -1.6177375,0 -3.31987871,1.0972481 -3.31987871,3.9529065 0,2.7290529 1.49113201,3.93883922 3.30581151,3.93883922 0.7596332,0 1.4629974,-0.09847098 1.8990832,-0.43608577 z m 0.7912847,-1.7021412 c 0,1.73027579 0.745566,2.85565842 2.3914381,2.85565842 1.5192668,0 2.3773708,-1.02691165 2.3773708,-2.85565842 0,-1.7162085 -0.745566,-2.8556584 -2.3773708,-2.8556584 -1.5333339,0 -2.3914381,1.0269116 -2.3914381,2.8556584 z m 0.9003061,0 c 0,-1.4067283 0.5204894,-2.0960252 1.491132,-2.0960252 1.0691135,0 1.4770648,0.9706426 1.4770648,2.0960252 0,1.4207956 -0.5064223,2.09602514 -1.4770648,2.09602514 -1.0831808,0 -1.491132,-0.98470984 -1.491132,-2.09602514 z m 9.3230918,2.72905287 V -3.6445371 c 0.168807,-0.745566 0.562691,-1.1816518 1.280123,-1.1816518 0.872171,0 1.040979,0.5064222 1.040979,1.5474012 v 3.27767687 h 0.872171 V -3.2647205 c 0,-1.8287467 -0.478288,-2.3211016 -1.688074,-2.3211016 -0.731499,0 -1.350459,0.3376148 -1.688074,0.9143734 -0.239144,-0.6752296 -0.689297,-0.9143734 -1.378593,-0.9143734 -0.815903,0 -1.294191,0.3235475 -1.688074,0.8018351 h -0.0422 l -0.16881,-0.6611623 H 12.54936 v 5.44403847 h 0.872172 V -3.7570754 c 0.168807,-0.5908258 0.633027,-1.0691135 1.29419,-1.0691135 0.872171,0 1.026911,0.5908259 1.026911,1.7443431 v 3.08073497 z m 8.858871,0 V -3.6445371 c 0.168808,-0.745566 0.562692,-1.1816518 1.280123,-1.1816518 0.872172,0 1.040979,0.5064222 1.040979,1.5474012 v 3.27767687 H 28.66695 V -3.2647205 c 0,-1.8287467 -0.478288,-2.3211016 -1.688074,-2.3211016 -0.731499,0 -1.35046,0.3376148 -1.688074,0.9143734 -0.239144,-0.6752296 -0.689297,-0.9143734 -1.378594,-0.9143734 -0.815903,0 -1.29419,0.3235475 -1.688074,0.8018351 h -0.0422 l -0.168807,-0.6611623 h -0.604893 v 5.44403847 h 0.872171 V -3.7570754 c 0.168807,-0.5908258 0.633028,-1.0691135 1.29419,-1.0691135 0.872172,0 1.026912,0.5908259 1.026912,1.7443431 v 3.08073497 z m 4.976302,0 h 0.872171 V -5.4451493 H 30.449978 Z M 30.267103,-7.1050887 c 0,0.3235475 0.239144,0.5767586 0.590826,0.5767586 0.351682,0 0.633028,-0.2532111 0.633028,-0.5767586 0,-0.3376148 -0.281346,-0.6189604 -0.633028,-0.6189604 -0.351682,0 -0.590826,0.2813456 -0.590826,0.6189604 z m 2.205047,2.4195727 h 0.844036 v 3.1792059 c 0,1.16758448 0.323548,1.63180482 1.209787,1.63180482 0.534557,0 0.998777,-0.12660555 1.392661,-0.30948023 L 35.721692,-0.8451478 c -0.30948,0.14067283 -0.548624,0.21100924 -0.914374,0.21100924 -0.450153,0 -0.61896,-0.28134565 -0.61896,-1.04097894 V -4.685516 h 1.477065 v -0.7596333 h -1.477065 v -1.3363919 l -0.872172,0.2532111 v 1.0831808 H 32.47215 Z m 11.341746,-1.2097864 c 0,-1.097248 -0.717431,-1.8709486 -1.955352,-1.8709486 -0.801835,0 -1.519267,0.2672784 -2.025689,0.7033642 l 0.351682,0.6189604 c 0.379817,-0.2954129 0.928441,-0.5626913 1.491132,-0.5626913 0.815903,0 1.223854,0.5345567 1.223854,1.2519882 0,1.842814 -2.321102,4.4452614 -3.277677,5.44403845 v 0.30948022 h 4.332723 v -0.80183512 h -2.363303 l -0.703364,0.11253826 v -0.0422018 l 0.534556,-0.46422041 c 1.125383,-1.392661 2.391438,-3.1792058 2.391438,-4.6984725 z m 0,0"
       style="fill:#000040;fill-opacity:1;fill-rule:nonzero;stroke:none"
       aria-label="Commit2"
       transform="matrix(1.1107333,0,0,1.1107333,328.03757,178.6653)" />
    <path
       id="path81"
       d="M -66.56621,76.93219 -15.17482,49.04155"
       style="fill:none;stroke:#000040;stroke-width:1.19553;stroke-linecap:butt;stroke-linejoin:miter;stroke-miterlimit:10;stroke-dasharray:none;stroke-opacity:1"
       transform="matrix(1.1107333,0,0,-1.1107333,442.83741,268.5214)" />
    <path
       id="path82"
       d="M -1.91284,2.55046 C -1.75343,1.59402 0,0.15938 0.4782,0 0,-0.15938 -1.75343,-1.59402 -1.91284,-2.55046"
       style="fill:none;stroke:#000040;stroke-width:0.9564;stroke-linecap:round;stroke-linejoin:round;stroke-miterlimit:10;stroke-dasharray:none;stroke-opacity:1"
       transform="matrix(0.9761791,0.52977537,0.52977537,-0.9761791,425.98221,214.04932)" />
    <path
       id="path83"
       d="m -58.81216,136.21729 h -44.19327 c -2.20095,0 -3.98511,-1.78417 -3.98511,-3.98511 v -7.20004 c 0,-2.20095 1.78416,-3.98511 3.98511,-3.98511 h 44.19327 c 2.20094,0 3.9851,1.78416 3.9851,3.98511 v 7.20004 c 0,2.20094 -1.78416,3.98511 -3.9851,3.98511 z"
       style="fill:none;stroke:#000040;stroke-width:0.3985;stroke-linecap:butt;stroke-linejoin:miter;stroke-miterlimit:10;stroke-dasharray:none;stroke-opacity:1"
       transform="matrix(1.1107333,0,0,-1.1107333,442.83741,268.5214)" />
    <path
       id="path84"
       d="m 5.6001224,-1.0265628 c -0.3376148,0.21100925 -0.8299697,0.35168208 -1.4770647,0.35168208 -1.4348628,0 -2.5461782,-1.04097898 -2.5461782,-3.13700408 0,-2.335169 1.2097863,-3.1370041 2.4195727,-3.1370041 0.6330277,0 1.1535172,0.084404 1.4911319,0.2391438 L 5.6985934,-7.4975129 C 5.3047095,-7.652253 4.78422,-7.7647913 3.9261157,-7.7647913 c -1.6177375,0 -3.31987871,1.0972481 -3.31987871,3.9529065 0,2.7290529 1.49113201,3.9388392 3.30581151,3.9388392 0.7596332,0 1.4629974,-0.09847098 1.8990832,-0.43608577 z M 6.3914071,-2.728704 c 0,1.73027577 0.745566,2.8556584 2.3914381,2.8556584 1.5192668,0 2.3773708,-1.02691165 2.3773708,-2.8556584 0,-1.7162085 -0.745566,-2.8556584 -2.3773708,-2.8556584 -1.5333339,0 -2.3914381,1.0269116 -2.3914381,2.8556584 z m 0.9003061,0 c 0,-1.4067283 0.5204894,-2.0960252 1.491132,-2.0960252 1.0691135,0 1.4770648,0.9706425 1.4770648,2.0960252 0,1.4207955 -0.5064223,2.09602512 -1.4770648,2.09602512 -1.0831808,0 -1.491132,-0.98470982 -1.491132,-2.09602512 z M 16.614805,3.4885361e-4 V -3.6430774 c 0.168807,-0.745566 0.562691,-1.1816518 1.280123,-1.1816518 0.872171,0 1.040979,0.5064222 1.040979,1.5474011 V 3.4885361e-4 h 0.872171 V -3.2632608 c 0,-1.8287467 -0.478288,-2.3211016 -1.688074,-2.3211016 -0.731499,0 -1.350459,0.3376147 -1.688074,0.9143733 -0.239144,-0.6752295 -0.689297,-0.9143733 -1.378593,-0.9143733 -0.815903,0 -1.294191,0.3235475 -1.688074,0.8018351 h -0.0422 l -0.16881,-0.6611623 H 12.54936 V 3.4885361e-4 h 0.872172 V -3.7556157 c 0.168807,-0.5908259 0.633027,-1.0691135 1.29419,-1.0691135 0.872171,0 1.026911,0.5908259 1.026911,1.7443431 V 3.4885361e-4 Z m 8.858871,0 V -3.6430774 c 0.168808,-0.745566 0.562692,-1.1816518 1.280123,-1.1816518 0.872172,0 1.040979,0.5064222 1.040979,1.5474011 V 3.4885361e-4 H 28.66695 V -3.2632608 c 0,-1.8287467 -0.478288,-2.3211016 -1.688074,-2.3211016 -0.731499,0 -1.35046,0.3376147 -1.688074,0.9143733 -0.239144,-0.6752295 -0.689297,-0.9143733 -1.378594,-0.9143733 -0.815903,0 -1.29419,0.3235475 -1.688074,0.8018351 h -0.0422 L 22.013125,-5.4436896 H 21.408232 V 3.4885361e-4 h 0.872171 V -3.7556157 c 0.168807,-0.5908259 0.633028,-1.0691135 1.29419,-1.0691135 0.872172,0 1.026912,0.5908259 1.026912,1.7443431 V 3.4885361e-4 Z m 4.976302,0 h 0.872171 V -5.4436896 H 30.449978 Z M 30.267103,-7.103629 c 0,0.3235475 0.239144,0.5767586 0.590826,0.5767586 0.351682,0 0.633028,-0.2532111 0.633028,-0.5767586 0,-0.3376148 -0.281346,-0.6189604 -0.633028,-0.6189604 -0.351682,0 -0.590826,0.2813456 -0.590826,0.6189604 z m 2.205047,2.4195727 h 0.844036 v 3.1792059 c 0,1.16758446 0.323548,1.6318048 1.209787,1.6318048 0.534557,0 0.998777,-0.12660554639 1.392661,-0.30948022 l -0.196942,-0.6611623 c -0.30948,0.14067283 -0.548624,0.21100924 -0.914374,0.21100924 -0.450153,0 -0.61896,-0.28134565 -0.61896,-1.04097892 v -3.0103985 h 1.477065 v -0.7596333 h -1.477065 v -1.3363919 l -0.872172,0.2532111 v 1.0831808 H 32.47215 Z m 9.020645,4.05137742 c -0.562692,0 -1.026912,-0.11253826 -1.364527,-0.28134565 l -0.225076,0.77370055 c 0.393884,0.1688074 0.92844,0.26727838 1.575535,0.26727838 1.434863,0 2.616515,-0.87217154 2.616515,-2.4477072 0,-1.29419 -0.872172,-2.1100925 -2.025689,-2.1241597 l -0.379816,0.070336 v -0.014067 l 0.379816,-0.3235475 1.744343,-2.6024473 v -0.3094803 h -3.896637 v 0.8018352 h 2.152294 l 0.717432,-0.1125383 -0.506422,0.4782876 -1.561469,2.4195727 v 0.3235475 h 0.801835 c 1.055046,0 1.702141,0.4923549 1.702141,1.5051992 0,0.9284407 -0.717431,1.57553572 -1.730275,1.57553582 z m 0,0"
       style="fill:#000040;fill-opacity:1;fill-rule:nonzero;stroke:none"
       aria-label="Commit3"
       transform="matrix(1.1107333,0,0,1.1107333,328.03757,129.88633)" />
    <path
       id="path85"
       d="M -80.9088,120.84776 V 93.45738"
       style="fill:none;stroke:#000040;stroke-width:1.19553;stroke-linecap:butt;stroke-linejoin:miter;stroke-miterlimit:10;stroke-dasharray:none;stroke-opacity:1"
       transform="matrix(1.1107333,0,0,-1.1107333,442.83741,268.5214)" />
    <path
       id="path86"
       d="M -1.91284,2.55046 C -1.75343,1.59402 0,0.15938 0.4782,0 0,-0.15938 -1.75343,-1.59402 -1.91284,-2.55046"
       style="fill:none;stroke:#000040;stroke-width:0.9564;stroke-linecap:round;stroke-linejoin:round;stroke-miterlimit:10;stroke-dasharray:none;stroke-opacity:1"
       transform="matrix(0,1.1107333,1.1107333,0,352.96931,164.71517)" />
    <path
       id="path87"
       d="m 0.58990953,-0.71607243 c 0,-0.25321109 0.0773701,-0.45366987 0.23914381,-0.60489317 0.15825694,-0.1477065 0.36926616,-0.2250765 0.63302776,-0.2250765 0.2707952,0 0.4853212,0.07737 0.647095,0.2250765 0.1582569,0.1512233 0.2391438,0.35168208 0.2391438,0.60489317 0,0.25321109 -0.080887,0.46070351 -0.2391438,0.61896045 -0.1617738,0.14770647 -0.3762998,0.22507652 -0.647095,0.22507652 -0.2637616,0 -0.47477082,-0.07737005 -0.63302776,-0.22507652 C 0.66727959,-0.25536892 0.58990953,-0.46286134 0.58990953,-0.71607243 Z m 2.95412937,0 c 0,-0.25321109 0.07737,-0.45366987 0.2391438,-0.60489317 0.158257,-0.1477065 0.3692662,-0.2250765 0.6330278,-0.2250765 0.2707952,0 0.4853212,0.07737 0.647095,0.2250765 0.1582569,0.1512233 0.2391438,0.35168208 0.2391438,0.60489317 0,0.25321109 -0.080887,0.46070351 -0.2391438,0.61896045 -0.1617738,0.14770647 -0.3762998,0.22507652 -0.647095,0.22507652 -0.2637616,0 -0.4747708,-0.07737005 -0.6330278,-0.22507652 C 3.621409,-0.25536892 3.5440389,-0.46286134 3.5440389,-0.71607243 Z m 2.9681967,0 c 0,-0.25321109 0.07737,-0.45366987 0.2391438,-0.60489317 0.158257,-0.1477065 0.3692662,-0.2250765 0.6330278,-0.2250765 0.2707952,0 0.4853212,0.07737 0.647095,0.2250765 0.1582569,0.1512233 0.2391438,0.35168208 0.2391438,0.60489317 0,0.25321109 -0.080887,0.46070351 -0.2391438,0.61896045 -0.1617738,0.14770647 -0.3762998,0.22507652 -0.647095,0.22507652 -0.2637616,0 -0.4747708,-0.07737005 -0.6330278,-0.22507652 C 6.5896057,-0.25536892 6.5122356,-0.46286134 6.5122356,-0.71607243 Z m 0,0"
       style="fill:#000040;fill-opacity:1;fill-rule:nonzero;stroke:none"
       aria-label="…"
       transform="matrix(1.1107333,0,0,1.1107333,348.06742,81.119584)" />
    <path
       id="path88"
       d="M -80.9088,164.76335 V 137.37296"
       style="fill:none;stroke:#000040;stroke-width:1.19553;stroke-linecap:butt;stroke-linejoin:miter;stroke-miterlimit:10;stroke-dasharray:none;stroke-opacity:1"
       transform="matrix(1.1107333,0,0,-1.1107333,442.83741,268.5214)" />
    <path
       id="path89"
       d="M -1.91284,2.55046 C -1.75343,1.59402 0,0.15938 0.4782,0 0,-0.15938 -1.75343,-1.59402 -1.91284,-2.55046"
       style="fill:none;stroke:#000040;stroke-width:0.9564;stroke-linecap:round;stroke-linejoin:round;stroke-miterlimit:10;stroke-dasharray:none;stroke-opacity:1"
       transform="matrix(0,1.1107333,1.1107333,0,352.96931,115.93668)" />
    <path
       id="path90"
       d="M 103.00543,92.30171 H 58.81216 c -2.20094,0 -3.9851,-1.78416 -3.9851,-3.98511 v -7.20005 c 0,-2.20095 1.78416,-3.98511 3.9851,-3.98511 h 44.19327 c 2.20095,0 3.98511,1.78416 3.98511,3.98511 v 7.20005 c 0,2.20095 -1.78416,3.98511 -3.98511,3.98511 z"
       style="fill:none;stroke:#000040;stroke-width:0.3985;stroke-linecap:butt;stroke-linejoin:miter;stroke-miterlimit:10;stroke-dasharray:none;stroke-opacity:1"
       transform="matrix(1.1107333,0,0,-1.1107333,442.83741,268.5214)" />
    <path
       id="path91"
       d="m 5.5980773,-1.0280225 c -0.3376148,0.21100927 -0.8299697,0.35168209 -1.4770647,0.35168209 -1.4348628,0 -2.5461782,-1.04097889 -2.5461782,-3.13700409 0,-2.3351689 1.2097864,-3.1370041 2.4195727,-3.1370041 0.6330277,0 1.1535172,0.084404 1.491132,0.2391438 L 5.6965483,-7.4989726 C 5.3026644,-7.6537127 4.7821749,-7.766251 3.9240707,-7.766251 c -1.6177376,0 -3.31987878,1.0972481 -3.31987878,3.9529065 0,2.7290529 1.49113198,3.93883922 3.30581148,3.93883922 0.7596333,0 1.4629974,-0.09847098 1.8990832,-0.43608577 z m 0.7948015,-1.7021412 c 0,1.73027579 0.745566,2.85565842 2.3914381,2.85565842 1.5192661,0 2.3773711,-1.02691165 2.3773711,-2.85565842 0,-1.7162085 -0.745566,-2.8556584 -2.3773711,-2.8556584 -1.5333338,0 -2.3914381,1.0269116 -2.3914381,2.8556584 z m 0.9003061,0 c 0,-1.4067283 0.5204895,-2.0960252 1.491132,-2.0960252 1.0691135,0 1.4770651,0.9706426 1.4770651,2.0960252 0,1.4207956 -0.5064226,2.09602514 -1.4770651,2.09602514 -1.0831808,0 -1.491132,-0.98470984 -1.491132,-2.09602514 z m 9.3230921,2.72905287 V -3.6445371 c 0.168807,-0.745566 0.562691,-1.1816518 1.280122,-1.1816518 0.872172,0 1.040979,0.5064222 1.040979,1.5474012 v 3.27767687 H 19.80955 V -3.2647205 c 0,-1.8287467 -0.478288,-2.3211016 -1.688074,-2.3211016 -0.731499,0 -1.350459,0.3376148 -1.688074,0.9143734 -0.239144,-0.6752296 -0.689297,-0.9143734 -1.378594,-0.9143734 -0.815902,0 -1.29419,0.3235475 -1.688074,0.8018351 h -0.0422 l -0.168807,-0.6611623 h -0.604893 v 5.44403847 h 0.872171 V -3.7570754 c 0.168808,-0.5908258 0.633028,-1.0691135 1.29419,-1.0691135 0.872172,0 1.026912,0.5908259 1.026912,1.7443431 v 3.08073497 z m 8.855354,0 V -3.6445371 c 0.168808,-0.745566 0.562692,-1.1816518 1.280123,-1.1816518 0.872171,0 1.040979,0.5064222 1.040979,1.5474012 v 3.27767687 h 0.872171 V -3.2647205 c 0,-1.8287467 -0.478287,-2.3211016 -1.688074,-2.3211016 -0.731498,0 -1.350459,0.3376148 -1.688073,0.9143734 -0.239144,-0.6752296 -0.689297,-0.9143734 -1.378594,-0.9143734 -0.815903,0 -1.29419,0.3235475 -1.688074,0.8018351 h -0.0422 L 22.01108,-5.4451493 h -0.604894 v 5.44403847 h 0.872172 V -3.7570754 c 0.168807,-0.5908258 0.633028,-1.0691135 1.29419,-1.0691135 0.872172,0 1.026912,0.5908259 1.026912,1.7443431 v 3.08073497 z m 4.976302,0 h 0.872171 V -5.4451493 H 30.447933 Z M 30.265058,-7.1050887 c 0,0.3235475 0.239144,0.5767586 0.590826,0.5767586 0.351682,0 0.633027,-0.2532111 0.633027,-0.5767586 0,-0.3376148 -0.281345,-0.6189604 -0.633027,-0.6189604 -0.351682,0 -0.590826,0.2813456 -0.590826,0.6189604 z m 2.208563,2.4195727 h 0.844037 v 3.1792059 c 0,1.16758448 0.323548,1.63180482 1.209787,1.63180482 0.534556,0 0.998777,-0.12660555 1.392661,-0.30948023 L 35.723164,-0.8451478 c -0.309481,0.14067283 -0.548624,0.21100924 -0.914374,0.21100924 -0.450153,0 -0.61896,-0.28134565 -0.61896,-1.04097894 V -4.685516 h 1.477064 V -5.4451493 H 34.18983 v -1.3363919 l -0.872172,0.2532111 v 1.0831808 h -0.844037 z m 12.182267,1.5755357 H 43.375766 V -7.7521837 H 42.78494 l -3.629359,5.0501546 v 0.351682 h 3.36208 v 2.34923627 h 0.858105 V -2.3503471 h 1.280122 z m -2.138227,0 h -1.60367 l -0.759633,0.084404 0.520489,-0.5345568 1.533334,-2.0819579 0.393884,-0.7314987 h 0.02813 l -0.112539,0.8862389 z m 0,0"
       style="fill:#000040;fill-opacity:1;fill-rule:nonzero;stroke:none"
       aria-label="Commit4"
       transform="matrix(1.1107333,0,0,1.1107333,507.77422,178.6653)" />
    <path
       id="path92"
       d="M 66.56621,76.93219 15.17482,49.04155"
       style="fill:none;stroke:#000040;stroke-width:1.19553;stroke-linecap:butt;stroke-linejoin:miter;stroke-miterlimit:10;stroke-dasharray:none;stroke-opacity:1"
       transform="matrix(1.1107333,0,0,-1.1107333,442.83741,268.5214)" />
    <path
       id="path93"
       d="M -1.91284,2.55046 C -1.75343,1.59402 0,0.15938 0.4782,0 0,-0.15938 -1.75343,-1.59402 -1.91284,-2.55046"
       style="fill:none;stroke:#000040;stroke-width:0.9564;stroke-linecap:round;stroke-linejoin:round;stroke-miterlimit:10;stroke-dasharray:none;stroke-opacity:1"
       transform="matrix(-0.9761791,0.52977537,0.52977537,0.9761791,459.69261,214.04932)" />
    <path
       id="path94"
       d="M 4.9101409,-4.5981634e-4 V -3.6438861 c 0.1688074,-0.745566 0.5626913,-1.1816517 1.2801227,-1.1816517 0.8721716,0 1.040979,0.5064221 1.040979,1.5474011 V -4.5981634e-4 H 8.1034141 V -3.2640694 c 0,-1.8287468 -0.4782876,-2.3211017 -1.6880739,-2.3211017 -0.7314988,0 -1.3504592,0.3376148 -1.688074,0.9143734 -0.2391438,-0.6752296 -0.6892969,-0.9143734 -1.3785937,-0.9143734 -0.8159024,0 -1.29419,0.3235475 -1.688074,0.8018351 H 1.6183967 L 1.4495893,-5.4444983 H 0.84469613 V -4.5981634e-4 H 1.7168677 V -3.7564243 c 0.1688074,-0.5908259 0.6330277,-1.0691135 1.29419,-1.0691135 0.8721715,0 1.0269116,0.5908258 1.0269116,1.744343 V -4.5981634e-4 Z M 9.9989805,-5.4444983 H 8.9861361 L 11.180632,-4.5981634e-4 C 10.941488,1.0405191 10.533537,1.434403 10.125586,1.434403 c -0.0844,0 -0.1828747,-0.028135 -0.2672784,-0.056269 L 9.7035675,2.1237 c 0.1688074,0.084404 0.3798165,0.1125383 0.6330275,0.1125383 0.970643,0 1.406729,-1.36452648 1.885016,-2.79938933 L 13.839349,-5.4444983 H 12.95311 l -1.055046,3.5168207 -0.239144,1.05504625 H 11.60265 L 11.307238,-1.9136103 Z M 14.588432,-2.74358 h 2.630581 v -0.8018351 h -2.630581 z m 4.12523,2.43363996 c 0.323548,0.19694196 1.040979,0.4079512 1.842814,0.4079512 1.688074,0 2.672784,-1.01284436 2.672784,-2.91192756 0,-1.8709486 -0.717431,-2.7712547 -2.12416,-2.7712547 -0.604893,0 -1.153517,0.2391438 -1.477064,0.6611623 h -0.0422 V -7.6249271 H 18.713662 Z M 20.95036,-4.8255378 c 0.98471,0 1.364527,0.8581042 1.364527,1.9975541 0,1.491132 -0.633028,2.16636159 -1.617738,2.16636159 -0.436086,0 -0.844037,-0.0844037 -1.111315,-0.23914381 V -3.6579534 c 0.196942,-0.7314987 0.647095,-1.1675844 1.364526,-1.1675844 z m 6.411164,-0.6189605 c -0.281345,-0.084404 -0.506422,-0.1125383 -0.717431,-0.1125383 -0.576759,0 -0.956575,0.2813457 -1.223854,0.7737006 h -0.0422 L 25.20923,-5.4444983 h -0.604893 v 5.44403848366 h 0.872171 V -3.8126935 c 0.0844,-0.5204894 0.450153,-0.9143734 1.069114,-0.9143734 0.196942,0 0.393884,0.042202 0.633028,0.1125383 z m 1.135933,1.0409789 c 0.407952,-0.2250765 1.125383,-0.3657493 1.617738,-0.3657493 0.844037,0 1.111315,0.2672784 1.111315,1.0691135 0,0.1828747 -0.01407,0.3798166 -0.0422,0.5908259 -0.196941,-0.014067 -0.393883,-0.014067 -0.590825,-0.014067 -1.603671,0 -2.700919,0.3798166 -2.700919,1.6599394 0,0.9565752 0.717432,1.54740108 1.631805,1.54740108 0.928441,0 1.44893,-0.43608577 1.702141,-0.82996969 h 0.05627 l 0.239144,0.77370056 h 0.633028 c -0.112538,-0.4079512 -0.15474,-0.9003061 -0.15474,-1.43486285 0,-0.745566 0.07034,-1.5755357 0.07034,-2.4477072 0,-0.7737006 -0.211009,-1.688074 -1.730275,-1.688074 -0.801836,0 -1.575536,0.1688074 -2.12416,0.4923549 z m 1.280123,3.72783001 c -0.576758,0 -0.970642,-0.36574931 -0.970642,-0.87217151 0,-0.7314987 0.858104,-0.9143734 1.75841,-0.9143734 0.211009,0 0.422019,0.014067 0.61896,0.014067 v 0.9143734 c -0.15474,0.3798166 -0.590825,0.85810421 -1.406728,0.85810451 z m 8.306731,0.67522957366 V -3.292204 c 0,-1.8006122 -0.604893,-2.2929671 -1.786545,-2.2929671 -0.815903,0 -1.406728,0.3376148 -1.758411,0.8018351 h -0.0422 l -0.168808,-0.6611623 h -0.604893 v 5.44403848366 h 0.872172 V -3.7282898 c 0.196942,-0.6189604 0.717431,-1.097248 1.477064,-1.097248 0.872172,0 1.13945,0.5908258 1.13945,1.7162085 V -4.5981634e-4 Z M 43.123915,-1.0273715 c -0.267279,0.21100928 -0.689297,0.39388395 -1.209787,0.39388395 -1.209786,0 -1.631804,-0.98470975 -1.631804,-2.09602515 0,-1.4067283 0.520489,-2.0960251 1.547401,-2.0960251 0.46422,0 0.872171,0.1266055 1.209786,0.3094802 l 0.253211,-0.745566 c -0.393884,-0.2110093 -0.844037,-0.3235475 -1.547401,-0.3235475 -1.519266,0 -2.363303,1.0269116 -2.363303,2.8556584 0,1.7302758 0.633027,2.85565843 2.307034,2.85565843 0.661162,0 1.280123,-0.16880739 1.716208,-0.4923549 z m 5.848473,1.02691168366 V -3.292204 c 0,-1.8006122 -0.548624,-2.2929671 -1.786545,-2.2929671 -0.773701,0 -1.280123,0.2954129 -1.65994,0.745566 h -0.0422 v -2.785322 H 44.61153 v 7.62446728366 h 0.872172 V -3.6298188 c 0.15474,-0.7033641 0.7737,-1.195719 1.462997,-1.195719 0.942508,0 1.153517,0.5908258 1.153517,1.7162085 v 3.10886948366 z m 0,0"
       style="fill:#000040;fill-opacity:1;fill-rule:nonzero;stroke:none"
       aria-label="my-branch"
       transform="matrix(1.1107333,0,0,1.1107333,412.52661,177.42239)" />
    <path
       id="path95"
       d="m 26.28099,84.71657 h 27.3904"
       style="fill:none;stroke:#000040;stroke-width:1.19553;stroke-linecap:butt;stroke-linejoin:miter;stroke-miterlimit:10;stroke-dasharray:none;stroke-opacity:1"
       transform="matrix(1.1107333,0,0,-1.1107333,442.83741,268.5214)" />
    <path
       id="path96"
       d="M -1.91284,2.55046 C -1.75343,1.59402 0,0.15938 0.4782,0 0,-0.15938 -1.75343,-1.59402 -1.91284,-2.55046"
       style="fill:none;stroke:#000040;stroke-width:0.9564;stroke-linecap:round;stroke-linejoin:round;stroke-miterlimit:10;stroke-dasharray:none;stroke-opacity:1"
       transform="matrix(1.1107333,0,0,-1.1107333,502.45202,174.42388)" />
    <path
       id="path97"
       d="M 5.4985546,-0.00122638 H 6.3988607 V -7.6256937 H 5.4985546 v 3.3198788 H 1.8269938 V -7.6256937 H 0.92668768 v 7.62446732 H 1.8269938 V -3.5039798 h 3.6715608 z m 2.7607043,0 H 12.465376 V -0.80306151 H 9.159565 V -3.5180471 h 2.982264 V -4.3339495 H 9.159565 v -2.4899091 h 3.249542 V -7.6256937 H 8.2592589 Z m 10.2656001,0 h 0.942508 L 16.569506,-7.7522992 h -0.407951 l -2.89786,7.75107282 h 0.900306 l 0.759633,-2.11009242 h 2.813457 z M 16.063084,-5.206121 16.330362,-6.3737055 h 0.01407 l 0.267278,1.1535172 0.858104,2.3211016 h -2.250765 z m 4.424161,5.2189619 c 0.295412,0.04220185 1.462997,0.0844037 1.927217,0.0844037 2.644649,0 3.657494,-1.9131505 3.657494,-3.9669738 0,-2.2648325 -1.097248,-3.8544355 -3.544955,-3.8544355 -0.604894,0 -1.491132,0.014067 -2.039756,0.098471 z m 2.053823,-6.9211032 c 1.997554,0 2.574313,1.6177376 2.574313,3.0385331 0,1.6318048 -0.633028,3.16513867 -2.672784,3.16513867 -0.15474,0 -0.900306,-0.0281346 -1.055046,-0.0422018 V -6.8519931 c 0.211009,-0.056269 0.787767,-0.056269 1.153517,-0.056269 z m 0,0"
       style="fill:#000040;fill-opacity:1;fill-rule:nonzero;stroke:none"
       aria-label="HEAD"
       transform="matrix(1.1107333,0,0,1.1107333,425.32226,128.82558)" />
    <path
       id="path98"
       d="M -2.42183,121.83507 V 94.44467"
       style="fill:none;stroke:#000040;stroke-width:1.19553;stroke-linecap:butt;stroke-linejoin:miter;stroke-miterlimit:10;stroke-dasharray:none;stroke-opacity:1"
       transform="matrix(1.1107333,0,0,-1.1107333,442.83741,268.5214)" />
    <path
       id="path99"
       d="M -1.91284,2.55046 C -1.75343,1.59402 0,0.15938 0.4782,0 0,-0.15938 -1.75343,-1.59402 -1.91284,-2.55046"
       style="fill:none;stroke:#000040;stroke-width:0.9564;stroke-linecap:round;stroke-linejoin:round;stroke-miterlimit:10;stroke-dasharray:none;stroke-opacity:1"
       transform="matrix(0,1.1107333,1.1107333,0,440.14741,163.61856)" />
    <path
       id="path100"
       d="M 103.00543,136.21729 H 58.81216 c -2.20094,0 -3.9851,-1.78417 -3.9851,-3.98511 v -7.20004 c 0,-2.20095 1.78416,-3.98511 3.9851,-3.98511 h 44.19327 c 2.20095,0 3.98511,1.78416 3.98511,3.98511 v 7.20004 c 0,2.20094 -1.78416,3.98511 -3.98511,3.98511 z"
       style="fill:none;stroke:#000040;stroke-width:0.3985;stroke-linecap:butt;stroke-linejoin:miter;stroke-miterlimit:10;stroke-dasharray:none;stroke-opacity:0"
       transform="matrix(1.1107333,0,0,-1.1107333,442.83741,268.5214)" />
    <path
       id="path101"
       d="m 5.5980773,-1.0265628 c -0.3376148,0.21100925 -0.8299697,0.35168208 -1.4770647,0.35168208 -1.4348628,0 -2.5461782,-1.04097898 -2.5461782,-3.13700408 0,-2.335169 1.2097864,-3.1370041 2.4195727,-3.1370041 0.6330277,0 1.1535172,0.084404 1.491132,0.2391438 L 5.6965483,-7.4975129 C 5.3026644,-7.652253 4.7821749,-7.7647913 3.9240707,-7.7647913 c -1.6177376,0 -3.31987878,1.0972481 -3.31987878,3.9529065 0,2.7290529 1.49113198,3.9388392 3.30581148,3.9388392 0.7596333,0 1.4629974,-0.09847098 1.8990832,-0.43608577 z M 6.3928788,-2.728704 c 0,1.73027577 0.745566,2.8556584 2.3914381,2.8556584 1.5192661,0 2.3773711,-1.02691165 2.3773711,-2.8556584 0,-1.7162085 -0.745566,-2.8556584 -2.3773711,-2.8556584 -1.5333338,0 -2.3914381,1.0269116 -2.3914381,2.8556584 z m 0.9003061,0 c 0,-1.4067283 0.5204895,-2.0960252 1.491132,-2.0960252 1.0691135,0 1.4770651,0.9706425 1.4770651,2.0960252 0,1.4207955 -0.5064226,2.09602512 -1.4770651,2.09602512 -1.0831808,0 -1.491132,-0.98470982 -1.491132,-2.09602512 z M 16.616277,3.4885361e-4 V -3.6430774 c 0.168807,-0.745566 0.562691,-1.1816518 1.280122,-1.1816518 0.872172,0 1.040979,0.5064222 1.040979,1.5474011 V 3.4885361e-4 H 19.80955 V -3.2632608 c 0,-1.8287467 -0.478288,-2.3211016 -1.688074,-2.3211016 -0.731499,0 -1.350459,0.3376147 -1.688074,0.9143733 -0.239144,-0.6752295 -0.689297,-0.9143733 -1.378594,-0.9143733 -0.815902,0 -1.29419,0.3235475 -1.688074,0.8018351 h -0.0422 L 13.155725,-5.4436896 H 12.550832 V 3.4885361e-4 h 0.872171 V -3.7556157 c 0.168808,-0.5908259 0.633028,-1.0691135 1.29419,-1.0691135 0.872172,0 1.026912,0.5908259 1.026912,1.7443431 V 3.4885361e-4 Z m 8.855354,0 V -3.6430774 c 0.168808,-0.745566 0.562692,-1.1816518 1.280123,-1.1816518 0.872171,0 1.040979,0.5064222 1.040979,1.5474011 V 3.4885361e-4 h 0.872171 V -3.2632608 c 0,-1.8287467 -0.478287,-2.3211016 -1.688074,-2.3211016 -0.731498,0 -1.350459,0.3376147 -1.688073,0.9143733 -0.239144,-0.6752295 -0.689297,-0.9143733 -1.378594,-0.9143733 -0.815903,0 -1.29419,0.3235475 -1.688074,0.8018351 h -0.0422 L 22.01108,-5.4436896 H 21.406186 V 3.4885361e-4 h 0.872172 V -3.7556157 c 0.168807,-0.5908259 0.633028,-1.0691135 1.29419,-1.0691135 0.872172,0 1.026912,0.5908259 1.026912,1.7443431 V 3.4885361e-4 Z m 4.976302,0 h 0.872171 V -5.4436896 H 30.447933 Z M 30.265058,-7.103629 c 0,0.3235475 0.239144,0.5767586 0.590826,0.5767586 0.351682,0 0.633027,-0.2532111 0.633027,-0.5767586 0,-0.3376148 -0.281345,-0.6189604 -0.633027,-0.6189604 -0.351682,0 -0.590826,0.2813456 -0.590826,0.6189604 z m 2.208563,2.4195727 h 0.844037 v 3.1792059 c 0,1.16758446 0.323548,1.6318048 1.209787,1.6318048 0.534556,0 0.998777,-0.12660554639 1.392661,-0.30948022 l -0.196942,-0.6611623 c -0.309481,0.14067283 -0.548624,0.21100924 -0.914374,0.21100924 -0.450153,0 -0.61896,-0.28134565 -0.61896,-1.04097892 v -3.0103985 h 1.477064 V -5.4436896 H 34.18983 v -1.3363919 l -0.872172,0.2532111 v 1.0831808 h -0.844037 z m 8.792052,4.05137742 c -0.562691,0 -0.914373,-0.0562691 -1.251988,-0.18287467 l -0.225077,0.73149871 c 0.393884,0.14067283 0.815903,0.21100924 1.462998,0.21100924 1.44893,0 2.616514,-0.87217154 2.616514,-2.5180436 0,-1.4629975 -0.886238,-2.2788999 -2.321101,-2.2788999 l -0.464221,0.014067 v -2.1663615 h 2.58838 v -0.8018352 h -3.404282 v 3.7700318 l 0.914373,-0.056269 c 1.125383,0 1.81468,0.5204895 1.81468,1.5755357 0,1.0972481 -0.731499,1.70214122 -1.730276,1.70214142 z m 0,0"
       style="fill:#000040;fill-opacity:0;fill-rule:nonzero;stroke:none"
       aria-label="Commit5"
       transform="matrix(1.1107333,0,0,1.1107333,507.77422,129.88633)" />
    <path
       id="path102"
       d="M 80.9088,120.84776 V 93.45738"
       style="fill:none;stroke:#000040;stroke-width:1.19553;stroke-linecap:butt;stroke-linejoin:miter;stroke-miterlimit:10;stroke-dasharray:none;stroke-opacity:0"
       transform="matrix(1.1107333,0,0,-1.1107333,442.83741,268.5214)" />
    <path
       id="path103"
       d="M -1.91284,2.55046 C -1.75343,1.59402 0,0.15938 0.4782,0 0,-0.15938 -1.75343,-1.59402 -1.91284,-2.55046"
       style="fill:none;stroke:#000040;stroke-width:0.9564;stroke-linecap:round;stroke-linejoin:round;stroke-miterlimit:10;stroke-dasharray:none;stroke-opacity:0"
       transform="matrix(0,1.1107333,1.1107333,0,532.70551,164.71517)" />
    <path
       id="path104"
       d="M 4.9101409,-1.3504591e-7 V -3.6434264 c 0.1688074,-0.745566 0.5626913,-1.1816518 1.2801227,-1.1816518 0.8721716,0 1.040979,0.5064222 1.040979,1.5474012 V -1.3504591e-7 H 8.1034141 V -3.2636098 c 0,-1.8287467 -0.4782876,-2.3211016 -1.6880739,-2.3211016 -0.7314988,0 -1.3504592,0.3376148 -1.688074,0.9143734 -0.2391438,-0.6752296 -0.6892969,-0.9143734 -1.3785937,-0.9143734 -0.8159024,0 -1.29419,0.3235475 -1.688074,0.8018351 H 1.6183967 L 1.4495893,-5.4440386 H 0.84469613 V -1.3504591e-7 H 1.7168677 V -3.7559647 c 0.1688074,-0.5908258 0.6330277,-1.0691135 1.29419,-1.0691135 0.8721715,0 1.0269116,0.5908259 1.0269116,1.7443431 V -1.3504591e-7 Z M 9.9989805,-5.4440386 H 8.9861361 L 11.180632,-1.3504591e-7 C 10.941488,1.0409788 10.533537,1.4348627 10.125586,1.4348627 c -0.0844,0 -0.1828747,-0.028134 -0.2672784,-0.056269 l -0.1547401,0.745566 c 0.1688074,0.084404 0.3798165,0.1125382 0.6330275,0.1125382 0.970643,0 1.406729,-1.3645264 1.885016,-2.79938925 L 13.839349,-5.4440386 H 12.95311 l -1.055046,3.5168207 -0.239144,1.05504623 H 11.60265 L 11.307238,-1.9131506 Z m 4.5894515,2.7009183 h 2.630581 v -0.8018351 h -2.630581 z m 4.12523,2.43363994 c 0.323548,0.19694196 1.040979,0.40795121 1.842814,0.40795121 1.688074,0 2.672784,-1.01284437 2.672784,-2.91192755 0,-1.8709486 -0.717431,-2.7712547 -2.12416,-2.7712547 -0.604893,0 -1.153517,0.2391438 -1.477064,0.6611623 h -0.0422 V -7.6244675 H 18.713662 Z M 20.95036,-4.8250782 c 0.98471,0 1.364527,0.8581043 1.364527,1.9975542 0,1.491132 -0.633028,2.16636157 -1.617738,2.16636157 -0.436086,0 -0.844037,-0.0844037 -1.111315,-0.23914381 V -3.6574937 c 0.196942,-0.7314987 0.647095,-1.1675845 1.364526,-1.1675845 z m 6.411164,-0.6189604 c -0.281345,-0.084404 -0.506422,-0.1125383 -0.717431,-0.1125383 -0.576759,0 -0.956575,0.2813457 -1.223854,0.7737006 h -0.0422 L 25.20923,-5.4440386 H 24.604337 V -1.3504591e-7 h 0.872171 V -3.8122338 c 0.0844,-0.5204895 0.450153,-0.9143734 1.069114,-0.9143734 0.196942,0 0.393884,0.042202 0.633028,0.1125383 z m 1.135933,1.0409789 c 0.407952,-0.2250765 1.125383,-0.3657493 1.617738,-0.3657493 0.844037,0 1.111315,0.2672783 1.111315,1.0691135 0,0.1828746 -0.01407,0.3798166 -0.0422,0.5908258 -0.196941,-0.014067 -0.393883,-0.014067 -0.590825,-0.014067 -1.603671,0 -2.700919,0.3798166 -2.700919,1.6599393 0,0.95657528 0.717432,1.54740116 1.631805,1.54740116 0.928441,0 1.44893,-0.43608577 1.702141,-0.82996969 h 0.05627 l 0.239144,0.77370056 h 0.633028 c -0.112538,-0.4079512 -0.15474,-0.9003061 -0.15474,-1.43486283 0,-0.745566 0.07034,-1.5755357 0.07034,-2.4477072 0,-0.7737006 -0.211009,-1.688074 -1.730275,-1.688074 -0.801836,0 -1.575536,0.1688074 -2.12416,0.4923549 z m 1.280123,3.72782999 c -0.576758,0 -0.970642,-0.36574939 -0.970642,-0.87217159 0,-0.7314987 0.858104,-0.9143733 1.75841,-0.9143733 0.211009,0 0.422019,0.014067 0.61896,0.014067 v 0.9143734 c -0.15474,0.3798167 -0.590825,0.85810429 -1.406728,0.85810449 z M 38.084311,-1.3504591e-7 V -3.2917443 c 0,-1.8006122 -0.604893,-2.2929671 -1.786545,-2.2929671 -0.815903,0 -1.406728,0.3376148 -1.758411,0.8018351 h -0.0422 L 34.328346,-5.4440386 H 33.723453 V -1.3504591e-7 h 0.872172 V -3.7278301 c 0.196942,-0.6189604 0.717431,-1.0972481 1.477064,-1.0972481 0.872172,0 1.13945,0.5908259 1.13945,1.7162085 V -1.3504591e-7 Z M 43.123915,-1.0269118 c -0.267279,0.21100926 -0.689297,0.39388394 -1.209787,0.39388394 -1.209786,0 -1.631804,-0.98470984 -1.631804,-2.09602514 0,-1.4067283 0.520489,-2.0960252 1.547401,-2.0960252 0.46422,0 0.872171,0.1266056 1.209786,0.3094803 l 0.253211,-0.745566 c -0.393884,-0.2110093 -0.844037,-0.3235475 -1.547401,-0.3235475 -1.519266,0 -2.363303,1.0269116 -2.363303,2.8556584 0,1.73027578 0.633027,2.85565841 2.307034,2.85565841 0.661162,0 1.280123,-0.16880739 1.716208,-0.4923549 z M 48.972388,-1.3504591e-7 V -3.2917443 c 0,-1.8006122 -0.548624,-2.2929671 -1.786545,-2.2929671 -0.773701,0 -1.280123,0.2954129 -1.65994,0.745566 h -0.0422 V -7.6244675 H 44.61153 V -1.3504591e-7 h 0.872172 V -3.6293591 c 0.15474,-0.7033642 0.7737,-1.1957191 1.462997,-1.1957191 0.942508,0 1.153517,0.5908259 1.153517,1.7162085 V -1.3504591e-7 Z m 0,0"
       style="fill:#000040;fill-opacity:0;fill-rule:nonzero;stroke:none"
       aria-label="my-branch"
       transform="matrix(1.1107333,0,0,1.1107333,412.52661,128.64453)" />
    <path
       id="path105"
       d="m 26.28099,128.63216 h 27.3904"
       style="fill:none;stroke:#000040;stroke-width:1.19553;stroke-linecap:butt;stroke-linejoin:miter;stroke-miterlimit:10;stroke-dasharray:none;stroke-opacity:0"
       transform="matrix(1.1107333,0,0,-1.1107333,442.83741,268.5214)" />
    <path
       id="path106"
       d="M -1.91284,2.55046 C -1.75343,1.59402 0,0.15938 0.4782,0 0,-0.15938 -1.75343,-1.59402 -1.91284,-2.55046"
       style="fill:none;stroke:#000040;stroke-width:0.9564;stroke-linecap:round;stroke-linejoin:round;stroke-miterlimit:10;stroke-dasharray:none;stroke-opacity:0"
       transform="matrix(1.1107333,0,0,-1.1107333,502.45202,125.64537)" />
    <path
       id="path107"
       d="M 5.4985546,-7.6670068e-4 H 6.3988607 V -7.625234 H 5.4985546 v 3.3198787 H 1.8269938 V -7.625234 H 0.92668768 V -7.6670068e-4 H 1.8269938 V -3.5035201 h 3.6715608 z m 2.7607043,0 H 12.465376 V -0.80260182 H 9.159565 V -3.5175874 h 2.982264 V -4.3334898 H 9.159565 v -2.4899091 h 3.249542 V -7.625234 H 8.2592589 Z m 10.2656001,0 h 0.942508 L 16.569506,-7.7518396 h -0.407951 l -2.89786,7.75107289932 h 0.900306 L 14.923634,-2.1108591 h 2.813457 z M 16.063084,-5.2056614 16.330362,-6.3732458 h 0.01407 l 0.267278,1.1535172 0.858104,2.3211016 h -2.250765 z m 4.424161,5.21896198 c 0.295412,0.04220185 1.462997,0.0844037 1.927217,0.0844037 2.644649,0 3.657494,-1.91315048 3.657494,-3.96697378 0,-2.2648325 -1.097248,-3.8544355 -3.544955,-3.8544355 -0.604894,0 -1.491132,0.014067 -2.039756,0.098471 z m 2.053823,-6.92110318 c 1.997554,0 2.574313,1.6177375 2.574313,3.0385331 0,1.6318048 -0.633028,3.16513866 -2.672784,3.16513866 -0.15474,0 -0.900306,-0.0281346 -1.055046,-0.0422018 V -6.8515335 c 0.211009,-0.056269 0.787767,-0.056269 1.153517,-0.056269 z m 0,0"
       style="fill:#000040;fill-opacity:0;fill-rule:nonzero;stroke:none"
       aria-label="HEAD"
       transform="matrix(1.1107333,0,0,1.1107333,425.32226,80.047727)" />
    <path
       id="path108"
       d="m -2.42183,165.75064 v -27.3904"
       style="fill:none;stroke:#000040;stroke-width:1.19553;stroke-linecap:butt;stroke-linejoin:miter;stroke-miterlimit:10;stroke-dasharray:none;stroke-opacity:0"
       transform="matrix(1.1107333,0,0,-1.1107333,442.83741,268.5214)" />
    <path
       id="path109"
       d="M -1.91284,2.55046 C -1.75343,1.59402 0,0.15938 0.4782,0 0,-0.15938 -1.75343,-1.59402 -1.91284,-2.55046"
       style="fill:none;stroke:#000040;stroke-width:0.9564;stroke-linecap:round;stroke-linejoin:round;stroke-miterlimit:10;stroke-dasharray:none;stroke-opacity:0"
       transform="matrix(0,1.1107333,1.1107333,0,440.14741,114.84007)" />
  </g>
</svg>
