<?xml version="1.0" encoding="UTF-8" standalone="no"?>
<!-- Created with Inkscape (http://www.inkscape.org/) -->

<svg
   version="1.1"
   id="svg1"
   width="234.49649"
   height="200"
   viewBox="0 0 234.49648 199.99999"
   sodipodi:docname="pre_merged.svg"
   inkscape:version="1.4.2 (ebf0e940d0, 2025-05-08)"
   xmlns:inkscape="http://www.inkscape.org/namespaces/inkscape"
   xmlns:sodipodi="http://sodipodi.sourceforge.net/DTD/sodipodi-0.dtd"
   xmlns="http://www.w3.org/2000/svg"
   xmlns:svg="http://www.w3.org/2000/svg">
  <defs
     id="defs1">
    <clipPath
       clipPathUnits="userSpaceOnUse"
       id="clipPath2">
      <path
         d="M 0,0 H 200 V 200 H 0 Z"
         transform="matrix(0.99999999,0,0,-0.99999999,-1.1759172e-5,200)"
         id="path2" />
    </clipPath>
    <clipPath
       clipPathUnits="userSpaceOnUse"
       id="clipPath3">
      <path
         d="M 0,0 H 200 V 200 H 0 Z"
         transform="matrix(0.99999999,0,0,-0.99999999,-1.1759172e-5,200)"
         id="path3" />
    </clipPath>
    <clipPath
       clipPathUnits="userSpaceOnUse"
       id="clipPath4">
      <path
         d="M 0,0 H 200 V 200 H 0 Z"
         transform="matrix(0.99999999,0,0,-0.99999999,-1.1759172e-5,200)"
         id="path4" />
    </clipPath>
    <clipPath
       clipPathUnits="userSpaceOnUse"
       id="clipPath5">
      <path
         d="M 0,0 H 200 V 200 H 0 Z"
         transform="matrix(0.99999999,0,0,-0.99999999,-1.1759172e-5,200)"
         id="path5" />
    </clipPath>
    <clipPath
       clipPathUnits="userSpaceOnUse"
       id="clipPath6">
      <path
         d="M 0,0 H 200 V 200 H 0 Z"
         transform="matrix(0.99999999,0,0,-0.99999999,-1.1759172e-5,200)"
         id="path6" />
    </clipPath>
    <clipPath
       clipPathUnits="userSpaceOnUse"
       id="clipPath7">
      <path
         d="M 0,0 H 200 V 200 H 0 Z"
         transform="matrix(0.99999999,0,0,-0.99999999,-1.1759172e-5,200)"
         id="path7" />
    </clipPath>
    <clipPath
       clipPathUnits="userSpaceOnUse"
       id="clipPath8">
      <path
         d="M 0,0 H 200 V 200 H 0 Z"
         transform="matrix(0.99999999,0,0,-0.99999999,-1.1759172e-5,200)"
         id="path8" />
    </clipPath>
    <clipPath
       clipPathUnits="userSpaceOnUse"
       id="clipPath9">
      <path
         d="M 0,0 H 200 V 200 H 0 Z"
         transform="matrix(0.99999999,0,0,-0.99999999,-1.1759172e-5,200)"
         id="path9" />
    </clipPath>
    <clipPath
       clipPathUnits="userSpaceOnUse"
       id="clipPath10">
      <path
         d="M 0,0 H 200 V 200 H 0 Z"
         transform="matrix(0.99999999,0,0,-0.99999999,-1.1759172e-5,200)"
         id="path10" />
    </clipPath>
    <clipPath
       clipPathUnits="userSpaceOnUse"
       id="clipPath11">
      <path
         d="M 0,0 H 200 V 200 H 0 Z"
         transform="matrix(0.99999999,0,0,-0.99999999,-1.1759172e-5,200)"
         id="path11" />
    </clipPath>
    <clipPath
       clipPathUnits="userSpaceOnUse"
       id="clipPath12">
      <path
         d="M 0,0 H 200 V 200 H 0 Z"
         transform="matrix(0.99999999,0,0,-0.99999999,-1.1759172e-5,200)"
         id="path12" />
    </clipPath>
    <clipPath
       clipPathUnits="userSpaceOnUse"
       id="clipPath13">
      <path
         d="M 0,0 H 200 V 200 H 0 Z"
         transform="matrix(0.99999999,0,0,-0.99999999,-1.1759172e-5,200)"
         id="path13" />
    </clipPath>
    <clipPath
       clipPathUnits="userSpaceOnUse"
       id="clipPath14">
      <path
         d="M 0,0 H 200 V 200 H 0 Z"
         transform="matrix(0.99999999,0,0,-0.99999999,-1.1759172e-5,200)"
         id="path14" />
    </clipPath>
    <clipPath
       clipPathUnits="userSpaceOnUse"
       id="clipPath15">
      <path
         d="M 0,0 H 200 V 200 H 0 Z"
         transform="matrix(0.99999999,0,0,-0.99999999,-1.1759172e-5,200)"
         id="path15" />
    </clipPath>
    <clipPath
       clipPathUnits="userSpaceOnUse"
       id="clipPath16">
      <path
         d="M 0,0 H 200 V 200 H 0 Z"
         transform="matrix(0.99999999,0,0,-0.99999999,-1.1759172e-5,200)"
         id="path16" />
    </clipPath>
    <clipPath
       clipPathUnits="userSpaceOnUse"
       id="clipPath17">
      <path
         d="M 0,0 H 200 V 200 H 0 Z"
         transform="matrix(0.99999999,0,0,-0.99999999,-1.1759172e-5,200)"
         id="path17" />
    </clipPath>
    <clipPath
       clipPathUnits="userSpaceOnUse"
       id="clipPath18">
      <path
         d="M 0,0 H 200 V 200 H 0 Z"
         transform="matrix(0.99999999,0,0,-0.99999999,-1.1759172e-5,200)"
         id="path18" />
    </clipPath>
    <clipPath
       clipPathUnits="userSpaceOnUse"
       id="clipPath19">
      <path
         d="M 0,0 H 200 V 200 H 0 Z"
         transform="matrix(0.99999999,0,0,-0.99999999,-1.1759172e-5,200)"
         id="path19" />
    </clipPath>
    <clipPath
       clipPathUnits="userSpaceOnUse"
       id="clipPath20">
      <path
         d="M 0,0 H 200 V 200 H 0 Z"
         transform="matrix(0.99999999,0,0,-0.99999999,-1.1759172e-5,200)"
         id="path20" />
    </clipPath>
    <clipPath
       clipPathUnits="userSpaceOnUse"
       id="clipPath21">
      <path
         d="M 0,0 H 200 V 200 H 0 Z"
         transform="matrix(0.99999999,0,0,-0.99999999,-1.1759172e-5,200)"
         id="path21" />
    </clipPath>
    <clipPath
       clipPathUnits="userSpaceOnUse"
       id="clipPath22">
      <path
         d="M 0,0 H 200 V 200 H 0 Z"
         transform="matrix(0.99999999,0,0,-0.99999999,-1.1759172e-5,200)"
         id="path22" />
    </clipPath>
    <clipPath
       clipPathUnits="userSpaceOnUse"
       id="clipPath23">
      <path
         d="M 0,0 H 200 V 200 H 0 Z"
         transform="matrix(0.99999999,0,0,-0.99999999,-1.1759172e-5,200)"
         id="path23" />
    </clipPath>
    <clipPath
       clipPathUnits="userSpaceOnUse"
       id="clipPath24">
      <path
         d="M 0,0 H 200 V 200 H 0 Z"
         transform="matrix(0.99999999,0,0,-0.99999999,-1.1759172e-5,200)"
         id="path24" />
    </clipPath>
    <clipPath
       clipPathUnits="userSpaceOnUse"
       id="clipPath25">
      <path
         d="M 0,0 H 200 V 200 H 0 Z"
         transform="matrix(0.99999999,0,0,-0.99999999,-1.1759172e-5,200)"
         id="path25" />
    </clipPath>
    <clipPath
       clipPathUnits="userSpaceOnUse"
       id="clipPath26">
      <path
         d="M 0,0 H 200 V 200 H 0 Z"
         transform="matrix(0.99999999,0,0,-0.99999999,-1.1759172e-5,200)"
         id="path26" />
    </clipPath>
    <clipPath
       clipPathUnits="userSpaceOnUse"
       id="clipPath27">
      <path
         d="M 0,0 H 200 V 200 H 0 Z"
         transform="matrix(0.99999999,0,0,-0.99999999,-1.1759172e-5,200)"
         id="path27" />
    </clipPath>
    <clipPath
       clipPathUnits="userSpaceOnUse"
       id="clipPath28">
      <path
         d="M 0,0 H 200 V 200 H 0 Z"
         transform="matrix(0.99999999,0,0,-0.99999999,-1.1759172e-5,200)"
         id="path28" />
    </clipPath>
    <clipPath
       clipPathUnits="userSpaceOnUse"
       id="clipPath29">
      <path
         d="M 0,0 H 200 V 200 H 0 Z"
         transform="matrix(0.99999999,0,0,-0.99999999,-1.1759172e-5,200)"
         id="path29" />
    </clipPath>
    <clipPath
       clipPathUnits="userSpaceOnUse"
       id="clipPath30">
      <path
         d="M 0,0 H 200 V 200 H 0 Z"
         transform="matrix(0.99999999,0,0,-0.99999999,-1.1759172e-5,200)"
         id="path30" />
    </clipPath>
    <clipPath
       clipPathUnits="userSpaceOnUse"
       id="clipPath31">
      <path
         d="M 0,0 H 200 V 200 H 0 Z"
         transform="matrix(0.99999999,0,0,-0.99999999,-1.1759172e-5,200)"
         id="path31" />
    </clipPath>
    <clipPath
       clipPathUnits="userSpaceOnUse"
       id="clipPath32">
      <path
         d="M 0,0 H 200 V 200 H 0 Z"
         transform="matrix(0.99999999,0,0,-0.99999999,-1.1759172e-5,200)"
         id="path32" />
    </clipPath>
  </defs>
  <sodipodi:namedview
     id="namedview1"
     pagecolor="#ffffff"
     bordercolor="#000000"
     borderopacity="0.25"
     inkscape:showpageshadow="2"
     inkscape:pageopacity="0.0"
     inkscape:pagecheckerboard="0"
     inkscape:deskcolor="#d1d1d1"
     inkscape:zoom="2.4134615"
     inkscape:cx="41.019921"
     inkscape:cy="27.346614"
     inkscape:window-width="1920"
     inkscape:window-height="1052"
     inkscape:window-x="0"
     inkscape:window-y="0"
     inkscape:window-maximized="1"
     inkscape:current-layer="g1">
    <inkscape:page
       x="0"
       y="0"
       inkscape:label="15"
       id="page1"
       width="234.49648"
       height="199.99998"
       margin="0"
       bleed="0" />
  </sodipodi:namedview>
  <g
     id="g1"
     inkscape:groupmode="layer"
     inkscape:label="15"
     transform="translate(-327.39453,-133.44865)">
    <path
       id="path88"
       d="m 465.74609,331.60938 c 0,-0.21875 0.0664,-0.39063 0.20313,-0.51563 0.14453,-0.13281 0.33203,-0.20312 0.5625,-0.20312 0.23828,0 0.42578,0.0703 0.5625,0.20312 0.13281,0.125 0.20312,0.29688 0.20312,0.51563 0,0.21875 -0.0703,0.39843 -0.20312,0.53125 -0.13672,0.13281 -0.32422,0.20312 -0.5625,0.20312 -0.23047,0 -0.41797,-0.0703 -0.5625,-0.20312 -0.13672,-0.13282 -0.20313,-0.3125 -0.20313,-0.53125 z m 2.5625,0 c 0,-0.21875 0.0664,-0.39063 0.20313,-0.51563 0.14453,-0.13281 0.33203,-0.20312 0.5625,-0.20312 0.23828,0 0.42578,0.0703 0.5625,0.20312 0.13281,0.125 0.20312,0.29688 0.20312,0.51563 0,0.21875 -0.0703,0.39843 -0.20312,0.53125 -0.13672,0.13281 -0.32422,0.20312 -0.5625,0.20312 -0.23047,0 -0.41797,-0.0703 -0.5625,-0.20312 -0.13672,-0.13282 -0.20313,-0.3125 -0.20313,-0.53125 z m 2.57813,0 c 0,-0.21875 0.0664,-0.39063 0.20312,-0.51563 0.14453,-0.13281 0.33203,-0.20312 0.5625,-0.20312 0.23828,0 0.42578,0.0703 0.5625,0.20312 0.13281,0.125 0.20313,0.29688 0.20313,0.51563 0,0.21875 -0.0703,0.39843 -0.20313,0.53125 -0.13672,0.13281 -0.32422,0.20312 -0.5625,0.20312 -0.23047,0 -0.41797,-0.0703 -0.5625,-0.20312 -0.13672,-0.13282 -0.20312,-0.3125 -0.20312,-0.53125 z m 0,0"
       style="fill:#000040;fill-opacity:1;fill-rule:nonzero;stroke:none;stroke-width:0.865987"
       aria-label="…" />
    <path
       id="path89"
       d="m 488.20147,289.71213 h -38.27078 c -1.90599,0 -3.45105,1.54505 -3.45105,3.45104 v 6.23515 c 0,1.90598 1.54506,3.45104 3.45105,3.45104 h 38.27078 c 1.90599,0 3.45105,-1.54506 3.45105,-3.45104 v -6.23515 c 0,-1.90599 -1.54506,-3.45104 -3.45105,-3.45104 z"
       style="fill:none;stroke:#000040;stroke-width:0.345096;stroke-linecap:butt;stroke-linejoin:miter;stroke-miterlimit:10;stroke-dasharray:none;stroke-opacity:1" />
    <path
       id="path90"
       d="m 454.47266,298.69531 c -0.28125,0.1875 -0.71875,0.29687 -1.26562,0.29687 -1.25,0 -2.21875,-0.90625 -2.21875,-2.71875 0,-2.01562 1.0625,-2.71875 2.09375,-2.71875 0.5625,0 1.01562,0.0781 1.29687,0.21875 l 0.1875,-0.6875 c -0.32812,-0.14062 -0.78125,-0.23437 -1.53125,-0.23437 -1.40625,0 -2.875,0.95312 -2.875,3.42187 0,2.375 1.28125,3.42188 2.85938,3.42188 0.65625,0 1.26562,-0.0937 1.64062,-0.39063 z m 0.6875,-1.46875 c 0,1.48437 0.64063,2.46875 2.0625,2.46875 1.32813,0 2.07813,-0.89063 2.07813,-2.46875 0,-1.5 -0.65625,-2.48438 -2.07813,-2.48438 -1.32812,0 -2.0625,0.89063 -2.0625,2.48438 z m 0.78125,0 c 0,-1.23438 0.4375,-1.8125 1.28125,-1.8125 0.9375,0 1.28125,0.82812 1.28125,1.8125 0,1.21875 -0.42187,1.8125 -1.28125,1.8125 -0.9375,0 -1.28125,-0.85938 -1.28125,-1.8125 z m 8.0625,2.35937 v -3.15625 c 0.15625,-0.65625 0.5,-1.01562 1.125,-1.01562 0.75,0 0.89063,0.42187 0.89063,1.32812 v 2.84375 h 0.76562 v -2.82812 c 0,-1.59375 -0.42187,-2.01563 -1.46875,-2.01563 -0.64062,0 -1.17187,0.29688 -1.46875,0.78125 -0.20312,-0.5625 -0.59375,-0.78125 -1.1875,-0.78125 -0.71875,0 -1.125,0.28125 -1.46875,0.6875 h -0.0312 l -0.15625,-0.5625 h -0.51563 v 4.71875 h 0.75001 v -3.25 c 0.15625,-0.51562 0.54687,-0.92187 1.125,-0.92187 0.75,0 0.89062,0.5 0.89062,1.5 v 2.67187 z m 7.67188,0 v -3.15625 c 0.15625,-0.65625 0.5,-1.01562 1.125,-1.01562 0.75,0 0.89062,0.42187 0.89062,1.32812 v 2.84375 h 0.76563 v -2.82812 c 0,-1.59375 -0.42188,-2.01563 -1.46875,-2.01563 -0.64063,0 -1.17188,0.29688 -1.46875,0.78125 -0.20313,-0.5625 -0.59375,-0.78125 -1.1875,-0.78125 -0.71875,0 -1.125,0.28125 -1.46875,0.6875 h -0.0313 l -0.15625,-0.5625 h -0.51562 v 4.71875 h 0.75 v -3.25 c 0.15625,-0.51562 0.54688,-0.92187 1.125,-0.92187 0.75,0 0.89063,0.5 0.89063,1.5 v 2.67187 z m 4.3125,0 h 0.75 v -4.71875 h -0.75 z m -0.15625,-6.15625 c 0,0.28125 0.20312,0.5 0.51562,0.5 0.29688,0 0.54688,-0.21875 0.54688,-0.5 0,-0.29687 -0.25,-0.53125 -0.54688,-0.53125 -0.3125,0 -0.51562,0.23438 -0.51562,0.53125 z m 1.90625,2.09375 h 0.73437 v 2.76563 c 0,1 0.28125,1.40625 1.04688,1.40625 0.46875,0 0.875,-0.10938 1.20312,-0.26563 l -0.15625,-0.57812 c -0.28125,0.125 -0.48437,0.1875 -0.79687,0.1875 -0.39063,0 -0.54688,-0.25 -0.54688,-0.90625 v -2.60938 h 1.29688 v -0.65625 h -1.29688 v -1.15625 l -0.75,0.21875 v 0.9375 h -0.73437 z m 6.62109,4.0625 h 3.35937 v -0.70312 h -1.29687 v -6.03125 h -0.34375 l -2.07812,1.60937 0.35937,0.48438 1.04688,-0.75 0.37499,-0.4375 -0.0937,0.54687 v 4.57813 h -1.32812 z m 0,0"
       style="fill:#000040;fill-opacity:1;fill-rule:nonzero;stroke:none;stroke-width:0.865987"
       aria-label="Commit1" />
    <path
       id="path91"
       d="m 469.06608,303.02192 v 23.71971"
       style="fill:none;stroke:#000040;stroke-width:1.03531;stroke-linecap:butt;stroke-linejoin:miter;stroke-miterlimit:10;stroke-dasharray:none;stroke-opacity:1" />
    <path
       id="path92"
       d="m 471.27474,325.08514 c -0.82826,0.13804 -2.07064,1.65649 -2.20866,2.0706 -0.13802,-0.41411 -1.3804,-1.93256 -2.20866,-2.0706"
       style="fill:none;stroke:#000040;stroke-width:0.82823;stroke-linecap:round;stroke-linejoin:round;stroke-miterlimit:10;stroke-dasharray:none;stroke-opacity:1" />
    <path
       id="path93"
       d="m 418.13553,251.68181 h -38.27078 c -1.90599,0 -3.45105,1.54506 -3.45105,3.45105 v 6.23515 c 0,1.90599 1.54506,3.45105 3.45105,3.45105 h 38.27078 c 1.90599,0 3.45105,-1.54506 3.45105,-3.45105 v -6.23515 c 0,-1.90599 -1.54506,-3.45105 -3.45105,-3.45105 z"
       style="fill:none;stroke:#000040;stroke-width:0.345096;stroke-linecap:butt;stroke-linejoin:miter;stroke-miterlimit:10;stroke-dasharray:none;stroke-opacity:1" />
    <path
       id="path94"
       d="m 384.40625,260.66797 c -0.28125,0.1875 -0.71875,0.29688 -1.26562,0.29688 -1.25,0 -2.21875,-0.90625 -2.21875,-2.71875 0,-2.01563 1.0625,-2.71875 2.09375,-2.71875 0.5625,0 1.01562,0.0781 1.29687,0.21875 l 0.1875,-0.6875 c -0.32812,-0.14063 -0.78125,-0.23438 -1.53125,-0.23438 -1.40625,0 -2.875,0.95313 -2.875,3.42188 0,2.375 1.28125,3.42187 2.85938,3.42187 0.65625,0 1.26562,-0.0937 1.64062,-0.39062 z m 0.6875,-1.46875 c 0,1.48438 0.64063,2.46875 2.0625,2.46875 1.32812,0 2.07813,-0.89062 2.07813,-2.46875 0,-1.5 -0.65626,-2.48437 -2.07813,-2.48437 -1.32812,0 -2.0625,0.89062 -2.0625,2.48437 z m 0.78125,0 c 0,-1.23437 0.4375,-1.8125 1.28125,-1.8125 0.9375,0 1.28125,0.82813 1.28125,1.8125 0,1.21875 -0.42188,1.8125 -1.28125,1.8125 -0.9375,0 -1.28125,-0.85937 -1.28125,-1.8125 z m 8.0625,2.35938 v -3.15625 c 0.15625,-0.65625 0.5,-1.01563 1.125,-1.01563 0.75,0 0.89063,0.42188 0.89063,1.32813 v 2.84375 h 0.76562 v -2.82813 c 0,-1.59375 -0.42187,-2.01562 -1.46875,-2.01562 -0.64062,0 -1.17188,0.29687 -1.46875,0.78125 -0.20313,-0.5625 -0.59375,-0.78125 -1.1875,-0.78125 -0.71875,0 -1.125,0.28125 -1.46875,0.6875 h -0.0312 l -0.15625,-0.5625 h -0.51562 v 4.71875 h 0.75 v -3.25 c 0.15625,-0.51563 0.54687,-0.92188 1.12499,-0.92188 0.75,0 0.89063,0.5 0.89063,1.5 v 2.67188 z m 7.67188,0 v -3.15625 c 0.15625,-0.65625 0.5,-1.01563 1.12499,-1.01563 0.75,0 0.89063,0.42188 0.89063,1.32813 v 2.84375 h 0.76562 v -2.82813 c 0,-1.59375 -0.42187,-2.01562 -1.46875,-2.01562 -0.64062,0 -1.17187,0.29687 -1.46874,0.78125 -0.20313,-0.5625 -0.59375,-0.78125 -1.1875,-0.78125 -0.71875,0 -1.12501,0.28125 -1.46876,0.6875 h -0.0312 l -0.15625,-0.5625 h -0.51562 v 4.71875 h 0.75 v -3.25 c 0.15625,-0.51563 0.54687,-0.92188 1.125,-0.92188 0.75,0 0.89062,0.5 0.89062,1.5 v 2.67188 z m 4.3125,0 h 0.75 v -4.71875 h -0.75 z m -0.15625,-6.15625 c 0,0.28125 0.20312,0.5 0.51562,0.5 0.29688,0 0.54688,-0.21875 0.54688,-0.5 0,-0.29688 -0.25,-0.53125 -0.54688,-0.53125 -0.3125,0 -0.51562,0.23437 -0.51562,0.53125 z m 1.90625,2.09375 h 0.73437 v 2.76562 c 0,1 0.28125,1.40625 1.04687,1.40625 0.46876,0 0.87501,-0.10937 1.20313,-0.26562 L 410.5,260.82422 c -0.28125,0.125 -0.48437,0.1875 -0.79688,0.1875 -0.39062,0 -0.54687,-0.25 -0.54687,-0.90625 v -2.60937 h 1.29688 v -0.65625 h -1.29688 v -1.15625 l -0.75,0.21875 v 0.9375 h -0.73437 z m 9.82421,-1.04688 c 0,-0.95312 -0.60937,-1.625 -1.6875,-1.625 -0.70312,0 -1.32812,0.23438 -1.76562,0.60938 l 0.3125,0.53125 c 0.32812,-0.25 0.79687,-0.46875 1.28125,-0.46875 0.71875,0 1.07812,0.45312 1.07812,1.07812 0,1.59375 -2.01562,3.84375 -2.84375,4.70313 v 0.28125 h 3.75 v -0.70313 h -2.0625 l -0.59375,0.10938 v -0.0469 l 0.45313,-0.40625 c 0.98437,-1.20312 2.07812,-2.75 2.07812,-4.0625 z m 0,0"
       style="fill:#000040;fill-opacity:1;fill-rule:nonzero;stroke:none;stroke-width:0.865987"
       aria-label="Commit2" />
    <path
       id="path95"
       d="m 411.42063,264.99161 44.50426,24.15292"
       style="fill:none;stroke:#000040;stroke-width:1.03531;stroke-linecap:butt;stroke-linejoin:miter;stroke-miterlimit:10;stroke-dasharray:none;stroke-opacity:1" />
    <path
       id="path96"
       d="m 455.52249,286.41334 c -0.27373,0.79377 0.46821,2.60989 0.76633,2.92871 -0.42978,-0.0762 -2.35685,0.29142 -2.87322,0.95351"
       style="fill:none;stroke:#000040;stroke-width:0.828182;stroke-linecap:round;stroke-linejoin:round;stroke-miterlimit:10;stroke-dasharray:none;stroke-opacity:1" />
    <path
       id="path97"
       d="m 418.13553,213.6515 h -38.27078 c -1.90599,0 -3.45105,1.54507 -3.45105,3.45105 v 6.23514 c 0,1.906 1.54506,3.45106 3.45105,3.45106 h 38.27078 c 1.90599,0 3.45105,-1.54506 3.45105,-3.45106 v -6.23514 c 0,-1.90598 -1.54506,-3.45105 -3.45105,-3.45105 z"
       style="fill:none;stroke:#000040;stroke-width:0.345096;stroke-linecap:butt;stroke-linejoin:miter;stroke-miterlimit:10;stroke-dasharray:none;stroke-opacity:1" />
    <path
       id="path98"
       d="m 384.40625,222.63672 c -0.28125,0.1875 -0.71875,0.29688 -1.26562,0.29688 -1.25,0 -2.21875,-0.90625 -2.21875,-2.71875 0,-2.01563 1.0625,-2.71875 2.09375,-2.71875 0.5625,0 1.01562,0.0781 1.29687,0.21875 l 0.1875,-0.6875 c -0.32812,-0.14063 -0.78125,-0.23438 -1.53125,-0.23438 -1.40625,0 -2.875,0.95313 -2.875,3.42188 0,2.375 1.28125,3.42187 2.85938,3.42187 0.65625,0 1.26562,-0.0937 1.64062,-0.39062 z m 0.6875,-1.46875 c 0,1.48438 0.64063,2.46875 2.0625,2.46875 1.32812,0 2.07813,-0.89062 2.07813,-2.46875 0,-1.5 -0.65626,-2.48437 -2.07813,-2.48437 -1.32812,0 -2.0625,0.89062 -2.0625,2.48437 z m 0.78125,0 c 0,-1.23437 0.4375,-1.8125 1.28125,-1.8125 0.9375,0 1.28125,0.82813 1.28125,1.8125 0,1.21875 -0.42188,1.8125 -1.28125,1.8125 -0.9375,0 -1.28125,-0.85937 -1.28125,-1.8125 z m 8.0625,2.35938 v -3.15625 c 0.15625,-0.65625 0.5,-1.01563 1.125,-1.01563 0.75,0 0.89063,0.42188 0.89063,1.32813 v 2.84375 h 0.76562 v -2.82813 c 0,-1.59375 -0.42187,-2.01562 -1.46875,-2.01562 -0.64062,0 -1.17188,0.29687 -1.46875,0.78125 -0.20313,-0.5625 -0.59375,-0.78125 -1.1875,-0.78125 -0.71875,0 -1.125,0.28125 -1.46875,0.6875 h -0.0312 l -0.15625,-0.5625 h -0.51562 v 4.71875 h 0.75 v -3.25 c 0.15625,-0.51563 0.54687,-0.92188 1.12499,-0.92188 0.75,0 0.89063,0.5 0.89063,1.5 v 2.67188 z m 7.67188,0 v -3.15625 c 0.15625,-0.65625 0.5,-1.01563 1.12499,-1.01563 0.75,0 0.89063,0.42188 0.89063,1.32813 v 2.84375 h 0.76562 v -2.82813 c 0,-1.59375 -0.42187,-2.01562 -1.46875,-2.01562 -0.64062,0 -1.17187,0.29687 -1.46874,0.78125 -0.20313,-0.5625 -0.59375,-0.78125 -1.1875,-0.78125 -0.71875,0 -1.12501,0.28125 -1.46876,0.6875 h -0.0312 l -0.15625,-0.5625 h -0.51562 v 4.71875 h 0.75 v -3.25 c 0.15625,-0.51563 0.54688,-0.92188 1.125,-0.92188 0.75,0 0.89063,0.5 0.89063,1.5 v 2.67188 z m 4.3125,0 h 0.75 v -4.71875 h -0.75 z m -0.15625,-6.15625 c 0,0.28125 0.20312,0.5 0.51562,0.5 0.29688,0 0.54688,-0.21875 0.54688,-0.5 0,-0.29688 -0.25,-0.53125 -0.54688,-0.53125 -0.3125,0 -0.51562,0.23437 -0.51562,0.53125 z m 1.90625,2.09375 h 0.73437 v 2.76562 c 0,1 0.28125,1.40625 1.04687,1.40625 0.46876,0 0.87501,-0.10937 1.20313,-0.26562 L 410.5,222.79297 c -0.28125,0.125 -0.48437,0.1875 -0.79688,0.1875 -0.39062,0 -0.54687,-0.25 -0.54687,-0.90625 v -2.60937 h 1.29688 v -0.65625 h -1.29688 v -1.15625 l -0.75,0.21875 v 0.9375 h -0.73437 z m 7.82421,3.51562 c -0.5,0 -0.89062,-0.10937 -1.1875,-0.25 l -0.20312,0.67188 c 0.34375,0.14062 0.8125,0.23437 1.35937,0.23437 1.25,0 2.28125,-0.75 2.28125,-2.125 0,-1.125 -0.76562,-1.82812 -1.76562,-1.84375 l -0.32813,0.0625 v -0.0156 l 0.34375,-0.26563 1.5,-2.26562 v -0.26563 h -3.375 v 0.6875 h 1.875 l 0.60938,-0.0937 -0.4375,0.42188 -1.35938,2.09375 v 0.28125 h 0.70313 c 0.90625,0 1.46875,0.42187 1.46875,1.29687 0,0.8125 -0.625,1.375 -1.48438,1.375 z m 0,0"
       style="fill:#000040;fill-opacity:1;fill-rule:nonzero;stroke:none;stroke-width:0.865987"
       aria-label="Commit3" />
    <path
       id="path99"
       d="m 399.00014,226.96131 v 23.7197"
       style="fill:none;stroke:#000040;stroke-width:1.03531;stroke-linecap:butt;stroke-linejoin:miter;stroke-miterlimit:10;stroke-dasharray:none;stroke-opacity:1" />
    <path
       id="path100"
       d="m 401.2088,249.02452 c -0.82826,0.13804 -2.07064,1.65649 -2.20866,2.0706 -0.13802,-0.41411 -1.3804,-1.93256 -2.20866,-2.0706"
       style="fill:none;stroke:#000040;stroke-width:0.82823;stroke-linecap:round;stroke-linejoin:round;stroke-miterlimit:10;stroke-dasharray:none;stroke-opacity:1" />
    <path
       id="path101"
       d="m 327.39453,221.10938 c 0,1.48437 0.64062,2.46875 2.0625,2.46875 1.32812,0 2.07812,-0.89063 2.07812,-2.46875 0,-1.5 -0.65625,-2.48438 -2.07812,-2.48438 -1.32813,0 -2.0625,0.89063 -2.0625,2.48438 z m 0.78125,0 c 0,-1.23438 0.4375,-1.8125 1.28125,-1.8125 0.9375,0 1.28125,0.82812 1.28125,1.8125 0,1.21875 -0.42188,1.8125 -1.28125,1.8125 -0.9375,0 -1.28125,-0.85938 -1.28125,-1.8125 z m 3.92187,-1.70313 h 0.73438 v 2.76563 c 0,1 0.28125,1.40625 1.04687,1.40625 0.46875,0 0.875,-0.10938 1.20313,-0.26563 l -0.15625,-0.57812 c -0.28125,0.125 -0.48438,0.1875 -0.79688,0.1875 -0.39062,0 -0.54687,-0.25 -0.54687,-0.90625 v -2.60938 h 1.29687 V 218.75 h -1.29687 v -1.15625 l -0.75,0.21875 v 0.9375 h -0.73438 z m 7.60938,4.0625 v -2.85937 c 0,-1.5625 -0.48438,-1.98438 -1.54688,-1.98438 -0.67187,0 -1.10937,0.26563 -1.45312,0.64063 h -0.0313 v -2.40625 h -0.75 v 6.60937 h 0.75001 v -3.14062 c 0.125,-0.60938 0.6875,-1.03125 1.26562,-1.03125 0.82813,0 1.01563,0.5 1.01563,1.48437 v 2.6875 z m 4.54297,-0.92187 c -0.21875,0.1875 -0.70313,0.375 -1.125,0.375 -1.10938,0 -1.51563,-0.64063 -1.51563,-1.73438 h 3.03125 c 0.0312,-0.26562 0.0625,-0.48437 0.0625,-0.70312 0,-1.57813 -0.9375,-1.85938 -1.79688,-1.85938 -1.32812,0 -2.07812,0.89063 -2.07812,2.48438 0,1.5 0.64062,2.46875 2.07812,2.46875 0.64063,0 1.25,-0.1875 1.625,-0.48438 z m -1.34375,-3.25 c 0.67187,0 1.0625,0.32812 1.0625,1.28125 h -2.35938 c 0.0937,-0.92188 0.5625,-1.28125 1.29688,-1.28125 z m 5.3789,-0.54688 c -0.23437,-0.0781 -0.4375,-0.10937 -0.625,-0.10937 -0.5,0 -0.82812,0.25 -1.0625,0.67187 h -0.0312 L 346.4102,218.75 h -0.51563 v 4.71875 h 0.75 v -3.3125 c 0.0781,-0.45312 0.39063,-0.78125 0.9375,-0.78125 0.15625,0 0.34375,0.0312 0.53125,0.0937 z m 0,0"
       style="fill:#000040;fill-opacity:1;fill-rule:nonzero;stroke:none;stroke-width:0.865987"
       aria-label="other" />
    <path
       id="path102"
       d="M 351.69319,220.22012 H 375.4129"
       style="fill:none;stroke:#000040;stroke-width:1.03531;stroke-linecap:butt;stroke-linejoin:miter;stroke-miterlimit:10;stroke-dasharray:none;stroke-opacity:1" />
    <path
       id="path103"
       d="m 373.75642,218.01146 c 0.13804,0.82826 1.65649,2.07064 2.0706,2.20866 -0.41411,0.13802 -1.93256,1.3804 -2.0706,2.20866"
       style="fill:none;stroke:#000040;stroke-width:0.82823;stroke-linecap:round;stroke-linejoin:round;stroke-miterlimit:10;stroke-dasharray:none;stroke-opacity:1" />
    <path
       id="path104"
       d="m 558.26741,251.68181 h -38.27078 c -1.90599,0 -3.45105,1.54506 -3.45105,3.45105 v 6.23515 c 0,1.90599 1.54506,3.45105 3.45105,3.45105 h 38.27078 c 1.90599,0 3.45105,-1.54506 3.45105,-3.45105 v -6.23515 c 0,-1.90599 -1.54506,-3.45105 -3.45105,-3.45105 z"
       style="fill:none;stroke:#000040;stroke-width:0.345096;stroke-linecap:butt;stroke-linejoin:miter;stroke-miterlimit:10;stroke-dasharray:none;stroke-opacity:1" />
    <path
       id="path105"
       d="m 524.53906,260.66797 c -0.28125,0.1875 -0.71875,0.29688 -1.26562,0.29688 -1.25,0 -2.21875,-0.90625 -2.21875,-2.71875 0,-2.01563 1.0625,-2.71875 2.09375,-2.71875 0.5625,0 1.01562,0.0781 1.29687,0.21875 l 0.1875,-0.6875 c -0.32812,-0.14063 -0.78125,-0.23438 -1.53125,-0.23438 -1.40625,0 -2.875,0.95313 -2.875,3.42188 0,2.375 1.28125,3.42187 2.85938,3.42187 0.65625,0 1.26562,-0.0937 1.64062,-0.39062 z m 0.6875,-1.46875 c 0,1.48438 0.64063,2.46875 2.0625,2.46875 1.32813,0 2.07813,-0.89062 2.07813,-2.46875 0,-1.5 -0.65625,-2.48437 -2.07813,-2.48437 -1.32812,0 -2.0625,0.89062 -2.0625,2.48437 z m 0.78125,0 c 0,-1.23437 0.4375,-1.8125 1.28125,-1.8125 0.9375,0 1.28125,0.82813 1.28125,1.8125 0,1.21875 -0.42187,1.8125 -1.28125,1.8125 -0.9375,0 -1.28125,-0.85937 -1.28125,-1.8125 z m 8.0625,2.35938 v -3.15625 c 0.15625,-0.65625 0.5,-1.01563 1.125,-1.01563 0.75,0 0.89063,0.42188 0.89063,1.32813 v 2.84375 h 0.76562 v -2.82813 c 0,-1.59375 -0.42187,-2.01562 -1.46875,-2.01562 -0.64062,0 -1.17187,0.29687 -1.46875,0.78125 -0.20312,-0.5625 -0.59375,-0.78125 -1.1875,-0.78125 -0.71875,0 -1.125,0.28125 -1.46875,0.6875 h -0.0312 l -0.15625,-0.5625 h -0.51563 v 4.71875 h 0.75 v -3.25 c 0.15625,-0.51563 0.54688,-0.92188 1.125,-0.92188 0.75,0 0.89063,0.5 0.89063,1.5 v 2.67188 z m 7.67188,0 v -3.15625 c 0.15625,-0.65625 0.5,-1.01563 1.125,-1.01563 0.75,0 0.89062,0.42188 0.89062,1.32813 v 2.84375 h 0.76563 v -2.82813 c 0,-1.59375 -0.42188,-2.01562 -1.46875,-2.01562 -0.64063,0 -1.17188,0.29687 -1.46875,0.78125 -0.20313,-0.5625 -0.59375,-0.78125 -1.1875,-0.78125 -0.71875,0 -1.125,0.28125 -1.46875,0.6875 h -0.0313 l -0.15625,-0.5625 h -0.51562 v 4.71875 h 0.75 v -3.25 c 0.15625,-0.51563 0.54687,-0.92188 1.125,-0.92188 0.75,0 0.89062,0.5 0.89062,1.5 v 2.67188 z m 4.3125,0 h 0.75 v -4.71875 h -0.75 z m -0.15625,-6.15625 c 0,0.28125 0.20312,0.5 0.51562,0.5 0.29688,0 0.54688,-0.21875 0.54688,-0.5 0,-0.29688 -0.25,-0.53125 -0.54688,-0.53125 -0.3125,0 -0.51562,0.23437 -0.51562,0.53125 z m 1.90625,2.09375 h 0.73437 v 2.76562 c 0,1 0.28125,1.40625 1.04688,1.40625 0.46875,0 0.875,-0.10937 1.20312,-0.26562 l -0.15625,-0.57813 c -0.28125,0.125 -0.48437,0.1875 -0.79687,0.1875 -0.39063,0 -0.54688,-0.25 -0.54688,-0.90625 v -2.60937 h 1.29688 v -0.65625 h -1.29688 v -1.15625 l -0.75,0.21875 v 0.9375 h -0.73437 z m 10.55859,1.375 h -1.10937 v -4.03125 h -0.51563 l -3.14062,4.375 v 0.3125 h 2.90625 v 2.03125 h 0.75 v -2.03125 h 1.10937 z m -1.85937,0 h -1.375 l -0.67188,0.0625 0.45313,-0.45313 1.32812,-1.8125 0.34375,-0.64062 h 0.0156 l -0.0937,0.78125 z m 0,0"
       style="fill:#000040;fill-opacity:1;fill-rule:nonzero;stroke:none;stroke-width:0.865987"
       aria-label="Commit4" />
    <path
       id="path106"
       d="m 526.71153,264.99161 -44.50426,24.15292"
       style="fill:none;stroke:#000040;stroke-width:1.03531;stroke-linecap:butt;stroke-linejoin:miter;stroke-miterlimit:10;stroke-dasharray:none;stroke-opacity:1" />
    <path
       id="path107"
       d="m 484.71656,290.29556 c -0.51637,-0.66209 -2.44344,-1.02973 -2.87322,-0.95351 0.29812,-0.31882 1.04006,-2.13494 0.76633,-2.92871"
       style="fill:none;stroke:#000040;stroke-width:0.828182;stroke-linecap:round;stroke-linejoin:round;stroke-miterlimit:10;stroke-dasharray:none;stroke-opacity:1" />
    <path
       id="path108"
       d="m 558.26741,213.6515 h -38.27078 c -1.90599,0 -3.45105,1.54507 -3.45105,3.45105 v 6.23514 c 0,1.906 1.54506,3.45106 3.45105,3.45106 h 38.27078 c 1.90599,0 3.45105,-1.54506 3.45105,-3.45106 v -6.23514 c 0,-1.90598 -1.54506,-3.45105 -3.45105,-3.45105 z"
       style="fill:none;stroke:#000040;stroke-width:0.345096;stroke-linecap:butt;stroke-linejoin:miter;stroke-miterlimit:10;stroke-dasharray:none;stroke-opacity:1" />
    <path
       id="path109"
       d="m 524.53906,222.63672 c -0.28125,0.1875 -0.71875,0.29688 -1.26562,0.29688 -1.25,0 -2.21875,-0.90625 -2.21875,-2.71875 0,-2.01563 1.0625,-2.71875 2.09375,-2.71875 0.5625,0 1.01562,0.0781 1.29687,0.21875 l 0.1875,-0.6875 c -0.32812,-0.14063 -0.78125,-0.23438 -1.53125,-0.23438 -1.40625,0 -2.875,0.95313 -2.875,3.42188 0,2.375 1.28125,3.42187 2.85938,3.42187 0.65625,0 1.26562,-0.0937 1.64062,-0.39062 z m 0.6875,-1.46875 c 0,1.48438 0.64063,2.46875 2.0625,2.46875 1.32813,0 2.07813,-0.89062 2.07813,-2.46875 0,-1.5 -0.65625,-2.48437 -2.07813,-2.48437 -1.32812,0 -2.0625,0.89062 -2.0625,2.48437 z m 0.78125,0 c 0,-1.23437 0.4375,-1.8125 1.28125,-1.8125 0.9375,0 1.28125,0.82813 1.28125,1.8125 0,1.21875 -0.42187,1.8125 -1.28125,1.8125 -0.9375,0 -1.28125,-0.85937 -1.28125,-1.8125 z m 8.0625,2.35938 v -3.15625 c 0.15625,-0.65625 0.5,-1.01563 1.125,-1.01563 0.75,0 0.89063,0.42188 0.89063,1.32813 v 2.84375 h 0.76562 v -2.82813 c 0,-1.59375 -0.42187,-2.01562 -1.46875,-2.01562 -0.64062,0 -1.17187,0.29687 -1.46875,0.78125 -0.20312,-0.5625 -0.59375,-0.78125 -1.1875,-0.78125 -0.71875,0 -1.125,0.28125 -1.46875,0.6875 h -0.0312 l -0.15625,-0.5625 h -0.51562 v 4.71875 h 0.75 v -3.25 c 0.15625,-0.51563 0.54687,-0.92188 1.125,-0.92188 0.75,0 0.89062,0.5 0.89062,1.5 v 2.67188 z m 7.67188,0 v -3.15625 c 0.15625,-0.65625 0.5,-1.01563 1.125,-1.01563 0.75,0 0.89062,0.42188 0.89062,1.32813 v 2.84375 h 0.76563 v -2.82813 c 0,-1.59375 -0.42188,-2.01562 -1.46875,-2.01562 -0.64063,0 -1.17188,0.29687 -1.46875,0.78125 -0.20313,-0.5625 -0.59375,-0.78125 -1.1875,-0.78125 -0.71875,0 -1.125,0.28125 -1.46875,0.6875 h -0.0313 l -0.15625,-0.5625 h -0.51562 v 4.71875 h 0.75 v -3.25 c 0.15625,-0.51563 0.54687,-0.92188 1.125,-0.92188 0.75,0 0.89062,0.5 0.89062,1.5 v 2.67188 z m 4.3125,0 h 0.75 v -4.71875 h -0.75 z m -0.15625,-6.15625 c 0,0.28125 0.20312,0.5 0.51562,0.5 0.29688,0 0.54688,-0.21875 0.54688,-0.5 0,-0.29688 -0.25,-0.53125 -0.54688,-0.53125 -0.3125,0 -0.51562,0.23437 -0.51562,0.53125 z m 1.90625,2.09375 h 0.73437 v 2.76562 c 0,1 0.28125,1.40625 1.04688,1.40625 0.46875,0 0.875,-0.10937 1.20312,-0.26562 l -0.15625,-0.57813 c -0.28125,0.125 -0.48437,0.1875 -0.79687,0.1875 -0.39063,0 -0.54688,-0.25 -0.54688,-0.90625 v -2.60937 h 1.29688 v -0.65625 h -1.29688 v -1.15625 l -0.75,0.21875 v 0.9375 h -0.73437 z m 7.62109,3.51562 c -0.5,0 -0.79687,-0.0469 -1.09375,-0.15625 l -0.1875,0.625 c 0.32813,0.125 0.70313,0.1875 1.26563,0.1875 1.25,0 2.26562,-0.76562 2.26562,-2.17187 0,-1.28125 -0.76562,-1.98438 -2,-2 l -0.40625,0.0312 v -1.89063 h 2.23438 v -0.6875 h -2.95313 v 3.26563 l 0.79688,-0.0469 c 0.98437,0 1.57812,0.45313 1.57812,1.375 0,0.95313 -0.625,1.46875 -1.5,1.46875 z m 0,0"
       style="fill:#000040;fill-opacity:1;fill-rule:nonzero;stroke:none;stroke-width:0.865987"
       aria-label="Commit5" />
    <path
       id="path110"
       d="m 539.13202,226.96131 v 23.7197"
       style="fill:none;stroke:#000040;stroke-width:1.03531;stroke-linecap:butt;stroke-linejoin:miter;stroke-miterlimit:10;stroke-dasharray:none;stroke-opacity:1" />
    <path
       id="path111"
       d="m 541.34068,249.02452 c -0.82826,0.13804 -2.07064,1.65649 -2.20866,2.0706 -0.13802,-0.41411 -1.3804,-1.93256 -2.20866,-2.0706"
       style="fill:none;stroke:#000040;stroke-width:0.82823;stroke-linecap:round;stroke-linejoin:round;stroke-miterlimit:10;stroke-dasharray:none;stroke-opacity:1" />
    <path
       id="path112"
       d="m 449.68359,222.55859 v -3.15625 c 0.15625,-0.65625 0.5,-1.01563 1.125,-1.01563 0.75,0 0.89063,0.42188 0.89063,1.32813 v 2.84375 h 0.76562 v -2.82813 c 0,-1.59375 -0.42187,-2.01562 -1.46875,-2.01562 -0.64062,0 -1.17187,0.29687 -1.46875,0.78125 -0.20312,-0.5625 -0.59375,-0.78125 -1.1875,-0.78125 -0.71875,0 -1.125,0.28125 -1.46875,0.6875 h -0.0312 l -0.15625,-0.5625 h -0.51562 v 4.71875 h 0.75 v -3.25 c 0.15625,-0.51563 0.54687,-0.92188 1.125,-0.92188 0.75,0 0.89062,0.5 0.89062,1.5 v 2.67188 z m 4.40625,-4.71875 h -0.875 l 1.90625,4.71875 c -0.20312,0.90625 -0.5625,1.23437 -0.92187,1.23437 -0.0781,0 -0.15625,-0.0156 -0.23438,-0.0469 l -0.125,0.65625 c 0.14063,0.0625 0.32813,0.0937 0.54688,0.0937 0.84375,0 1.21875,-1.1875 1.64062,-2.42188 l 1.39063,-4.23437 h -0.76563 l -0.90625,3.04687 -0.21875,0.92188 h -0.0469 l -0.25,-0.90625 z m 3.98047,2.34375 h 2.28125 v -0.70313 h -2.28125 z m 3.57422,2.09375 c 0.28125,0.1875 0.90625,0.35937 1.59375,0.35937 1.46875,0 2.3125,-0.875 2.3125,-2.51562 0,-1.625 -0.60938,-2.40625 -1.82813,-2.40625 -0.53125,0 -1,0.21875 -1.29687,0.57812 h -0.0312 v -2.34375 h -0.75 z m 1.9375,-3.89063 c 0.85937,0 1.1875,0.73438 1.1875,1.71875 0,1.29688 -0.54688,1.875 -1.40625,1.875 -0.375,0 -0.73438,-0.0625 -0.96875,-0.20312 v -2.39063 c 0.17187,-0.64062 0.5625,-1 1.1875,-1 z m 5.55469,-0.54687 c -0.23438,-0.0781 -0.4375,-0.10938 -0.625,-0.10938 -0.5,0 -0.82813,0.25 -1.0625,0.67188 h -0.0313 l -0.15625,-0.5625 h -0.51562 v 4.71875 h 0.75 v -3.3125 c 0.0781,-0.45313 0.39063,-0.78125 0.9375,-0.78125 0.15625,0 0.34375,0.0312 0.53125,0.0937 z m 0.97656,0.90625 c 0.34375,-0.20313 0.98437,-0.32813 1.39062,-0.32813 0.75,0 0.96875,0.23438 0.96875,0.9375 0,0.15625 0,0.3125 -0.0312,0.51563 -0.17187,-0.0312 -0.34375,-0.0312 -0.51562,-0.0312 -1.375,0 -2.32813,0.34375 -2.32813,1.45312 0,0.82813 0.60938,1.34375 1.40625,1.34375 0.8125,0 1.25,-0.375 1.48438,-0.71875 h 0.0469 l 0.1875,0.65625 h 0.5625 c -0.10937,-0.34375 -0.125,-0.76562 -0.125,-1.23437 0,-0.64063 0.0469,-1.375 0.0469,-2.125 0,-0.67188 -0.1875,-1.45313 -1.5,-1.45313 -0.6875,0 -1.35938,0.14063 -1.82813,0.42188 z m 1.10937,3.21875 c -0.5,0 -0.84375,-0.29688 -0.84375,-0.75 0,-0.625 0.75,-0.79688 1.53125,-0.79688 0.17188,0 0.35938,0.0156 0.53125,0.0156 v 0.79687 c -0.125,0.32813 -0.5,0.73438 -1.21875,0.73438 z m 7.19922,0.59375 v -2.85938 c 0,-1.5625 -0.53125,-1.98437 -1.5625,-1.98437 -0.6875,0 -1.21875,0.29687 -1.51562,0.6875 h -0.0313 l -0.15625,-0.5625 h -0.51562 v 4.71875 h 0.75 v -3.23438 c 0.17188,-0.53125 0.625,-0.9375 1.28125,-0.9375 0.76563,0 1,0.5 1,1.48438 v 2.6875 z m 4.35547,-0.89063 c -0.21875,0.1875 -0.59375,0.34375 -1.04687,0.34375 -1.04688,0 -1.40625,-0.85937 -1.40625,-1.8125 0,-1.21875 0.4375,-1.8125 1.34375,-1.8125 0.39062,0 0.75,0.0937 1.04687,0.26563 l 0.21875,-0.65625 c -0.34375,-0.1875 -0.73437,-0.28125 -1.34375,-0.28125 -1.3125,0 -2.04687,0.89062 -2.04687,2.48437 0,1.48438 0.54687,2.46875 2,2.46875 0.5625,0 1.10937,-0.14062 1.48437,-0.42187 z m 5.07422,0.89063 v -2.85938 c 0,-1.5625 -0.48437,-1.98437 -1.54687,-1.98437 -0.67188,0 -1.10938,0.26562 -1.45313,0.64062 h -0.0312 v -2.40625 h -0.75 v 6.60938 h 0.75 v -3.14063 c 0.125,-0.60937 0.6875,-1.03125 1.26563,-1.03125 0.82812,0 1.01562,0.5 1.01562,1.48438 v 2.6875 z m 0,0"
       style="fill:#000040;fill-opacity:1;fill-rule:nonzero;stroke:none;stroke-width:0.865987"
       aria-label="my-branch" />
    <path
       id="path113"
       d="m 491.82507,220.22012 h 23.71972"
       style="fill:none;stroke:#000040;stroke-width:1.03531;stroke-linecap:butt;stroke-linejoin:miter;stroke-miterlimit:10;stroke-dasharray:none;stroke-opacity:1" />
    <path
       id="path114"
       d="m 513.8883,218.01146 c 0.13804,0.82826 1.65649,2.07064 2.0706,2.20866 -0.41411,0.13802 -1.93256,1.3804 -2.0706,2.20866"
       style="fill:none;stroke:#000040;stroke-width:0.82823;stroke-linecap:round;stroke-linejoin:round;stroke-miterlimit:10;stroke-dasharray:none;stroke-opacity:1" />
    <path
       id="path115"
       d="m 460.17578,184.66797 h 0.78125 v -6.60937 h -0.78125 v 2.875 h -3.17187 v -2.875 h -0.79688 v 6.60937 h 0.79688 v -3.03125 h 3.17187 z m 2.37891,0 h 3.65625 v -0.70312 h -2.85938 v -2.34375 h 2.57813 v -0.70313 h -2.57813 v -2.17187 h 2.8125 v -0.6875 h -3.60937 z m 8.89453,0 h 0.82813 l -2.51563,-6.71875 h -0.35937 l -2.5,6.71875 h 0.76562 l 0.67188,-1.82812 h 2.4375 z m -2.125,-4.51562 0.23438,-1.01563 0.25,1 0.73437,2.01563 h -1.95312 z m 3.82031,4.53125 c 0.26563,0.0312 1.28125,0.0625 1.6875,0.0625 2.29688,0 3.17188,-1.65625 3.17188,-3.4375 0,-1.96875 -0.95313,-3.32813 -3.07813,-3.32813 -0.53125,0 -1.29687,0 -1.78125,0.0781 z m 1.79688,-6.01563 c 1.71875,0 2.23437,1.42188 2.23437,2.64063 0,1.42187 -0.5625,2.75 -2.32812,2.75 -0.14063,0 -0.78125,-0.0312 -0.90625,-0.0469 v -5.29687 c 0.17187,-0.0312 0.67187,-0.0469 1,-0.0469 z m 0,0"
       style="fill:#000040;fill-opacity:1;fill-rule:nonzero;stroke:none;stroke-width:0.865987"
       aria-label="HEAD" />
    <path
       id="path116"
       d="m 466.96881,188.07602 v 23.71972"
       style="fill:none;stroke:#000040;stroke-width:1.03531;stroke-linecap:butt;stroke-linejoin:miter;stroke-miterlimit:10;stroke-dasharray:none;stroke-opacity:1" />
    <path
       id="path117"
       d="m 469.17747,210.13924 c -0.82826,0.13804 -2.07064,1.65649 -2.20866,2.0706 -0.13802,-0.41411 -1.3804,-1.93256 -2.20866,-2.0706"
       style="fill:none;stroke:#000040;stroke-width:0.82823;stroke-linecap:round;stroke-linejoin:round;stroke-miterlimit:10;stroke-dasharray:none;stroke-opacity:1" />
    <path
       id="path118"
       d="m 488.20147,251.68181 h -38.27078 c -1.90599,0 -3.45105,1.54506 -3.45105,3.45105 v 6.23515 c 0,1.90599 1.54506,3.45105 3.45105,3.45105 h 38.27078 c 1.90599,0 3.45105,-1.54506 3.45105,-3.45105 v -6.23515 c 0,-1.90599 -1.54506,-3.45105 -3.45105,-3.45105 z"
       style="fill:none;stroke:#000040;stroke-width:0.345096;stroke-linecap:butt;stroke-linejoin:miter;stroke-miterlimit:10;stroke-dasharray:none;stroke-opacity:0" />
    <path
       id="path119"
       d="m 454.47266,260.66797 c -0.28125,0.1875 -0.71875,0.29688 -1.26562,0.29688 -1.25,0 -2.21875,-0.90625 -2.21875,-2.71875 0,-2.01563 1.0625,-2.71875 2.09375,-2.71875 0.5625,0 1.01562,0.0781 1.29687,0.21875 l 0.1875,-0.6875 c -0.32812,-0.14063 -0.78125,-0.23438 -1.53125,-0.23438 -1.40625,0 -2.875,0.95313 -2.875,3.42188 0,2.375 1.28125,3.42187 2.85938,3.42187 0.65625,0 1.26562,-0.0937 1.64062,-0.39062 z m 0.6875,-1.46875 c 0,1.48438 0.64063,2.46875 2.0625,2.46875 1.32813,0 2.07813,-0.89062 2.07813,-2.46875 0,-1.5 -0.65625,-2.48437 -2.07813,-2.48437 -1.32812,0 -2.0625,0.89062 -2.0625,2.48437 z m 0.78125,0 c 0,-1.23437 0.4375,-1.8125 1.28125,-1.8125 0.9375,0 1.28125,0.82813 1.28125,1.8125 0,1.21875 -0.42187,1.8125 -1.28125,1.8125 -0.9375,0 -1.28125,-0.85937 -1.28125,-1.8125 z m 8.0625,2.35938 v -3.15625 c 0.15625,-0.65625 0.5,-1.01563 1.125,-1.01563 0.75,0 0.89063,0.42188 0.89063,1.32813 v 2.84375 h 0.76562 v -2.82813 c 0,-1.59375 -0.42187,-2.01562 -1.46875,-2.01562 -0.64062,0 -1.17187,0.29687 -1.46875,0.78125 -0.20312,-0.5625 -0.59375,-0.78125 -1.1875,-0.78125 -0.71875,0 -1.125,0.28125 -1.46875,0.6875 h -0.0312 l -0.15625,-0.5625 h -0.51563 v 4.71875 h 0.75 v -3.25 c 0.15625,-0.51563 0.54688,-0.92188 1.125,-0.92188 0.75,0 0.89063,0.5 0.89063,1.5 v 2.67188 z m 7.67188,0 v -3.15625 c 0.15625,-0.65625 0.5,-1.01563 1.125,-1.01563 0.75,0 0.89062,0.42188 0.89062,1.32813 v 2.84375 h 0.76563 v -2.82813 c 0,-1.59375 -0.42188,-2.01562 -1.46875,-2.01562 -0.64063,0 -1.17188,0.29687 -1.46875,0.78125 -0.20313,-0.5625 -0.59375,-0.78125 -1.1875,-0.78125 -0.71875,0 -1.125,0.28125 -1.46875,0.6875 h -0.0313 l -0.15625,-0.5625 h -0.51562 v 4.71875 h 0.75 v -3.25 c 0.15625,-0.51563 0.54688,-0.92188 1.125,-0.92188 0.75,0 0.89063,0.5 0.89063,1.5 v 2.67188 z m 4.3125,0 h 0.75 v -4.71875 h -0.75 z m -0.15625,-6.15625 c 0,0.28125 0.20312,0.5 0.51562,0.5 0.29688,0 0.54688,-0.21875 0.54688,-0.5 0,-0.29688 -0.25,-0.53125 -0.54688,-0.53125 -0.3125,0 -0.51562,0.23437 -0.51562,0.53125 z m 1.90625,2.09375 h 0.73437 v 2.76562 c 0,1 0.28125,1.40625 1.04688,1.40625 0.46875,0 0.875,-0.10937 1.20312,-0.26562 l -0.15625,-0.57813 c -0.28125,0.125 -0.48437,0.1875 -0.79687,0.1875 -0.39063,0 -0.54688,-0.25 -0.54688,-0.90625 v -2.60937 h 1.29688 v -0.65625 h -1.29688 v -1.15625 l -0.75,0.21875 v 0.9375 h -0.73437 z m 9.82421,-1.04688 c 0,-0.95312 -0.60937,-1.625 -1.6875,-1.625 -0.70312,0 -1.32812,0.23438 -1.76562,0.60938 l 0.3125,0.53125 c 0.32813,-0.25 0.79688,-0.46875 1.28125,-0.46875 0.71875,0 1.07812,0.45312 1.07812,1.07812 0,1.59375 -2.01562,3.84375 -2.84374,4.70313 v 0.28125 h 3.74999 v -0.70313 h -2.06249 l -0.59375,0.10938 v -0.0469 l 0.45312,-0.40625 c 0.98437,-1.20312 2.07812,-2.75 2.07812,-4.0625 z m 0,0"
       style="fill:#000040;fill-opacity:0;fill-rule:nonzero;stroke:none;stroke-width:0.865987"
       aria-label="Commit2" />
    <path
       id="path120"
       d="m 469.06608,264.99161 v 23.71971"
       style="fill:none;stroke:#000040;stroke-width:1.03531;stroke-linecap:butt;stroke-linejoin:miter;stroke-miterlimit:10;stroke-dasharray:none;stroke-opacity:0" />
    <path
       id="path121"
       d="m 471.27474,287.05483 c -0.82826,0.13804 -2.07064,1.65649 -2.20866,2.0706 -0.13802,-0.41411 -1.3804,-1.93256 -2.20866,-2.0706"
       style="fill:none;stroke:#000040;stroke-width:0.82823;stroke-linecap:round;stroke-linejoin:round;stroke-miterlimit:10;stroke-dasharray:none;stroke-opacity:0" />
    <path
       id="path122"
       d="m 488.20147,213.6515 h -38.27078 c -1.90599,0 -3.45105,1.54507 -3.45105,3.45105 v 6.23514 c 0,1.906 1.54506,3.45106 3.45105,3.45106 h 38.27078 c 1.90599,0 3.45105,-1.54506 3.45105,-3.45106 v -6.23514 c 0,-1.90598 -1.54506,-3.45105 -3.45105,-3.45105 z"
       style="fill:none;stroke:#000040;stroke-width:0.345096;stroke-linecap:butt;stroke-linejoin:miter;stroke-miterlimit:10;stroke-dasharray:none;stroke-opacity:0" />
    <path
       id="path123"
       d="m 454.47266,222.63672 c -0.28125,0.1875 -0.71875,0.29688 -1.26562,0.29688 -1.25,0 -2.21875,-0.90625 -2.21875,-2.71875 0,-2.01563 1.0625,-2.71875 2.09375,-2.71875 0.5625,0 1.01562,0.0781 1.29687,0.21875 l 0.1875,-0.6875 c -0.32812,-0.14063 -0.78125,-0.23438 -1.53125,-0.23438 -1.40625,0 -2.875,0.95313 -2.875,3.42188 0,2.375 1.28125,3.42187 2.85938,3.42187 0.65625,0 1.26562,-0.0937 1.64062,-0.39062 z m 0.6875,-1.46875 c 0,1.48438 0.64063,2.46875 2.0625,2.46875 1.32813,0 2.07813,-0.89062 2.07813,-2.46875 0,-1.5 -0.65625,-2.48437 -2.07813,-2.48437 -1.32812,0 -2.0625,0.89062 -2.0625,2.48437 z m 0.78125,0 c 0,-1.23437 0.4375,-1.8125 1.28125,-1.8125 0.9375,0 1.28125,0.82813 1.28125,1.8125 0,1.21875 -0.42187,1.8125 -1.28125,1.8125 -0.9375,0 -1.28125,-0.85937 -1.28125,-1.8125 z m 8.0625,2.35938 v -3.15625 c 0.15625,-0.65625 0.5,-1.01563 1.125,-1.01563 0.75,0 0.89063,0.42188 0.89063,1.32813 v 2.84375 h 0.76562 v -2.82813 c 0,-1.59375 -0.42187,-2.01562 -1.46875,-2.01562 -0.64062,0 -1.17187,0.29687 -1.46875,0.78125 -0.20312,-0.5625 -0.59375,-0.78125 -1.1875,-0.78125 -0.71875,0 -1.125,0.28125 -1.46875,0.6875 h -0.0312 l -0.15625,-0.5625 h -0.51562 v 4.71875 h 0.75 v -3.25 c 0.15625,-0.51563 0.54687,-0.92188 1.125,-0.92188 0.75,0 0.89062,0.5 0.89062,1.5 v 2.67188 z m 7.67188,0 v -3.15625 c 0.15625,-0.65625 0.5,-1.01563 1.125,-1.01563 0.75,0 0.89062,0.42188 0.89062,1.32813 v 2.84375 h 0.76563 v -2.82813 c 0,-1.59375 -0.42188,-2.01562 -1.46875,-2.01562 -0.64063,0 -1.17188,0.29687 -1.46875,0.78125 -0.20313,-0.5625 -0.59375,-0.78125 -1.1875,-0.78125 -0.71875,0 -1.125,0.28125 -1.46875,0.6875 h -0.0313 l -0.15625,-0.5625 h -0.51562 v 4.71875 h 0.75 v -3.25 c 0.15625,-0.51563 0.54688,-0.92188 1.125,-0.92188 0.75,0 0.89063,0.5 0.89063,1.5 v 2.67188 z m 4.3125,0 h 0.75 v -4.71875 h -0.75 z m -0.15625,-6.15625 c 0,0.28125 0.20312,0.5 0.51562,0.5 0.29688,0 0.54688,-0.21875 0.54688,-0.5 0,-0.29688 -0.25,-0.53125 -0.54688,-0.53125 -0.3125,0 -0.51562,0.23437 -0.51562,0.53125 z m 1.90625,2.09375 h 0.73437 v 2.76562 c 0,1 0.28125,1.40625 1.04688,1.40625 0.46875,0 0.875,-0.10937 1.20312,-0.26562 l -0.15625,-0.57813 c -0.28125,0.125 -0.48437,0.1875 -0.79687,0.1875 -0.39063,0 -0.54688,-0.25 -0.54688,-0.90625 v -2.60937 h 1.29688 v -0.65625 h -1.29688 v -1.15625 l -0.75,0.21875 v 0.9375 h -0.73437 z m 7.82422,3.51562 c -0.5,0 -0.89063,-0.10937 -1.1875,-0.25 l -0.20313,0.67188 c 0.34375,0.14062 0.8125,0.23437 1.35938,0.23437 1.24999,0 2.28124,-0.75 2.28124,-2.125 0,-1.125 -0.76562,-1.82812 -1.76562,-1.84375 l -0.32813,0.0625 v -0.0156 l 0.34375,-0.26563 1.5,-2.26562 v -0.26563 h -3.37499 v 0.6875 h 1.87499 l 0.60938,-0.0937 -0.4375,0.42188 -1.35937,2.09375 v 0.28125 h 0.70312 c 0.90625,0 1.46875,0.42187 1.46875,1.29687 0,0.8125 -0.625,1.375 -1.48437,1.375 z m 0,0"
       style="fill:#000040;fill-opacity:0;fill-rule:nonzero;stroke:none;stroke-width:0.865987"
       aria-label="Commit3" />
    <path
       id="path124"
       d="m 469.06608,226.96131 v 23.7197"
       style="fill:none;stroke:#000040;stroke-width:1.03531;stroke-linecap:butt;stroke-linejoin:miter;stroke-miterlimit:10;stroke-dasharray:none;stroke-opacity:0" />
    <path
       id="path125"
       d="m 471.27474,249.02452 c -0.82826,0.13804 -2.07064,1.65649 -2.20866,2.0706 -0.13802,-0.41411 -1.3804,-1.93256 -2.20866,-2.0706"
       style="fill:none;stroke:#000040;stroke-width:0.82823;stroke-linecap:round;stroke-linejoin:round;stroke-miterlimit:10;stroke-dasharray:none;stroke-opacity:0" />
    <path
       id="path126"
       d="m 397.46094,221.10938 c 0,1.48437 0.64062,2.46875 2.0625,2.46875 1.32812,0 2.07812,-0.89063 2.07812,-2.46875 0,-1.5 -0.65625,-2.48438 -2.07812,-2.48438 -1.32813,0 -2.0625,0.89063 -2.0625,2.48438 z m 0.78125,0 c 0,-1.23438 0.4375,-1.8125 1.28125,-1.8125 0.9375,0 1.28125,0.82812 1.28125,1.8125 0,1.21875 -0.42188,1.8125 -1.28125,1.8125 -0.9375,0 -1.28125,-0.85938 -1.28125,-1.8125 z m 3.92187,-1.70313 h 0.73438 v 2.76563 c 0,1 0.28125,1.40625 1.04687,1.40625 0.46875,0 0.875,-0.10938 1.20313,-0.26563 l -0.15625,-0.57812 c -0.28125,0.125 -0.48438,0.1875 -0.79688,0.1875 -0.39062,0 -0.54687,-0.25 -0.54687,-0.90625 v -2.60938 h 1.29687 V 218.75 h -1.29687 v -1.15625 l -0.75,0.21875 v 0.9375 h -0.73438 z m 7.60938,4.0625 v -2.85937 c 0,-1.5625 -0.48438,-1.98438 -1.54688,-1.98438 -0.67187,0 -1.10937,0.26563 -1.45312,0.64063 h -0.0313 v -2.40625 h -0.75 v 6.60937 h 0.75 v -3.14062 c 0.125,-0.60938 0.6875,-1.03125 1.26563,-1.03125 0.82812,0 1.01562,0.5 1.01562,1.48437 v 2.6875 z m 4.54297,-0.92187 c -0.21875,0.1875 -0.70313,0.375 -1.125,0.375 -1.10938,0 -1.51563,-0.64063 -1.51563,-1.73438 h 3.03125 c 0.0313,-0.26562 0.0625,-0.48437 0.0625,-0.70312 0,-1.57813 -0.9375,-1.85938 -1.79687,-1.85938 -1.32813,0 -2.07813,0.89063 -2.07813,2.48438 0,1.5 0.64063,2.46875 2.07813,2.46875 0.64062,0 1.24999,-0.1875 1.62499,-0.48438 z m -1.34375,-3.25 c 0.67187,0 1.0625,0.32812 1.0625,1.28125 h -2.35938 c 0.0937,-0.92188 0.5625,-1.28125 1.29688,-1.28125 z m 5.3789,-0.54688 c -0.23437,-0.0781 -0.4375,-0.10937 -0.625,-0.10937 -0.5,0 -0.82812,0.25 -1.0625,0.67187 h -0.0312 l -0.15625,-0.5625 h -0.51563 v 4.71875 h 0.75 v -3.3125 c 0.0781,-0.45312 0.39063,-0.78125 0.9375,-0.78125 0.15625,0 0.34375,0.0312 0.53125,0.0937 z m 0,0"
       style="fill:#000040;fill-opacity:0;fill-rule:nonzero;stroke:none;stroke-width:0.865987"
       aria-label="other" />
    <path
       id="path127"
       d="m 421.75913,220.22012 h 23.71972"
       style="fill:none;stroke:#000040;stroke-width:1.03531;stroke-linecap:butt;stroke-linejoin:miter;stroke-miterlimit:10;stroke-dasharray:none;stroke-opacity:0" />
    <path
       id="path128"
       d="m 443.82236,218.01146 c 0.13804,0.82826 1.65649,2.07064 2.0706,2.20866 -0.41411,0.13802 -1.93256,1.3804 -2.0706,2.20866"
       style="fill:none;stroke:#000040;stroke-width:0.82823;stroke-linecap:round;stroke-linejoin:round;stroke-miterlimit:10;stroke-dasharray:none;stroke-opacity:0" />
    <path
       id="path129"
       d="m 488.20147,175.6212 h -38.27078 c -1.90599,0 -3.45105,1.54505 -3.45105,3.45104 v 6.23516 c 0,1.90598 1.54506,3.45105 3.45105,3.45105 h 38.27078 c 1.90599,0 3.45105,-1.54507 3.45105,-3.45105 v -6.23516 c 0,-1.90599 -1.54506,-3.45104 -3.45105,-3.45104 z"
       style="fill:none;stroke:#000040;stroke-width:0.345096;stroke-linecap:butt;stroke-linejoin:miter;stroke-miterlimit:10;stroke-dasharray:none;stroke-opacity:0" />
    <path
       id="path130"
       d="m 454.47266,184.60547 c -0.28125,0.1875 -0.71875,0.29688 -1.26562,0.29688 -1.25,0 -2.21875,-0.90625 -2.21875,-2.71875 0,-2.01563 1.0625,-2.71875 2.09375,-2.71875 0.5625,0 1.01562,0.0781 1.29687,0.21875 l 0.1875,-0.6875 c -0.32812,-0.14063 -0.78125,-0.23438 -1.53125,-0.23438 -1.40625,0 -2.875,0.95313 -2.875,3.42188 0,2.375 1.28125,3.42187 2.85938,3.42187 0.65625,0 1.26562,-0.0937 1.64062,-0.39062 z m 0.6875,-1.46875 c 0,1.48438 0.64063,2.46875 2.0625,2.46875 1.32813,0 2.07813,-0.89062 2.07813,-2.46875 0,-1.5 -0.65625,-2.48437 -2.07813,-2.48437 -1.32812,0 -2.0625,0.89062 -2.0625,2.48437 z m 0.78125,0 c 0,-1.23437 0.4375,-1.8125 1.28125,-1.8125 0.9375,0 1.28125,0.82813 1.28125,1.8125 0,1.21875 -0.42187,1.8125 -1.28125,1.8125 -0.9375,0 -1.28125,-0.85937 -1.28125,-1.8125 z m 8.0625,2.35938 v -3.15625 c 0.15625,-0.65625 0.5,-1.01563 1.125,-1.01563 0.75,0 0.89063,0.42188 0.89063,1.32813 v 2.84375 h 0.76562 v -2.82813 c 0,-1.59375 -0.42187,-2.01562 -1.46875,-2.01562 -0.64062,0 -1.17187,0.29687 -1.46875,0.78125 -0.20312,-0.5625 -0.59375,-0.78125 -1.1875,-0.78125 -0.71875,0 -1.125,0.28125 -1.46875,0.6875 h -0.0312 l -0.15625,-0.5625 h -0.51562 v 4.71875 h 0.75 v -3.25 c 0.15625,-0.51563 0.54687,-0.92188 1.125,-0.92188 0.75,0 0.89062,0.5 0.89062,1.5 v 2.67188 z m 7.67188,0 v -3.15625 c 0.15625,-0.65625 0.5,-1.01563 1.125,-1.01563 0.75,0 0.89062,0.42188 0.89062,1.32813 v 2.84375 h 0.76563 v -2.82813 c 0,-1.59375 -0.42188,-2.01562 -1.46875,-2.01562 -0.64063,0 -1.17188,0.29687 -1.46875,0.78125 -0.20313,-0.5625 -0.59375,-0.78125 -1.1875,-0.78125 -0.71875,0 -1.125,0.28125 -1.46875,0.6875 h -0.0313 l -0.15625,-0.5625 h -0.51562 v 4.71875 h 0.75 v -3.25 c 0.15625,-0.51563 0.54688,-0.92188 1.125,-0.92188 0.75,0 0.89063,0.5 0.89063,1.5 v 2.67188 z m 4.3125,0 h 0.75 v -4.71875 h -0.75 z m -0.15625,-6.15625 c 0,0.28125 0.20312,0.5 0.51562,0.5 0.29688,0 0.54688,-0.21875 0.54688,-0.5 0,-0.29688 -0.25,-0.53125 -0.54688,-0.53125 -0.3125,0 -0.51562,0.23437 -0.51562,0.53125 z m 1.90625,2.09375 h 0.73437 v 2.76562 c 0,1 0.28125,1.40625 1.04688,1.40625 0.46875,0 0.875,-0.10937 1.20312,-0.26562 l -0.15625,-0.57813 c -0.28125,0.125 -0.48437,0.1875 -0.79687,0.1875 -0.39063,0 -0.54688,-0.25 -0.54688,-0.90625 v -2.60937 h 1.29688 v -0.65625 h -1.29688 v -1.15625 l -0.75,0.21875 v 0.9375 h -0.73437 z m 10.55859,1.375 h -1.10938 v -4.03125 h -0.51562 l -3.14062,4.375 v 0.3125 h 2.90624 v 2.03125 h 0.75 v -2.03125 h 1.10938 z m -1.85938,0 h -1.37499 l -0.67188,0.0625 0.45313,-0.45313 1.32812,-1.8125 0.34375,-0.64062 h 0.0156 l -0.0937,0.78125 z m 0,0"
       style="fill:#000040;fill-opacity:0;fill-rule:nonzero;stroke:none;stroke-width:0.865987"
       aria-label="Commit4" />
    <path
       id="path131"
       d="m 469.06608,188.931 v 23.71971"
       style="fill:none;stroke:#000040;stroke-width:1.03531;stroke-linecap:butt;stroke-linejoin:miter;stroke-miterlimit:10;stroke-dasharray:none;stroke-opacity:0" />
    <path
       id="path132"
       d="m 471.27474,210.99422 c -0.82826,0.13804 -2.07064,1.65649 -2.20866,2.0706 -0.13802,-0.41411 -1.3804,-1.93256 -2.20866,-2.0706"
       style="fill:none;stroke:#000040;stroke-width:0.82823;stroke-linecap:round;stroke-linejoin:round;stroke-miterlimit:10;stroke-dasharray:none;stroke-opacity:0" />
  </g>
</svg>
