<?xml version="1.0" encoding="UTF-8" standalone="no"?>
<!-- Created with Inkscape (http://www.inkscape.org/) -->

<svg
   version="1.1"
   id="svg1"
   width="234.49648"
   height="230.45312"
   viewBox="0 0 234.49647 230.45312"
   sodipodi:docname="rebase.svg"
   inkscape:version="1.4.2 (ebf0e940d0, 2025-05-08)"
   xmlns:inkscape="http://www.inkscape.org/namespaces/inkscape"
   xmlns:sodipodi="http://sodipodi.sourceforge.net/DTD/sodipodi-0.dtd"
   xmlns="http://www.w3.org/2000/svg"
   xmlns:svg="http://www.w3.org/2000/svg">
  <defs
     id="defs1">
    <clipPath
       clipPathUnits="userSpaceOnUse"
       id="clipPath2">
      <path
         d="M 0,0 H 200 V 200 H 0 Z"
         transform="matrix(0.99999999,0,0,-0.99999999,-1.1759172e-5,200)"
         id="path2" />
    </clipPath>
    <clipPath
       clipPathUnits="userSpaceOnUse"
       id="clipPath3">
      <path
         d="M 0,0 H 200 V 200 H 0 Z"
         transform="matrix(0.99999999,0,0,-0.99999999,-1.1759172e-5,200)"
         id="path3" />
    </clipPath>
    <clipPath
       clipPathUnits="userSpaceOnUse"
       id="clipPath4">
      <path
         d="M 0,0 H 200 V 200 H 0 Z"
         transform="matrix(0.99999999,0,0,-0.99999999,-1.1759172e-5,200)"
         id="path4" />
    </clipPath>
    <clipPath
       clipPathUnits="userSpaceOnUse"
       id="clipPath5">
      <path
         d="M 0,0 H 200 V 200 H 0 Z"
         transform="matrix(0.99999999,0,0,-0.99999999,-1.1759172e-5,200)"
         id="path5" />
    </clipPath>
    <clipPath
       clipPathUnits="userSpaceOnUse"
       id="clipPath6">
      <path
         d="M 0,0 H 200 V 200 H 0 Z"
         transform="matrix(0.99999999,0,0,-0.99999999,-1.1759172e-5,200)"
         id="path6" />
    </clipPath>
    <clipPath
       clipPathUnits="userSpaceOnUse"
       id="clipPath7">
      <path
         d="M 0,0 H 200 V 200 H 0 Z"
         transform="matrix(0.99999999,0,0,-0.99999999,-1.1759172e-5,200)"
         id="path7" />
    </clipPath>
    <clipPath
       clipPathUnits="userSpaceOnUse"
       id="clipPath8">
      <path
         d="M 0,0 H 200 V 200 H 0 Z"
         transform="matrix(0.99999999,0,0,-0.99999999,-1.1759172e-5,200)"
         id="path8" />
    </clipPath>
    <clipPath
       clipPathUnits="userSpaceOnUse"
       id="clipPath9">
      <path
         d="M 0,0 H 200 V 200 H 0 Z"
         transform="matrix(0.99999999,0,0,-0.99999999,-1.1759172e-5,200)"
         id="path9" />
    </clipPath>
    <clipPath
       clipPathUnits="userSpaceOnUse"
       id="clipPath10">
      <path
         d="M 0,0 H 200 V 200 H 0 Z"
         transform="matrix(0.99999999,0,0,-0.99999999,-1.1759172e-5,200)"
         id="path10" />
    </clipPath>
    <clipPath
       clipPathUnits="userSpaceOnUse"
       id="clipPath11">
      <path
         d="M 0,0 H 200 V 200 H 0 Z"
         transform="matrix(0.99999999,0,0,-0.99999999,-1.1759172e-5,200)"
         id="path11" />
    </clipPath>
    <clipPath
       clipPathUnits="userSpaceOnUse"
       id="clipPath12">
      <path
         d="M 0,0 H 200 V 200 H 0 Z"
         transform="matrix(0.99999999,0,0,-0.99999999,-1.1759172e-5,200)"
         id="path12" />
    </clipPath>
    <clipPath
       clipPathUnits="userSpaceOnUse"
       id="clipPath13">
      <path
         d="M 0,0 H 200 V 200 H 0 Z"
         transform="matrix(0.99999999,0,0,-0.99999999,-1.1759172e-5,200)"
         id="path13" />
    </clipPath>
    <clipPath
       clipPathUnits="userSpaceOnUse"
       id="clipPath14">
      <path
         d="M 0,0 H 200 V 200 H 0 Z"
         transform="matrix(0.99999999,0,0,-0.99999999,-1.1759172e-5,200)"
         id="path14" />
    </clipPath>
    <clipPath
       clipPathUnits="userSpaceOnUse"
       id="clipPath15">
      <path
         d="M 0,0 H 200 V 200 H 0 Z"
         transform="matrix(0.99999999,0,0,-0.99999999,-1.1759172e-5,200)"
         id="path15" />
    </clipPath>
    <clipPath
       clipPathUnits="userSpaceOnUse"
       id="clipPath16">
      <path
         d="M 0,0 H 200 V 200 H 0 Z"
         transform="matrix(0.99999999,0,0,-0.99999999,-1.1759172e-5,200)"
         id="path16" />
    </clipPath>
    <clipPath
       clipPathUnits="userSpaceOnUse"
       id="clipPath17">
      <path
         d="M 0,0 H 200 V 200 H 0 Z"
         transform="matrix(0.99999999,0,0,-0.99999999,-1.1759172e-5,200)"
         id="path17" />
    </clipPath>
    <clipPath
       clipPathUnits="userSpaceOnUse"
       id="clipPath18">
      <path
         d="M 0,0 H 200 V 200 H 0 Z"
         transform="matrix(0.99999999,0,0,-0.99999999,-1.1759172e-5,200)"
         id="path18" />
    </clipPath>
    <clipPath
       clipPathUnits="userSpaceOnUse"
       id="clipPath19">
      <path
         d="M 0,0 H 200 V 200 H 0 Z"
         transform="matrix(0.99999999,0,0,-0.99999999,-1.1759172e-5,200)"
         id="path19" />
    </clipPath>
    <clipPath
       clipPathUnits="userSpaceOnUse"
       id="clipPath20">
      <path
         d="M 0,0 H 200 V 200 H 0 Z"
         transform="matrix(0.99999999,0,0,-0.99999999,-1.1759172e-5,200)"
         id="path20" />
    </clipPath>
    <clipPath
       clipPathUnits="userSpaceOnUse"
       id="clipPath21">
      <path
         d="M 0,0 H 200 V 200 H 0 Z"
         transform="matrix(0.99999999,0,0,-0.99999999,-1.1759172e-5,200)"
         id="path21" />
    </clipPath>
    <clipPath
       clipPathUnits="userSpaceOnUse"
       id="clipPath22">
      <path
         d="M 0,0 H 200 V 200 H 0 Z"
         transform="matrix(0.99999999,0,0,-0.99999999,-1.1759172e-5,200)"
         id="path22" />
    </clipPath>
    <clipPath
       clipPathUnits="userSpaceOnUse"
       id="clipPath23">
      <path
         d="M 0,0 H 200 V 200 H 0 Z"
         transform="matrix(0.99999999,0,0,-0.99999999,-1.1759172e-5,200)"
         id="path23" />
    </clipPath>
    <clipPath
       clipPathUnits="userSpaceOnUse"
       id="clipPath24">
      <path
         d="M 0,0 H 200 V 200 H 0 Z"
         transform="matrix(0.99999999,0,0,-0.99999999,-1.1759172e-5,200)"
         id="path24" />
    </clipPath>
    <clipPath
       clipPathUnits="userSpaceOnUse"
       id="clipPath25">
      <path
         d="M 0,0 H 200 V 200 H 0 Z"
         transform="matrix(0.99999999,0,0,-0.99999999,-1.1759172e-5,200)"
         id="path25" />
    </clipPath>
    <clipPath
       clipPathUnits="userSpaceOnUse"
       id="clipPath26">
      <path
         d="M 0,0 H 200 V 200 H 0 Z"
         transform="matrix(0.99999999,0,0,-0.99999999,-1.1759172e-5,200)"
         id="path26" />
    </clipPath>
    <clipPath
       clipPathUnits="userSpaceOnUse"
       id="clipPath27">
      <path
         d="M 0,0 H 200 V 200 H 0 Z"
         transform="matrix(0.99999999,0,0,-0.99999999,-1.1759172e-5,200)"
         id="path27" />
    </clipPath>
    <clipPath
       clipPathUnits="userSpaceOnUse"
       id="clipPath28">
      <path
         d="M 0,0 H 200 V 200 H 0 Z"
         transform="matrix(0.99999999,0,0,-0.99999999,-1.1759172e-5,200)"
         id="path28" />
    </clipPath>
    <clipPath
       clipPathUnits="userSpaceOnUse"
       id="clipPath29">
      <path
         d="M 0,0 H 200 V 200 H 0 Z"
         transform="matrix(0.99999999,0,0,-0.99999999,-1.1759172e-5,200)"
         id="path29" />
    </clipPath>
    <clipPath
       clipPathUnits="userSpaceOnUse"
       id="clipPath30">
      <path
         d="M 0,0 H 200 V 200 H 0 Z"
         transform="matrix(0.99999999,0,0,-0.99999999,-1.1759172e-5,200)"
         id="path30" />
    </clipPath>
    <clipPath
       clipPathUnits="userSpaceOnUse"
       id="clipPath31">
      <path
         d="M 0,0 H 200 V 200 H 0 Z"
         transform="matrix(0.99999999,0,0,-0.99999999,-1.1759172e-5,200)"
         id="path31" />
    </clipPath>
    <clipPath
       clipPathUnits="userSpaceOnUse"
       id="clipPath32">
      <path
         d="M 0,0 H 200 V 200 H 0 Z"
         transform="matrix(0.99999999,0,0,-0.99999999,-1.1759172e-5,200)"
         id="path32" />
    </clipPath>
  </defs>
  <sodipodi:namedview
     id="namedview1"
     pagecolor="#ffffff"
     bordercolor="#000000"
     borderopacity="0.25"
     inkscape:showpageshadow="2"
     inkscape:pageopacity="0.0"
     inkscape:pagecheckerboard="0"
     inkscape:deskcolor="#d1d1d1"
     inkscape:zoom="1.706575"
     inkscape:cx="-25.196665"
     inkscape:cy="110.16217"
     inkscape:window-width="1920"
     inkscape:window-height="1052"
     inkscape:window-x="0"
     inkscape:window-y="0"
     inkscape:window-maximized="1"
     inkscape:current-layer="g1">
    <inkscape:page
       x="6.906901e-06"
       y="6.5463706e-07"
       inkscape:label="15"
       id="page1"
       width="234.49648"
       height="230.45312"
       margin="0"
       bleed="0" />
  </sodipodi:namedview>
  <g
     id="g1"
     inkscape:groupmode="layer"
     inkscape:label="15"
     transform="translate(-327.39453,-59.890626)">
    <path
       id="path88"
       d="m 0.57923637,-0.72017612 c 0,-0.25260204 0.0766828,-0.45107508 0.23455904,-0.59541908 0.16689778,-0.1533655 0.38341379,-0.2345591 0.64954809,-0.2345591 0.2751558,0 0.4916719,0.081194 0.6495481,0.2345591 0.1533656,0.144344 0.2345591,0.34281704 0.2345591,0.59541908 0,0.25260204 -0.081193,0.46009657 -0.2345591,0.6134621 -0.1578762,0.15336552 -0.3743923,0.23455904 -0.6495481,0.23455904 -0.2661343,0 -0.48265031,-0.08119352 -0.64954809,-0.23455904 -0.15787627,-0.15336553 -0.23455904,-0.36086006 -0.23455904,-0.6134621 z m 2.95905253,0 c 0,-0.25260204 0.076683,-0.45107508 0.234559,-0.59541908 0.1668978,-0.1533655 0.3834138,-0.2345591 0.6495481,-0.2345591 0.2751558,0 0.4916718,0.081194 0.6495481,0.2345591 0.1533655,0.144344 0.2345591,0.34281704 0.2345591,0.59541908 0,0.25260204 -0.081194,0.46009657 -0.2345591,0.6134621 C 4.9140678,0.0466515 4.6975518,0.12784502 4.422396,0.12784502 c -0.2661343,0 -0.4826503,-0.08119352 -0.6495481,-0.23455904 -0.1578763,-0.15336553 -0.234559,-0.36086006 -0.234559,-0.6134621 z m 2.9770955,0 c 0,-0.25260204 0.076683,-0.45107508 0.234559,-0.59541908 0.1668978,-0.1533655 0.3834138,-0.2345591 0.6495481,-0.2345591 0.2751558,0 0.4916718,0.081194 0.6495481,0.2345591 0.1533655,0.144344 0.234559,0.34281704 0.234559,0.59541908 0,0.25260204 -0.081193,0.46009657 -0.234559,0.6134621 -0.1578763,0.15336552 -0.3743923,0.23455904 -0.6495481,0.23455904 -0.2661343,0 -0.4826503,-0.08119352 -0.6495481,-0.23455904 -0.1578763,-0.15336553 -0.234559,-0.36086006 -0.234559,-0.6134621 z m 0,0"
       style="fill:#000040;fill-opacity:1;fill-rule:nonzero;stroke:none"
       aria-label="…"
       transform="matrix(0.86598667,0,0,0.86598667,465.24448,290.23304)" />
    <path
       id="path89"
       d="m 22.09663,48.38612 h -44.19326 c -2.20095,0 -3.98511,-1.78416 -3.98511,-3.9851 v -7.20005 c 0,-2.20094 1.78416,-3.9851 3.98511,-3.9851 h 44.19326 c 2.20095,0 3.98511,1.78416 3.98511,3.9851 v 7.20005 c 0,2.20094 -1.78416,3.9851 -3.98511,3.9851 z"
       style="fill:none;stroke:#000040;stroke-width:0.3985;stroke-linecap:butt;stroke-linejoin:miter;stroke-miterlimit:10;stroke-dasharray:none;stroke-opacity:1"
       transform="matrix(0.86598667,0,0,-0.86598667,469.06608,289.61386)" />
    <path
       id="path90"
       d="m 5.5942097,-1.0297619 c -0.324774,0.21651605 -0.8299781,0.34281707 -1.4614832,0.34281707 -1.4434402,0 -2.5621064,-1.04649417 -2.5621064,-3.13948247 0,-2.3275474 1.2269242,-3.1394826 2.4177624,-3.1394826 0.6495481,0 1.1727952,0.090215 1.4975692,0.2526021 l 0.216516,-0.7938921 C 5.3235647,-7.669587 4.8003176,-7.777845 3.9342535,-7.777845 c -1.6238703,0 -3.31991259,1.1006232 -3.31991259,3.9514177 0,2.7425364 1.47952629,3.95141761 3.30186959,3.95141761 0.7578061,0 1.4614832,-0.10825802 1.8945153,-0.45107508 z m 0.7938922,-1.6960423 c 0,1.7140853 0.7397631,2.85079451 2.3816764,2.85079451 1.5336557,0 2.3997197,-1.02845117 2.3997197,-2.85079451 0,-1.7321282 -0.757806,-2.8688374 -2.3997197,-2.8688374 -1.5336553,0 -2.3816764,1.0284511 -2.3816764,2.8688374 z m 0.9021501,0 c 0,-1.4253972 0.5052041,-2.0929883 1.4795263,-2.0929883 1.0825801,0 1.4795257,0.9562792 1.4795257,2.0929883 0,1.4073543 -0.4871606,2.09298838 -1.4795257,2.09298838 -1.0825802,0 -1.4795263,-0.99236518 -1.4795263,-2.09298838 z m 9.31019,2.72449349 V -3.6459973 c 0.18043,-0.7578061 0.577376,-1.1727952 1.299096,-1.1727952 0.866064,0 1.028451,0.4871611 1.028451,1.5336552 v 3.28382659 h 0.884107 V -3.2670943 c 0,-1.8403863 -0.487161,-2.3275473 -1.696042,-2.3275473 -0.739763,0 -1.353225,0.342817 -1.696042,0.9021501 -0.23456,-0.6495481 -0.685635,-0.9021501 -1.371269,-0.9021501 -0.829978,0 -1.299096,0.324774 -1.696042,0.7938921 h -0.03609 l -0.18043,-0.6495481 h -0.595419 v 5.44898689 H 13.40683 V -3.7542553 c 0.18043,-0.5954191 0.631505,-1.0645372 1.299096,-1.0645372 0.866064,0 1.028451,0.5773761 1.028451,1.7321283 v 3.08535349 z m 8.859114,0 V -3.6459973 c 0.18043,-0.7578061 0.577376,-1.1727952 1.299096,-1.1727952 0.866064,0 1.028451,0.4871611 1.028451,1.5336552 v 3.28382659 h 0.884108 V -3.2670943 c 0,-1.8403863 -0.487162,-2.3275473 -1.696043,-2.3275473 -0.739763,0 -1.353225,0.342817 -1.696042,0.9021501 -0.234559,-0.6495481 -0.685634,-0.9021501 -1.371268,-0.9021501 -0.829978,0 -1.299096,0.324774 -1.696043,0.7938921 h -0.03609 l -0.18043,-0.6495481 H 21.39988 v 5.44898689 h 0.866064 V -3.7542553 c 0.180431,-0.5954191 0.631506,-1.0645372 1.299097,-1.0645372 0.866064,0 1.028451,0.5773761 1.028451,1.7321283 v 3.08535349 z m 4.979869,0 h 0.866064 V -5.4502976 h -0.866064 z m -0.18043,-7.10894319 c 0,0.3247741 0.234559,0.5773761 0.595419,0.5773761 0.342817,0 0.631505,-0.252602 0.631505,-0.5773761 0,-0.342817 -0.288688,-0.6134621 -0.631505,-0.6134621 -0.36086,0 -0.595419,0.2706451 -0.595419,0.6134621 z m 2.201246,2.4177624 h 0.848021 V -1.49888 c 0,1.15475223 0.324774,1.62387031 1.208881,1.62387031 0.541291,0 1.010409,-0.12630102 1.389312,-0.30673105 l -0.18043,-0.66759111 c -0.324774,0.14434402 -0.559333,0.21651603 -0.920193,0.21651603 -0.451076,0 -0.631506,-0.28868804 -0.631506,-1.04649418 v -3.0131815 h 1.49757 v -0.7578061 h -1.49757 v -1.3351822 l -0.866064,0.252602 v 1.0825802 h -0.848021 z m 7.645723,4.69118079 h 3.879245 V -0.81324585 H 42.48764 V -7.777845 h -0.396946 l -2.399719,1.8584293 0.414989,0.5593331 1.208881,-0.8660641 0.433032,-0.5052041 -0.108258,0.6315051 v 5.28659985 h -1.533655 z m 0,0"
       style="fill:#000040;fill-opacity:1;fill-rule:nonzero;stroke:none"
       aria-label="Commit1"
       transform="matrix(0.86598667,0,0,0.86598667,449.62815,257.58707)" />
    <path
       id="path91"
       d="M 0,33.0166 V 5.62622"
       style="fill:none;stroke:#000040;stroke-width:1.19553;stroke-linecap:butt;stroke-linejoin:miter;stroke-miterlimit:10;stroke-dasharray:none;stroke-opacity:1"
       transform="matrix(0.86598667,0,0,-0.86598667,469.06608,289.61386)" />
    <path
       id="path92"
       d="M -1.91284,2.55046 C -1.75343,1.59402 0,0.15938 0.4782,0 0,-0.15938 -1.75343,-1.59402 -1.91284,-2.55046"
       style="fill:none;stroke:#000040;stroke-width:0.9564;stroke-linecap:round;stroke-linejoin:round;stroke-miterlimit:10;stroke-dasharray:none;stroke-opacity:1"
       transform="matrix(0,0.86598667,0.86598667,0,469.06608,284.74163)" />
    <path
       id="path93"
       d="m -58.81216,92.30171 h -44.19327 c -2.20095,0 -3.98511,-1.78416 -3.98511,-3.98511 v -7.20005 c 0,-2.20095 1.78416,-3.98511 3.98511,-3.98511 h 44.19327 c 2.20094,0 3.9851,1.78416 3.9851,3.98511 v 7.20005 c 0,2.20095 -1.78416,3.98511 -3.9851,3.98511 z"
       style="fill:none;stroke:#000040;stroke-width:0.3985;stroke-linecap:butt;stroke-linejoin:miter;stroke-miterlimit:10;stroke-dasharray:none;stroke-opacity:0"
       transform="matrix(0.86598667,0,0,-0.86598667,469.06608,289.61386)" />
    <path
       id="path94"
       d="m 5.5938737,-1.0269204 c -0.3247741,0.21651607 -0.8299782,0.34281709 -1.4614833,0.34281709 -1.4434402,0 -2.5621064,-1.04649419 -2.5621064,-3.13948249 0,-2.3275474 1.2269242,-3.1394825 2.4177624,-3.1394825 0.6495481,0 1.1727952,0.090215 1.4975692,0.252602 L 5.7021317,-7.5043584 C 5.3232286,-7.6667455 4.7999815,-7.7750035 3.9339174,-7.7750035 c -1.6238703,0 -3.31991257,1.1006232 -3.31991257,3.9514177 0,2.7425364 1.47952627,3.95141763 3.30186957,3.95141763 0.7578061,0 1.4614832,-0.10825802 1.8945153,-0.45107508 z m 0.7938921,-1.6960422 c 0,1.7140852 0.7397631,2.85079443 2.3816764,2.85079443 1.5336548,0 2.3997198,-1.02845117 2.3997198,-2.85079443 0,-1.7321283 -0.757807,-2.8688375 -2.3997198,-2.8688375 -1.5336553,0 -2.3816764,1.0284512 -2.3816764,2.8688375 z m 0.9021501,0 c 0,-1.4253973 0.5052041,-2.0929884 1.4795263,-2.0929884 1.0825802,0 1.4795258,0.9562792 1.4795258,2.0929884 0,1.4073542 -0.4871607,2.0929883 -1.4795258,2.0929883 -1.0825802,0 -1.4795263,-0.9923652 -1.4795263,-2.0929883 z m 9.3101891,2.7244934 v -3.6446866 c 0.18043,-0.7578061 0.577377,-1.1727952 1.299097,-1.1727952 0.866064,0 1.028451,0.4871611 1.028451,1.5336553 v 3.2838265 h 0.884107 v -3.2657835 c 0,-1.8403863 -0.487161,-2.3275474 -1.696042,-2.3275474 -0.739763,0 -1.353226,0.342817 -1.696043,0.9021501 -0.234559,-0.6495481 -0.685634,-0.9021501 -1.371268,-0.9021501 -0.829978,0 -1.299096,0.324774 -1.696042,0.7938921 h -0.03609 l -0.18043,-0.6495481 H 12.54043 v 5.4489869 h 0.866064 v -3.7529446 c 0.18043,-0.5954191 0.631505,-1.0645372 1.299096,-1.0645372 0.866064,0 1.028451,0.5773761 1.028451,1.7321283 v 3.0853535 z m 8.859115,0 v -3.6446866 c 0.18043,-0.7578061 0.577376,-1.1727952 1.299096,-1.1727952 0.866064,0 1.028451,0.4871611 1.028451,1.5336553 v 3.2838265 h 0.884107 v -3.2657835 c 0,-1.8403863 -0.487161,-2.3275474 -1.696042,-2.3275474 -0.739763,0 -1.353225,0.342817 -1.696042,0.9021501 -0.234559,-0.6495481 -0.685634,-0.9021501 -1.371268,-0.9021501 -0.829978,0 -1.299097,0.324774 -1.696043,0.7938921 h -0.03609 l -0.18043,-0.6495481 H 21.39954 v 5.4489869 h 0.866064 v -3.7529446 c 0.18043,-0.5954191 0.631506,-1.0645372 1.299097,-1.0645372 0.866064,0 1.028451,0.5773761 1.028451,1.7321283 v 3.0853535 z m 4.979869,0 h 0.866064 v -5.4489869 h -0.866064 z m -0.18043,-7.1089432 c 0,0.3247741 0.234559,0.5773761 0.595419,0.5773761 0.342817,0 0.631505,-0.252602 0.631505,-0.5773761 0,-0.342817 -0.288688,-0.6134621 -0.631505,-0.6134621 -0.36086,0 -0.595419,0.2706451 -0.595419,0.6134621 z m 2.201246,2.4177624 h 0.848021 v 3.1936116 c 0,1.15475215 0.324774,1.62387023 1.208881,1.62387023 0.541291,0 1.010409,-0.12630103 1.389312,-0.30673105 l -0.18043,-0.66759111 c -0.324774,0.14434402 -0.559333,0.21651603 -0.920194,0.21651603 -0.451075,0 -0.631505,-0.28868805 -0.631505,-1.0464942 V -4.68965 h 1.49757 v -0.7578061 h -1.49757 v -1.3351822 l -0.866064,0.252602 v 1.0825802 h -0.848021 z m 11.344538,-1.2088812 c 0,-1.1006231 -0.703677,-1.8764723 -1.948644,-1.8764723 -0.811935,0 -1.533655,0.2706451 -2.038859,0.7036771 l 0.36086,0.6134621 c 0.378903,-0.288688 0.920193,-0.54129 1.479526,-0.54129 0.829978,0 1.244967,0.523247 1.244967,1.2449672 0,1.8403863 -2.327547,4.4385787 -3.283826,5.43094385 V 0.0015308 h 4.33032 v -0.81193513 h -2.381676 l -0.685634,0.12630102 v -0.054129 l 0.523247,-0.46911809 c 1.136709,-1.3893112 2.399719,-3.1755685 2.399719,-4.6911808 z m 0,0"
       style="fill:#000040;fill-opacity:0;fill-rule:nonzero;stroke:none"
       aria-label="Commit2"
       transform="matrix(0.86598667,0,0,0.86598667,379.56203,219.55727)" />
    <path
       id="path95"
       d="M -66.56621,76.93219 -15.17482,49.04155"
       style="fill:none;stroke:#000040;stroke-width:1.19553;stroke-linecap:butt;stroke-linejoin:miter;stroke-miterlimit:10;stroke-dasharray:none;stroke-opacity:0"
       transform="matrix(0.86598667,0,0,-0.86598667,469.06608,289.61386)" />
    <path
       id="path96"
       d="M -1.91284,2.55046 C -1.75343,1.59402 0,0.15938 0.4782,0 0,-0.15938 -1.75343,-1.59402 -1.91284,-2.55046"
       style="fill:none;stroke:#000040;stroke-width:0.9564;stroke-linecap:round;stroke-linejoin:round;stroke-miterlimit:10;stroke-dasharray:none;stroke-opacity:0"
       transform="matrix(0.76108104,0.413041,0.413041,-0.76108104,455.92487,247.14453)" />
    <path
       id="path97"
       d="m -58.81216,136.21729 h -44.19327 c -2.20095,0 -3.98511,-1.78417 -3.98511,-3.98511 v -7.20004 c 0,-2.20095 1.78416,-3.98511 3.98511,-3.98511 h 44.19327 c 2.20094,0 3.9851,1.78416 3.9851,3.98511 v 7.20004 c 0,2.20094 -1.78416,3.98511 -3.9851,3.98511 z"
       style="fill:none;stroke:#000040;stroke-width:0.3985;stroke-linecap:butt;stroke-linejoin:miter;stroke-miterlimit:10;stroke-dasharray:none;stroke-opacity:0"
       transform="matrix(0.86598667,0,0,-0.86598667,469.06608,289.61386)" />
    <path
       id="path98"
       d="m 5.5938737,-1.0275896 c -0.3247741,0.21651604 -0.8299782,0.34281706 -1.4614833,0.34281706 -1.4434402,0 -2.5621064,-1.04649416 -2.5621064,-3.13948256 0,-2.3275473 1.2269242,-3.1394825 2.4177624,-3.1394825 0.6495481,0 1.1727952,0.090215 1.4975692,0.2526021 l 0.2165161,-0.7938922 c -0.3789031,-0.162387 -0.9021502,-0.270645 -1.7682143,-0.270645 -1.6238703,0 -3.31991257,1.1006232 -3.31991257,3.9514176 0,2.7425365 1.47952627,3.95141769 3.30186957,3.95141769 0.7578061,0 1.4614832,-0.10825801 1.8945153,-0.45107507 z m 0.7938921,-1.6960423 c 0,1.7140853 0.7397631,2.85079449 2.3816764,2.85079449 1.5336548,0 2.3997198,-1.02845117 2.3997198,-2.85079449 0,-1.7321283 -0.757807,-2.8688374 -2.3997198,-2.8688374 -1.5336553,0 -2.3816764,1.0284511 -2.3816764,2.8688374 z m 0.9021501,0 c 0,-1.4253972 0.5052041,-2.0929883 1.4795263,-2.0929883 1.0825802,0 1.4795258,0.9562791 1.4795258,2.0929883 0,1.4073543 -0.4871607,2.09298837 -1.4795258,2.09298837 -1.0825802,0 -1.4795263,-0.99236517 -1.4795263,-2.09298837 z M 16.600105,8.6157216e-4 V -3.643825 c 0.18043,-0.7578062 0.577377,-1.1727952 1.299097,-1.1727952 0.866064,0 1.028451,0.4871611 1.028451,1.5336552 V 8.6157216e-4 H 19.81176 V -3.264922 c 0,-1.8403863 -0.487161,-2.3275473 -1.696042,-2.3275473 -0.739763,0 -1.353226,0.342817 -1.696043,0.9021501 -0.234559,-0.6495481 -0.685634,-0.9021501 -1.371268,-0.9021501 -0.829978,0 -1.299096,0.324774 -1.696042,0.7938921 h -0.03609 l -0.18043,-0.6495481 H 12.54043 V 8.6157216e-4 h 0.866064 V -3.752083 c 0.18043,-0.5954191 0.631505,-1.0645372 1.299096,-1.0645372 0.866064,0 1.028451,0.5773761 1.028451,1.7321283 V 8.6157216e-4 Z m 8.859115,0 V -3.643825 c 0.18043,-0.7578062 0.577376,-1.1727952 1.299096,-1.1727952 0.866064,0 1.028451,0.4871611 1.028451,1.5336552 V 8.6157216e-4 h 0.884107 V -3.264922 c 0,-1.8403863 -0.487161,-2.3275473 -1.696042,-2.3275473 -0.739763,0 -1.353225,0.342817 -1.696042,0.9021501 -0.234559,-0.6495481 -0.685634,-0.9021501 -1.371268,-0.9021501 -0.829978,0 -1.299097,0.324774 -1.696043,0.7938921 h -0.03609 l -0.18043,-0.6495481 H 21.399544 V 8.6157216e-4 h 0.866064 V -3.752083 c 0.18043,-0.5954191 0.631506,-1.0645372 1.299097,-1.0645372 0.866064,0 1.028451,0.5773761 1.028451,1.7321283 V 8.6157216e-4 Z m 4.979869,0 h 0.866064 V -5.4481253 H 30.439089 Z M 30.258659,-7.1080816 c 0,0.3247741 0.234559,0.5773761 0.595419,0.5773761 0.342817,0 0.631505,-0.252602 0.631505,-0.5773761 0,-0.3428171 -0.288688,-0.6134621 -0.631505,-0.6134621 -0.36086,0 -0.595419,0.270645 -0.595419,0.6134621 z m 2.201246,2.4177624 h 0.848021 v 3.1936115 c 0,1.15475222 0.324774,1.62387029 1.208881,1.62387029 0.541291,0 1.010409,-0.12630101784 1.389312,-0.30673105 l -0.18043,-0.66759111 c -0.324774,0.14434403 -0.559333,0.21651604 -0.920194,0.21651604 -0.451075,0 -0.631505,-0.28868805 -0.631505,-1.04649417 v -3.0131815 h 1.49757 v -0.7578061 h -1.49757 v -1.3351822 l -0.866064,0.252602 v 1.0825802 h -0.848021 z m 9.035034,4.05967567 c -0.577376,0 -1.028451,-0.12630102 -1.371268,-0.28868805 l -0.234559,0.77584913 c 0.396946,0.16238703 0.938236,0.27064504 1.569741,0.27064504 1.44344,0 2.634278,-0.86606414 2.634278,-2.45384839 0,-1.2990962 -0.884107,-2.1110314 -2.038859,-2.1290744 l -0.378903,0.072172 v -0.018043 l 0.396946,-0.306731 1.732128,-2.6162354 v -0.3067311 h -3.897288 v 0.7938921 h 2.16516 l 0.703677,-0.108258 -0.505204,0.4871611 -1.569741,2.4177624 v 0.3247741 h 0.811935 c 1.046494,0 1.696042,0.487161 1.696042,1.4975692 0,0.9382362 -0.72172,1.58778427 -1.714085,1.58778427 z m 0,0"
       style="fill:#000040;fill-opacity:0;fill-rule:nonzero;stroke:none"
       aria-label="Commit3"
       transform="matrix(0.86598667,0,0,0.86598667,379.56203,181.5266)" />
    <path
       id="path99"
       d="M -80.9088,120.84776 V 93.45738"
       style="fill:none;stroke:#000040;stroke-width:1.19553;stroke-linecap:butt;stroke-linejoin:miter;stroke-miterlimit:10;stroke-dasharray:none;stroke-opacity:0"
       transform="matrix(0.86598667,0,0,-0.86598667,469.06608,289.61386)" />
    <path
       id="path100"
       d="M -1.91284,2.55046 C -1.75343,1.59402 0,0.15938 0.4782,0 0,-0.15938 -1.75343,-1.59402 -1.91284,-2.55046"
       style="fill:none;stroke:#000040;stroke-width:0.9564;stroke-linecap:round;stroke-linejoin:round;stroke-miterlimit:10;stroke-dasharray:none;stroke-opacity:0"
       transform="matrix(0,0.86598667,0.86598667,0,399.00014,208.68101)" />
    <path
       id="path101"
       d="m 0.54046656,-2.7262931 c 0,1.7140852 0.73976314,2.85079443 2.38167644,2.85079443 1.5336552,0 2.3997193,-1.02845117 2.3997193,-2.85079443 0,-1.7321283 -0.7578061,-2.8688375 -2.3997193,-2.8688375 -1.5336553,0 -2.38167644,1.0284512 -2.38167644,2.8688375 z m 0.90215014,0 c 0,-1.4253973 0.5052041,-2.0929884 1.4795263,-2.0929884 1.0825801,0 1.4795262,0.9562792 1.4795262,2.0929884 0,1.4073542 -0.4871611,2.09298831 -1.4795262,2.09298831 -1.0825802,0 -1.4795263,-0.99236521 -1.4795263,-2.09298831 z m 4.5287938,-1.9666874 h 0.8480211 v 3.1936116 c 0,1.15475215 0.324774,1.62387023 1.2088812,1.62387023 0.5412901,0 1.0104082,-0.12630102 1.3893112,-0.30673105 l -0.18043,-0.66759111 c -0.3247741,0.14434403 -0.5593331,0.21651604 -0.9201932,0.21651604 -0.451075,0 -0.6315051,-0.28868805 -0.6315051,-1.04649421 V -4.6929805 H 9.183065 V -5.4507866 H 7.6854957 v -1.3351822 l -0.8660641,0.252602 v 1.0825802 H 5.9714105 Z m 8.7869425,4.69118081 V -3.3036692 c 0,-1.8043003 -0.559333,-2.2914614 -1.786257,-2.2914614 -0.77585,0 -1.281054,0.306731 -1.678,0.7397631 h -0.03609 v -2.7786224 h -0.866064 v 7.63219021 H 11.25801 V -3.6284433 c 0.144344,-0.7036771 0.793892,-1.1908382 1.461484,-1.1908382 0.956279,0 1.172795,0.5773761 1.172795,1.7140853 v 3.10339651 z m 5.246003,-1.06453721 c -0.252602,0.21651607 -0.811935,0.43303211 -1.299096,0.43303211 -1.281053,0 -1.750171,-0.73976311 -1.750171,-2.00277331 h 3.500342 c 0.03609,-0.3067311 0.07217,-0.5593331 0.07217,-0.8119352 0,-1.8223433 -1.08258,-2.1471173 -2.074945,-2.1471173 -1.533655,0 -2.39972,1.0284512 -2.39972,2.8688375 0,1.73212825 0.739763,2.85079443 2.39972,2.85079443 0.739763,0 1.44344,-0.21651603 1.876472,-0.55933309 z m -1.551698,-3.7529446 c 0.775849,0 1.226924,0.3789031 1.226924,1.4795263 h -2.724493 c 0.108258,-1.0645372 0.649548,-1.4795263 1.497569,-1.4795263 z m 6.211304,-0.6315051 c -0.270646,-0.090215 -0.505205,-0.126301 -0.721721,-0.126301 -0.577376,0 -0.956279,0.288688 -1.226924,0.7758491 h -0.03609 l -0.18043,-0.6495481 h -0.595419 v 5.44898691 h 0.866064 V -3.8269163 c 0.09022,-0.5232471 0.451075,-0.9021502 1.08258,-0.9021502 0.18043,0 0.396946,0.036086 0.613463,0.1082581 z m 0,0"
       style="fill:#000040;fill-opacity:0;fill-rule:nonzero;stroke:none"
       aria-label="other"
       transform="matrix(0.86598667,0,0,0.86598667,326.92649,181.47031)" />
    <path
       id="path102"
       d="m -135.5366,128.63216 h 27.39039"
       style="fill:none;stroke:#000040;stroke-width:1.19553;stroke-linecap:butt;stroke-linejoin:miter;stroke-miterlimit:10;stroke-dasharray:none;stroke-opacity:0"
       transform="matrix(0.86598667,0,0,-0.86598667,469.06608,289.61386)" />
    <path
       id="path103"
       d="M -1.91284,2.55046 C -1.75343,1.59402 0,0.15938 0.4782,0 0,-0.15938 -1.75343,-1.59402 -1.91284,-2.55046"
       style="fill:none;stroke:#000040;stroke-width:0.9564;stroke-linecap:round;stroke-linejoin:round;stroke-miterlimit:10;stroke-dasharray:none;stroke-opacity:0"
       transform="matrix(0.86598667,0,0,-0.86598667,375.41291,178.22012)" />
    <path
       id="path104"
       d="M 103.00543,92.30171 H 58.81216 c -2.20094,0 -3.9851,-1.78416 -3.9851,-3.98511 v -7.20005 c 0,-2.20095 1.78416,-3.98511 3.9851,-3.98511 h 44.19327 c 2.20095,0 3.98511,1.78416 3.98511,3.98511 v 7.20005 c 0,2.20095 -1.78416,3.98511 -3.98511,3.98511 z"
       style="fill:none;stroke:#000040;stroke-width:0.3985;stroke-linecap:butt;stroke-linejoin:miter;stroke-miterlimit:10;stroke-dasharray:none;stroke-opacity:0"
       transform="matrix(0.86598667,0,0,-0.86598667,469.06608,289.61386)" />
    <path
       id="path105"
       d="m 5.5945458,-1.0269204 c -0.324774,0.21651607 -0.8299781,0.34281709 -1.4614832,0.34281709 -1.4434403,0 -2.5621065,-1.04649419 -2.5621065,-3.13948249 0,-2.3275474 1.2269242,-3.1394825 2.4177624,-3.1394825 0.6495481,0 1.1727952,0.090215 1.4975693,0.252602 l 0.216516,-0.7938921 c -0.378903,-0.1623871 -0.9021501,-0.2706451 -1.7682143,-0.2706451 -1.6238702,0 -3.31991251,1.1006232 -3.31991251,3.9514177 0,2.7425364 1.47952621,3.95141763 3.30186951,3.95141763 0.7578062,0 1.4614833,-0.10825802 1.8945153,-0.45107508 z m 0.7938921,-1.6960422 c 0,1.7140852 0.7397632,2.85079443 2.3816764,2.85079443 1.5336557,0 2.3997197,-1.02845117 2.3997197,-2.85079443 0,-1.7321283 -0.757806,-2.8688375 -2.3997197,-2.8688375 -1.5336552,0 -2.3816764,1.0284512 -2.3816764,2.8688375 z m 0.9021502,0 c 0,-1.4253973 0.5052041,-2.0929884 1.4795262,-2.0929884 1.0825802,0 1.4795267,0.9562792 1.4795267,2.0929884 0,1.4073542 -0.4871615,2.0929883 -1.4795267,2.0929883 -1.0825802,0 -1.4795262,-0.9923652 -1.4795262,-2.0929883 z m 9.3101899,2.7244934 v -3.6446866 c 0.18043,-0.7578061 0.577376,-1.1727952 1.299096,-1.1727952 0.866064,0 1.028451,0.4871611 1.028451,1.5336553 v 3.2838265 h 0.884107 v -3.2657835 c 0,-1.8403863 -0.487161,-2.3275474 -1.696042,-2.3275474 -0.739763,0 -1.353225,0.342817 -1.696042,0.9021501 -0.234559,-0.6495481 -0.685635,-0.9021501 -1.371269,-0.9021501 -0.829978,0 -1.299096,0.324774 -1.696042,0.7938921 h -0.03609 l -0.18043,-0.6495481 h -0.595419 v 5.4489869 h 0.866064 v -3.7529446 c 0.18043,-0.5954191 0.631505,-1.0645372 1.299096,-1.0645372 0.866064,0 1.028451,0.5773761 1.028451,1.7321283 v 3.0853535 z m 8.859114,0 v -3.6446866 c 0.18043,-0.7578061 0.577376,-1.1727952 1.299096,-1.1727952 0.866064,0 1.028451,0.4871611 1.028451,1.5336553 v 3.2838265 h 0.884108 v -3.2657835 c 0,-1.8403863 -0.487161,-2.3275474 -1.696043,-2.3275474 -0.739763,0 -1.353225,0.342817 -1.696042,0.9021501 -0.234559,-0.6495481 -0.685634,-0.9021501 -1.371268,-0.9021501 -0.829978,0 -1.299096,0.324774 -1.696042,0.7938921 h -0.03609 l -0.18043,-0.6495481 h -0.59542 v 5.4489869 h 0.866065 v -3.7529446 c 0.18043,-0.5954191 0.631505,-1.0645372 1.299096,-1.0645372 0.866064,0 1.028451,0.5773761 1.028451,1.7321283 v 3.0853535 z m 4.979869,0 h 0.866064 v -5.4489869 h -0.866064 z m -0.18043,-7.1089432 c 0,0.3247741 0.234559,0.5773761 0.595419,0.5773761 0.342817,0 0.631505,-0.252602 0.631505,-0.5773761 0,-0.342817 -0.288688,-0.6134621 -0.631505,-0.6134621 -0.36086,0 -0.595419,0.2706451 -0.595419,0.6134621 z m 2.201246,2.4177624 h 0.848021 v 3.1936116 c 0,1.15475215 0.324774,1.62387023 1.208882,1.62387023 0.54129,0 1.010408,-0.12630103 1.389311,-0.30673105 l -0.18043,-0.66759111 c -0.324774,0.14434402 -0.559333,0.21651603 -0.920193,0.21651603 -0.451075,0 -0.631505,-0.28868805 -0.631505,-1.0464942 V -4.68965 h 1.497569 v -0.7578061 h -1.497569 v -1.3351822 l -0.866065,0.252602 v 1.0825802 h -0.848021 z m 12.192559,1.5877843 h -1.281053 v -4.6550948 h -0.595419 l -3.626643,5.0520409 v 0.36086 h 3.355998 v 2.3455904 h 0.866064 v -2.3455904 h 1.281053 z m -2.147117,0 h -1.587784 l -0.775849,0.072172 0.523247,-0.5232471 1.533655,-2.0929883 0.396946,-0.7397631 h 0.01804 l -0.108258,0.9021501 z m 0,0"
       style="fill:#000040;fill-opacity:0;fill-rule:nonzero;stroke:none"
       aria-label="Commit4"
       transform="matrix(0.86598667,0,0,0.86598667,519.69426,219.55727)" />
    <path
       id="path106"
       d="M 66.56621,76.93219 15.17482,49.04155"
       style="fill:none;stroke:#000040;stroke-width:1.19553;stroke-linecap:butt;stroke-linejoin:miter;stroke-miterlimit:10;stroke-dasharray:none;stroke-opacity:0"
       transform="matrix(0.86598667,0,0,-0.86598667,469.06608,289.61386)" />
    <path
       id="path107"
       d="M -1.91284,2.55046 C -1.75343,1.59402 0,0.15938 0.4782,0 0,-0.15938 -1.75343,-1.59402 -1.91284,-2.55046"
       style="fill:none;stroke:#000040;stroke-width:0.9564;stroke-linecap:round;stroke-linejoin:round;stroke-miterlimit:10;stroke-dasharray:none;stroke-opacity:0"
       transform="matrix(-0.76108104,0.413041,0.413041,0.76108104,482.20729,247.14453)" />
    <path
       id="path108"
       d="M 103.00543,136.21729 H 58.81216 c -2.20094,0 -3.9851,-1.78417 -3.9851,-3.98511 v -7.20004 c 0,-2.20095 1.78416,-3.98511 3.9851,-3.98511 h 44.19327 c 2.20095,0 3.98511,1.78416 3.98511,3.98511 v 7.20004 c 0,2.20094 -1.78416,3.98511 -3.98511,3.98511 z"
       style="fill:none;stroke:#000040;stroke-width:0.3985;stroke-linecap:butt;stroke-linejoin:miter;stroke-miterlimit:10;stroke-dasharray:none;stroke-opacity:0"
       transform="matrix(0.86598667,0,0,-0.86598667,469.06608,289.61386)" />
    <path
       id="path109"
       d="m 5.5945458,-1.0275896 c -0.324774,0.21651604 -0.8299781,0.34281706 -1.4614832,0.34281706 -1.4434403,0 -2.5621065,-1.04649416 -2.5621065,-3.13948256 0,-2.3275473 1.2269242,-3.1394825 2.4177624,-3.1394825 0.6495481,0 1.1727952,0.090215 1.4975693,0.2526021 l 0.216516,-0.7938922 c -0.378903,-0.162387 -0.9021501,-0.270645 -1.7682143,-0.270645 -1.6238702,0 -3.31991251,1.1006232 -3.31991251,3.9514176 0,2.7425365 1.47952621,3.95141769 3.30186951,3.95141769 0.7578062,0 1.4614833,-0.10825801 1.8945153,-0.45107507 z m 0.7938921,-1.6960423 c 0,1.7140853 0.7397632,2.85079449 2.3816764,2.85079449 1.5336557,0 2.3997197,-1.02845117 2.3997197,-2.85079449 0,-1.7321283 -0.757806,-2.8688374 -2.3997197,-2.8688374 -1.5336552,0 -2.3816764,1.0284511 -2.3816764,2.8688374 z m 0.9021502,0 c 0,-1.4253972 0.5052041,-2.0929883 1.4795262,-2.0929883 1.0825802,0 1.4795267,0.9562791 1.4795267,2.0929883 0,1.4073543 -0.4871615,2.09298837 -1.4795267,2.09298837 -1.0825802,0 -1.4795262,-0.99236517 -1.4795262,-2.09298837 z M 16.600778,8.6157216e-4 V -3.643825 c 0.18043,-0.7578062 0.577376,-1.1727952 1.299096,-1.1727952 0.866064,0 1.028451,0.4871611 1.028451,1.5336552 V 8.6157216e-4 h 0.884107 V -3.264922 c 0,-1.8403863 -0.487161,-2.3275473 -1.696042,-2.3275473 -0.739763,0 -1.353225,0.342817 -1.696042,0.9021501 -0.234559,-0.6495481 -0.685635,-0.9021501 -1.371269,-0.9021501 -0.829978,0 -1.299096,0.324774 -1.696042,0.7938921 h -0.03609 l -0.18043,-0.6495481 H 12.541102 V 8.6157216e-4 h 0.866064 V -3.752083 c 0.18043,-0.5954191 0.631505,-1.0645372 1.299096,-1.0645372 0.866064,0 1.028451,0.5773761 1.028451,1.7321283 V 8.6157216e-4 Z m 8.859114,0 V -3.643825 c 0.18043,-0.7578062 0.577376,-1.1727952 1.299096,-1.1727952 0.866064,0 1.028451,0.4871611 1.028451,1.5336552 V 8.6157216e-4 h 0.884108 V -3.264922 c 0,-1.8403863 -0.487161,-2.3275473 -1.696043,-2.3275473 -0.739763,0 -1.353225,0.342817 -1.696042,0.9021501 -0.234559,-0.6495481 -0.685634,-0.9021501 -1.371268,-0.9021501 -0.829978,0 -1.299096,0.324774 -1.696042,0.7938921 h -0.03609 l -0.18043,-0.6495481 h -0.59542 V 8.6157216e-4 h 0.866065 V -3.752083 c 0.18043,-0.5954191 0.631505,-1.0645372 1.299096,-1.0645372 0.866064,0 1.028451,0.5773761 1.028451,1.7321283 V 8.6157216e-4 Z m 4.979869,0 h 0.866064 V -5.4481253 H 30.439761 Z M 30.259331,-7.1080816 c 0,0.3247741 0.234559,0.5773761 0.595419,0.5773761 0.342817,0 0.631505,-0.252602 0.631505,-0.5773761 0,-0.3428171 -0.288688,-0.6134621 -0.631505,-0.6134621 -0.36086,0 -0.595419,0.270645 -0.595419,0.6134621 z m 2.201246,2.4177624 h 0.848021 v 3.1936115 c 0,1.15475222 0.324774,1.62387029 1.208882,1.62387029 0.54129,0 1.010408,-0.12630101784 1.389311,-0.30673105 l -0.18043,-0.66759111 c -0.324774,0.14434403 -0.559333,0.21651604 -0.920193,0.21651604 -0.451075,0 -0.631505,-0.28868805 -0.631505,-1.04649417 v -3.0131815 h 1.497569 v -0.7578061 h -1.497569 v -1.3351822 l -0.866065,0.252602 v 1.0825802 h -0.848021 z m 8.800475,4.05967567 c -0.577376,0 -0.920193,-0.054129 -1.26301,-0.18043003 l -0.216516,0.72172012 c 0.378903,0.14434402 0.811935,0.21651603 1.461483,0.21651603 1.44344,0 2.616235,-0.88410714 2.616235,-2.50797739 0,-1.4795263 -0.884107,-2.2914614 -2.309504,-2.3095044 l -0.469118,0.036086 v -2.1832034 h 2.580149 v -0.7938921 h -3.410127 v 3.7709876 l 0.920193,-0.054129 c 1.136709,0 1.822343,0.5232471 1.822343,1.5877843 0,1.1006232 -0.72172,1.69604227 -1.732128,1.69604227 z m 0,0"
       style="fill:#000040;fill-opacity:0;fill-rule:nonzero;stroke:none"
       aria-label="Commit5"
       transform="matrix(0.86598667,0,0,0.86598667,519.69426,181.5266)" />
    <path
       id="path110"
       d="M 80.9088,120.84776 V 93.45738"
       style="fill:none;stroke:#000040;stroke-width:1.19553;stroke-linecap:butt;stroke-linejoin:miter;stroke-miterlimit:10;stroke-dasharray:none;stroke-opacity:0"
       transform="matrix(0.86598667,0,0,-0.86598667,469.06608,289.61386)" />
    <path
       id="path111"
       d="M -1.91284,2.55046 C -1.75343,1.59402 0,0.15938 0.4782,0 0,-0.15938 -1.75343,-1.59402 -1.91284,-2.55046"
       style="fill:none;stroke:#000040;stroke-width:0.9564;stroke-linecap:round;stroke-linejoin:round;stroke-miterlimit:10;stroke-dasharray:none;stroke-opacity:0"
       transform="matrix(0,0.86598667,0.86598667,0,539.13202,208.68101)" />
    <path
       id="path112"
       d="M 4.9070293,1.9538792e-4 V -3.6444912 c 0.18043,-0.7578061 0.5773761,-1.1727952 1.2990962,-1.1727952 0.8660642,0 1.0284512,0.4871611 1.0284512,1.5336552 V 1.9538792e-4 H 8.1186838 V -3.2655881 c 0,-1.8403864 -0.487161,-2.3275474 -1.6960422,-2.3275474 -0.7397632,0 -1.3532253,0.342817 -1.6960423,0.9021501 -0.234559,-0.6495481 -0.6856341,-0.9021501 -1.3712682,-0.9021501 -0.8299782,0 -1.2990963,0.324774 -1.6960423,0.7938921 H 1.6232028 L 1.4427727,-5.4487915 H 0.84735365 V 1.9538792e-4 H 1.7134178 V -3.7527492 c 0.18043,-0.5954191 0.6315051,-1.0645372 1.2990962,-1.0645372 0.8660641,0 1.0284512,0.5773761 1.0284512,1.7321283 V 1.9538792e-4 Z M 9.9951562,-5.4487915 H 8.984748 L 11.185994,1.9538792e-4 C 10.951435,1.0466896 10.536446,1.4255926 10.121457,1.4255926 c -0.09021,0 -0.1804299,-0.018043 -0.2706449,-0.054129 l -0.144344,0.7578061 c 0.162387,0.072172 0.3789029,0.1082581 0.6315049,0.1082581 0.974322,0 1.407354,-1.37126827 1.894516,-2.7966655 l 1.605827,-4.8896538 h -0.884107 l -1.046495,3.5183856 -0.252602,1.06453715 h -0.05413 L 11.312295,-1.9123629 Z m 4.5964548,2.7064504 h 2.634279 v -0.8119351 h -2.634279 z m 4.127337,2.41776243 c 0.324774,0.21651604 1.046494,0.41498907 1.840386,0.41498907 1.696043,0 2.670365,-1.01040816 2.670365,-2.9049235 0,-1.8764723 -0.703677,-2.7786224 -2.111032,-2.7786224 -0.613462,0 -1.154752,0.252602 -1.497569,0.6675911 h -0.03609 v -2.7064505 h -0.86606 z M 20.95628,-4.8172864 c 0.992366,0 1.371269,0.8480211 1.371269,1.9847303 0,1.4975693 -0.631505,2.16516038 -1.623871,2.16516038 -0.433032,0 -0.848021,-0.072172 -1.118666,-0.23455904 V -3.6625342 c 0.198473,-0.7397631 0.649548,-1.1547522 1.371268,-1.1547522 z m 6.414288,-0.6315051 c -0.270645,-0.090215 -0.505204,-0.126301 -0.72172,-0.126301 -0.577376,0 -0.956279,0.288688 -1.226924,0.7758491 h -0.03609 l -0.18043,-0.6495481 H 24.609989 V 1.9538792e-4 h 0.866064 V -3.8249212 c 0.09022,-0.5232471 0.451075,-0.9021502 1.08258,-0.9021502 0.18043,0 0.396946,0.036086 0.613462,0.108258 z m 1.127688,1.0464942 c 0.396946,-0.2345591 1.136709,-0.3789031 1.605827,-0.3789031 0.866064,0 1.118666,0.270645 1.118666,1.0825802 0,0.18043 0,0.36086 -0.03609,0.5954191 -0.198473,-0.036086 -0.396946,-0.036086 -0.595419,-0.036086 -1.587784,0 -2.688407,0.396946 -2.688407,1.6779992 0,0.9562792 0.703677,1.5516983 1.62387,1.5516983 0.938236,0 1.44344,-0.43303207 1.714085,-0.82997813 h 0.05413 l 0.216516,0.75780612 h 0.649548 c -0.126301,-0.39694606 -0.144344,-0.88410714 -0.144344,-1.42539719 0,-0.7397632 0.05413,-1.5877843 0.05413,-2.4538484 0,-0.7758492 -0.216516,-1.6779993 -1.732128,-1.6779993 -0.793892,0 -1.569741,0.162387 -2.111031,0.4871611 z m 1.281053,3.71685858 c -0.577376,0 -0.974322,-0.34281708 -0.974322,-0.86606418 0,-0.7217201 0.866064,-0.9201931 1.768214,-0.9201931 0.198473,0 0.414989,0.018043 0.613462,0.018043 v 0.9201931 c -0.144344,0.3789031 -0.577376,0.84802118 -1.407354,0.84802118 z M 38.092623,1.9538792e-4 V -3.3016742 c 0,-1.8043003 -0.613463,-2.2914613 -1.804301,-2.2914613 -0.793892,0 -1.407354,0.342817 -1.750171,0.7938921 h -0.03609 l -0.18043,-0.6495481 H 33.726216 V 1.9538792e-4 H 34.59228 V -3.7347062 c 0.198473,-0.6134621 0.72172,-1.0825802 1.479526,-1.0825802 0.884107,0 1.154752,0.5773761 1.154752,1.7140853 V 1.9538792e-4 Z M 43.12211,-1.0282558 c -0.252602,0.21651605 -0.685634,0.39694608 -1.208882,0.39694608 -1.208881,0 -1.62387,-0.99236518 -1.62387,-2.09298838 0,-1.4073542 0.505204,-2.0929883 1.551698,-2.0929883 0.451075,0 0.866065,0.108258 1.208882,0.306731 l 0.252602,-0.7578061 c -0.396946,-0.216516 -0.848021,-0.324774 -1.551699,-0.324774 -1.515612,0 -2.363633,1.0284511 -2.363633,2.8688374 0,1.7140853 0.631505,2.85079451 2.309504,2.85079451 0.649548,0 1.281054,-0.16238703 1.714086,-0.48716108 z M 48.981575,1.9538792e-4 V -3.3016742 c 0,-1.8043003 -0.559333,-2.2914613 -1.786257,-2.2914613 -0.77585,0 -1.281054,0.306731 -1.678,0.7397631 h -0.03609 v -2.7786225 h -0.86606 V 1.9538792e-4 h 0.866064 V -3.6264482 c 0.144344,-0.7036771 0.793892,-1.1908382 1.461483,-1.1908382 0.95628,0 1.172796,0.5773761 1.172796,1.7140853 V 1.9538792e-4 Z m 0,0"
       style="fill:#000040;fill-opacity:0;fill-rule:nonzero;stroke:none"
       aria-label="my-branch"
       transform="matrix(0.86598667,0,0,0.86598667,445.43417,180.55842)" />
    <path
       id="path113"
       d="m 26.28099,128.63216 h 27.3904"
       style="fill:none;stroke:#000040;stroke-width:1.19553;stroke-linecap:butt;stroke-linejoin:miter;stroke-miterlimit:10;stroke-dasharray:none;stroke-opacity:0"
       transform="matrix(0.86598667,0,0,-0.86598667,469.06608,289.61386)" />
    <path
       id="path114"
       d="M -1.91284,2.55046 C -1.75343,1.59402 0,0.15938 0.4782,0 0,-0.15938 -1.75343,-1.59402 -1.91284,-2.55046"
       style="fill:none;stroke:#000040;stroke-width:0.9564;stroke-linecap:round;stroke-linejoin:round;stroke-miterlimit:10;stroke-dasharray:none;stroke-opacity:0"
       transform="matrix(0.86598667,0,0,-0.86598667,515.54479,178.22012)" />
    <path
       id="path115"
       d="M 5.5029058,-0.00208682 H 6.405056 V -7.6342771 H 5.5029058 v 3.3199126 H 1.8401762 V -7.6342771 H 0.91998306 v 7.63219028 H 1.8401762 V -3.5024294 h 3.6627296 z m 2.7470472,0 h 4.222063 V -0.81402195 H 9.1701462 V -3.5204724 H 12.147242 V -4.3324075 H 9.1701462 V -6.8403849 H 12.417887 V -7.6342771 H 8.249953 Z m 10.270979,0 h 0.95628 L 16.572288,-7.7605781 h -0.414989 l -2.88688,7.75849128 h 0.884107 l 0.775849,-2.11103138 h 2.814708 z m -2.453848,-5.21442788 0.270645,-1.1727952 0.288688,1.1547522 0.848021,2.3275474 h -2.255375 z m 4.411514,5.23247088 c 0.306731,0.03608601 1.479527,0.07217202 1.948645,0.07217202 2.652321,0 3.662729,-1.9125583 3.662729,-3.9694607 0,-2.2734183 -1.100623,-3.8431596 -3.554471,-3.8431596 -0.613462,0 -1.49757,0 -2.056903,0.090215 z M 22.553544,-6.9306 c 1.98473,0 2.580149,1.6419133 2.580149,3.0492675 0,1.6419133 -0.649548,3.17556857 -2.688407,3.17556857 -0.162387,0 -0.902151,-0.036086 -1.046495,-0.054129 V -6.876471 c 0.198473,-0.036086 0.77585,-0.054129 1.154753,-0.054129 z m 0,0"
       style="fill:#000040;fill-opacity:0;fill-rule:nonzero;stroke:none"
       aria-label="HEAD"
       transform="matrix(0.86598667,0,0,0.86598667,455.41034,142.66978)" />
    <path
       id="path116"
       d="m -2.42183,165.75064 v -27.3904"
       style="fill:none;stroke:#000040;stroke-width:1.19553;stroke-linecap:butt;stroke-linejoin:miter;stroke-miterlimit:10;stroke-dasharray:none;stroke-opacity:0"
       transform="matrix(0.86598667,0,0,-0.86598667,469.06608,289.61386)" />
    <path
       id="path117"
       d="M -1.91284,2.55046 C -1.75343,1.59402 0,0.15938 0.4782,0 0,-0.15938 -1.75343,-1.59402 -1.91284,-2.55046"
       style="fill:none;stroke:#000040;stroke-width:0.9564;stroke-linecap:round;stroke-linejoin:round;stroke-miterlimit:10;stroke-dasharray:none;stroke-opacity:0"
       transform="matrix(0,0.86598667,0.86598667,0,466.96881,169.79573)" />
    <path
       id="path118"
       d="m 22.09663,92.30171 h -44.19326 c -2.20095,0 -3.98511,-1.78416 -3.98511,-3.98511 v -7.20005 c 0,-2.20095 1.78416,-3.98511 3.98511,-3.98511 h 44.19326 c 2.20095,0 3.98511,1.78416 3.98511,3.98511 v 7.20005 c 0,2.20095 -1.78416,3.98511 -3.98511,3.98511 z"
       style="fill:none;stroke:#000040;stroke-width:0.3985;stroke-linecap:butt;stroke-linejoin:miter;stroke-miterlimit:10;stroke-dasharray:none;stroke-opacity:1"
       transform="matrix(0.86598667,0,0,-0.86598667,469.06608,289.61386)" />
    <path
       id="path119"
       d="m 5.5942097,-1.0269204 c -0.324774,0.21651607 -0.8299781,0.34281709 -1.4614832,0.34281709 -1.4434402,0 -2.5621064,-1.04649419 -2.5621064,-3.13948249 0,-2.3275474 1.2269242,-3.1394825 2.4177624,-3.1394825 0.6495481,0 1.1727952,0.090215 1.4975692,0.252602 l 0.216516,-0.7938921 c -0.378903,-0.1623871 -0.9021501,-0.2706451 -1.7682142,-0.2706451 -1.6238703,0 -3.31991259,1.1006232 -3.31991259,3.9514177 0,2.7425364 1.47952629,3.95141763 3.30186959,3.95141763 0.7578061,0 1.4614832,-0.10825802 1.8945153,-0.45107508 z m 0.7938922,-1.6960422 c 0,1.7140852 0.7397631,2.85079443 2.3816764,2.85079443 1.5336557,0 2.3997197,-1.02845117 2.3997197,-2.85079443 0,-1.7321283 -0.757806,-2.8688375 -2.3997197,-2.8688375 -1.5336553,0 -2.3816764,1.0284512 -2.3816764,2.8688375 z m 0.9021501,0 c 0,-1.4253973 0.5052041,-2.0929884 1.4795263,-2.0929884 1.0825801,0 1.4795257,0.9562792 1.4795257,2.0929884 0,1.4073542 -0.4871606,2.0929883 -1.4795257,2.0929883 -1.0825802,0 -1.4795263,-0.9923652 -1.4795263,-2.0929883 z m 9.31019,2.7244934 v -3.6446866 c 0.18043,-0.7578061 0.577376,-1.1727952 1.299096,-1.1727952 0.866064,0 1.028451,0.4871611 1.028451,1.5336553 v 3.2838265 h 0.884107 v -3.2657835 c 0,-1.8403863 -0.487161,-2.3275474 -1.696042,-2.3275474 -0.739763,0 -1.353225,0.342817 -1.696042,0.9021501 -0.23456,-0.6495481 -0.685635,-0.9021501 -1.371269,-0.9021501 -0.829978,0 -1.299096,0.324774 -1.696042,0.7938921 h -0.03609 l -0.18043,-0.6495481 h -0.595419 v 5.4489869 h 0.866064 v -3.7529446 c 0.18043,-0.5954191 0.631505,-1.0645372 1.299096,-1.0645372 0.866064,0 1.028451,0.5773761 1.028451,1.7321283 v 3.0853535 z m 8.859114,0 v -3.6446866 c 0.18043,-0.7578061 0.577376,-1.1727952 1.299096,-1.1727952 0.866064,0 1.028451,0.4871611 1.028451,1.5336553 v 3.2838265 h 0.884108 v -3.2657835 c 0,-1.8403863 -0.487162,-2.3275474 -1.696043,-2.3275474 -0.739763,0 -1.353225,0.342817 -1.696042,0.9021501 -0.234559,-0.6495481 -0.685634,-0.9021501 -1.371268,-0.9021501 -0.829978,0 -1.299096,0.324774 -1.696043,0.7938921 h -0.03609 l -0.18043,-0.6495481 H 21.39988 v 5.4489869 h 0.866064 v -3.7529446 c 0.180431,-0.5954191 0.631506,-1.0645372 1.299097,-1.0645372 0.866064,0 1.028451,0.5773761 1.028451,1.7321283 v 3.0853535 z m 4.979869,0 h 0.866064 v -5.4489869 h -0.866064 z m -0.18043,-7.1089432 c 0,0.3247741 0.234559,0.5773761 0.595419,0.5773761 0.342817,0 0.631505,-0.252602 0.631505,-0.5773761 0,-0.342817 -0.288688,-0.6134621 -0.631505,-0.6134621 -0.36086,0 -0.595419,0.2706451 -0.595419,0.6134621 z m 2.201246,2.4177624 h 0.848021 v 3.1936116 c 0,1.15475215 0.324774,1.62387023 1.208881,1.62387023 0.541291,0 1.010409,-0.12630103 1.389312,-0.30673105 l -0.18043,-0.66759111 c -0.324774,0.14434402 -0.559333,0.21651603 -0.920193,0.21651603 -0.451076,0 -0.631506,-0.28868805 -0.631506,-1.0464942 V -4.68965 h 1.49757 v -0.7578061 h -1.49757 v -1.3351822 l -0.866064,0.252602 v 1.0825802 h -0.848021 z m 11.344538,-1.2088812 c 0,-1.1006231 -0.703677,-1.8764723 -1.948644,-1.8764723 -0.811935,0 -1.533655,0.2706451 -2.038859,0.7036771 l 0.36086,0.6134621 c 0.378903,-0.288688 0.920193,-0.54129 1.479526,-0.54129 0.829978,0 1.244967,0.523247 1.244967,1.2449672 0,1.8403863 -2.327547,4.4385787 -3.283826,5.43094385 V 0.0015308 h 4.33032 v -0.81193513 h -2.381676 l -0.685634,0.12630102 v -0.054129 L 41.40506,-1.2073504 c 1.136709,-1.3893112 2.399719,-3.1755685 2.399719,-4.6911808 z m 0,0"
       style="fill:#000040;fill-opacity:1;fill-rule:nonzero;stroke:none"
       aria-label="Commit2"
       transform="matrix(0.86598667,0,0,0.86598667,449.62815,219.55727)" />
    <path
       id="path120"
       d="M 0,76.93219 V 49.5418"
       style="fill:none;stroke:#000040;stroke-width:1.19553;stroke-linecap:butt;stroke-linejoin:miter;stroke-miterlimit:10;stroke-dasharray:none;stroke-opacity:1"
       transform="matrix(0.86598667,0,0,-0.86598667,469.06608,289.61386)" />
    <path
       id="path121"
       d="M -1.91284,2.55046 C -1.75343,1.59402 0,0.15938 0.4782,0 0,-0.15938 -1.75343,-1.59402 -1.91284,-2.55046"
       style="fill:none;stroke:#000040;stroke-width:0.9564;stroke-linecap:round;stroke-linejoin:round;stroke-miterlimit:10;stroke-dasharray:none;stroke-opacity:1"
       transform="matrix(0,0.86598667,0.86598667,0,469.06608,246.71132)" />
    <path
       id="path122"
       d="m 22.09663,136.21729 h -44.19326 c -2.20095,0 -3.98511,-1.78417 -3.98511,-3.98511 v -7.20004 c 0,-2.20095 1.78416,-3.98511 3.98511,-3.98511 h 44.19326 c 2.20095,0 3.98511,1.78416 3.98511,3.98511 v 7.20004 c 0,2.20094 -1.78416,3.98511 -3.98511,3.98511 z"
       style="fill:none;stroke:#000040;stroke-width:0.3985;stroke-linecap:butt;stroke-linejoin:miter;stroke-miterlimit:10;stroke-dasharray:none;stroke-opacity:1"
       transform="matrix(0.86598667,0,0,-0.86598667,469.06608,289.61386)" />
    <path
       id="path123"
       d="m 5.5942097,-1.0275896 c -0.324774,0.21651604 -0.8299781,0.34281706 -1.4614832,0.34281706 -1.4434402,0 -2.5621064,-1.04649416 -2.5621064,-3.13948256 0,-2.3275473 1.2269242,-3.1394825 2.4177624,-3.1394825 0.6495481,0 1.1727952,0.090215 1.4975692,0.2526021 l 0.216516,-0.7938922 c -0.378903,-0.162387 -0.9021501,-0.270645 -1.7682142,-0.270645 -1.6238703,0 -3.31991259,1.1006232 -3.31991259,3.9514176 0,2.7425365 1.47952629,3.95141769 3.30186959,3.95141769 0.7578061,0 1.4614832,-0.10825801 1.8945153,-0.45107507 z m 0.7938922,-1.6960423 c 0,1.7140853 0.7397631,2.85079449 2.3816764,2.85079449 1.5336557,0 2.3997197,-1.02845117 2.3997197,-2.85079449 0,-1.7321283 -0.757806,-2.8688374 -2.3997197,-2.8688374 -1.5336553,0 -2.3816764,1.0284511 -2.3816764,2.8688374 z m 0.9021501,0 c 0,-1.4253972 0.5052041,-2.0929883 1.4795263,-2.0929883 1.0825801,0 1.4795257,0.9562791 1.4795257,2.0929883 0,1.4073543 -0.4871606,2.09298837 -1.4795257,2.09298837 -1.0825802,0 -1.4795263,-0.99236517 -1.4795263,-2.09298837 z m 9.31019,2.72449347216 V -3.643825 c 0.18043,-0.7578062 0.577376,-1.1727952 1.299096,-1.1727952 0.866064,0 1.028451,0.4871611 1.028451,1.5336552 V 8.6157216e-4 h 0.884107 V -3.264922 c 0,-1.8403863 -0.487161,-2.3275473 -1.696042,-2.3275473 -0.739763,0 -1.353225,0.342817 -1.696042,0.9021501 -0.23456,-0.6495481 -0.685635,-0.9021501 -1.371269,-0.9021501 -0.829978,0 -1.299096,0.324774 -1.696042,0.7938921 h -0.03609 l -0.18043,-0.6495481 H 12.540766 V 8.6157216e-4 H 13.40683 V -3.752083 c 0.18043,-0.5954191 0.631505,-1.0645372 1.299096,-1.0645372 0.866064,0 1.028451,0.5773761 1.028451,1.7321283 V 8.6157216e-4 Z m 8.859114,0 V -3.643825 c 0.18043,-0.7578062 0.577376,-1.1727952 1.299096,-1.1727952 0.866064,0 1.028451,0.4871611 1.028451,1.5336552 V 8.6157216e-4 h 0.884108 V -3.264922 c 0,-1.8403863 -0.487162,-2.3275473 -1.696043,-2.3275473 -0.739763,0 -1.353225,0.342817 -1.696042,0.9021501 -0.234559,-0.6495481 -0.685634,-0.9021501 -1.371268,-0.9021501 -0.829978,0 -1.299096,0.324774 -1.696043,0.7938921 h -0.03609 l -0.18043,-0.6495481 H 21.39988 V 8.6157216e-4 h 0.866064 V -3.752083 c 0.180431,-0.5954191 0.631506,-1.0645372 1.299097,-1.0645372 0.866064,0 1.028451,0.5773761 1.028451,1.7321283 V 8.6157216e-4 Z m 4.979869,0 h 0.866064 V -5.4481253 H 30.439425 Z M 30.258995,-7.1080816 c 0,0.3247741 0.234559,0.5773761 0.595419,0.5773761 0.342817,0 0.631505,-0.252602 0.631505,-0.5773761 0,-0.3428171 -0.288688,-0.6134621 -0.631505,-0.6134621 -0.36086,0 -0.595419,0.270645 -0.595419,0.6134621 z m 2.201246,2.4177624 h 0.848021 v 3.1936115 c 0,1.15475222 0.324774,1.62387029 1.208881,1.62387029 0.541291,0 1.010409,-0.12630101784 1.389312,-0.30673105 l -0.18043,-0.66759111 c -0.324774,0.14434403 -0.559333,0.21651604 -0.920193,0.21651604 -0.451076,0 -0.631506,-0.28868805 -0.631506,-1.04649417 v -3.0131815 h 1.49757 v -0.7578061 h -1.49757 v -1.3351822 l -0.866064,0.252602 v 1.0825802 h -0.848021 z m 9.035034,4.05967567 c -0.577376,0 -1.028451,-0.12630102 -1.371268,-0.28868805 l -0.234559,0.77584913 c 0.396946,0.16238703 0.938236,0.27064504 1.569741,0.27064504 1.44344,0 2.634278,-0.86606414 2.634278,-2.45384839 0,-1.2990962 -0.884107,-2.1110314 -2.038859,-2.1290744 l -0.378903,0.072172 v -0.018043 l 0.396946,-0.306731 1.732128,-2.6162354 v -0.3067311 h -3.897288 v 0.7938921 h 2.16516 l 0.703677,-0.108258 -0.505204,0.4871611 -1.569741,2.4177624 v 0.3247741 h 0.811935 c 1.046494,0 1.696042,0.487161 1.696042,1.4975692 0,0.9382362 -0.72172,1.58778427 -1.714085,1.58778427 z m 0,0"
       style="fill:#000040;fill-opacity:1;fill-rule:nonzero;stroke:none"
       aria-label="Commit3"
       transform="matrix(0.86598667,0,0,0.86598667,449.62815,181.5266)" />
    <path
       id="path124"
       d="M 0,120.84776 V 93.45738"
       style="fill:none;stroke:#000040;stroke-width:1.19553;stroke-linecap:butt;stroke-linejoin:miter;stroke-miterlimit:10;stroke-dasharray:none;stroke-opacity:1"
       transform="matrix(0.86598667,0,0,-0.86598667,469.06608,289.61386)" />
    <path
       id="path125"
       d="M -1.91284,2.55046 C -1.75343,1.59402 0,0.15938 0.4782,0 0,-0.15938 -1.75343,-1.59402 -1.91284,-2.55046"
       style="fill:none;stroke:#000040;stroke-width:0.9564;stroke-linecap:round;stroke-linejoin:round;stroke-miterlimit:10;stroke-dasharray:none;stroke-opacity:1"
       transform="matrix(0,0.86598667,0.86598667,0,469.06608,208.68101)" />
    <path
       id="path126"
       d="m 0.54080264,-2.7262931 c 0,1.7140852 0.73976316,2.85079443 2.38167636,2.85079443 1.5336553,0 2.3997194,-1.02845117 2.3997194,-2.85079443 0,-1.7321283 -0.7578061,-2.8688375 -2.3997194,-2.8688375 -1.5336552,0 -2.38167636,1.0284512 -2.38167636,2.8688375 z m 0.90215016,0 c 0,-1.4253973 0.5052041,-2.0929884 1.4795262,-2.0929884 1.0825802,0 1.4795263,0.9562792 1.4795263,2.0929884 0,1.4073542 -0.4871611,2.09298831 -1.4795263,2.09298831 -1.0825801,0 -1.4795262,-0.99236521 -1.4795262,-2.09298831 z m 4.5287937,-1.9666874 h 0.8480212 v 3.1936116 c 0,1.15475215 0.324774,1.62387023 1.2088812,1.62387023 0.5412901,0 1.0104081,-0.12630102 1.3893112,-0.30673105 l -0.18043,-0.66759111 C 8.912756,-0.7054768 8.678197,-0.63330479 8.3173369,-0.63330479 c -0.4510751,0 -0.6315051,-0.28868805 -0.6315051,-1.04649421 V -4.6929805 H 9.1834011 V -5.4507866 H 7.6858318 v -1.3351822 l -0.8660641,0.252602 v 1.0825802 H 5.9717465 Z m 8.7869425,4.69118081 V -3.3036692 c 0,-1.8043003 -0.559333,-2.2914614 -1.786257,-2.2914614 -0.775849,0 -1.281054,0.306731 -1.678,0.7397631 h -0.03609 v -2.7786224 h -0.866064 v 7.63219021 h 0.866064 V -3.6284433 c 0.144344,-0.7036771 0.793893,-1.1908382 1.461484,-1.1908382 0.956279,0 1.172795,0.5773761 1.172795,1.7140853 v 3.10339651 z m 5.246003,-1.06453721 c -0.252602,0.21651607 -0.811935,0.43303211 -1.299096,0.43303211 -1.281053,0 -1.750171,-0.73976311 -1.750171,-2.00277331 h 3.500342 c 0.03609,-0.3067311 0.07217,-0.5593331 0.07217,-0.8119352 0,-1.8223433 -1.08258,-2.1471173 -2.074945,-2.1471173 -1.533655,0 -2.39972,1.0284512 -2.39972,2.8688375 0,1.73212825 0.739764,2.85079443 2.39972,2.85079443 0.739763,0 1.44344,-0.21651603 1.876472,-0.55933309 z m -1.551698,-3.7529446 c 0.775849,0 1.226924,0.3789031 1.226924,1.4795263 h -2.724493 c 0.108258,-1.0645372 0.649548,-1.4795263 1.497569,-1.4795263 z m 6.211304,-0.6315051 c -0.270645,-0.090215 -0.505204,-0.126301 -0.721721,-0.126301 -0.577376,0 -0.956279,0.288688 -1.226924,0.7758491 h -0.03609 l -0.18043,-0.6495481 h -0.595419 v 5.44898691 h 0.866064 V -3.8269163 c 0.09022,-0.5232471 0.451075,-0.9021502 1.08258,-0.9021502 0.180431,0 0.396947,0.036086 0.613463,0.1082581 z m 0,0"
       style="fill:#000040;fill-opacity:1;fill-rule:nonzero;stroke:none"
       aria-label="other"
       transform="matrix(0.86598667,0,0,0.86598667,396.99261,181.47031)" />
    <path
       id="path127"
       d="m -54.6278,128.63216 h 27.39039"
       style="fill:none;stroke:#000040;stroke-width:1.19553;stroke-linecap:butt;stroke-linejoin:miter;stroke-miterlimit:10;stroke-dasharray:none;stroke-opacity:1"
       transform="matrix(0.86598667,0,0,-0.86598667,469.06608,289.61386)" />
    <path
       id="path128"
       d="M -1.91284,2.55046 C -1.75343,1.59402 0,0.15938 0.4782,0 0,-0.15938 -1.75343,-1.59402 -1.91284,-2.55046"
       style="fill:none;stroke:#000040;stroke-width:0.9564;stroke-linecap:round;stroke-linejoin:round;stroke-miterlimit:10;stroke-dasharray:none;stroke-opacity:1"
       transform="matrix(0.86598667,0,0,-0.86598667,445.47885,178.22012)" />
    <path
       id="path129"
       d="m 22.09663,180.13287 h -44.19326 c -2.20095,0 -3.98511,-1.78416 -3.98511,-3.9851 v -7.20006 c 0,-2.20094 1.78416,-3.98511 3.98511,-3.98511 h 44.19326 c 2.20095,0 3.98511,1.78417 3.98511,3.98511 v 7.20006 c 0,2.20094 -1.78416,3.9851 -3.98511,3.9851 z"
       style="fill:none;stroke:#000040;stroke-width:0.3985;stroke-linecap:butt;stroke-linejoin:miter;stroke-miterlimit:10;stroke-dasharray:none;stroke-opacity:1"
       transform="matrix(0.86598667,0,0,-0.86598667,469.06608,289.61386)" />
    <path
       id="path130"
       d="m 5.5942097,-1.0282588 c -0.324774,0.21651601 -0.8299781,0.34281703 -1.4614832,0.34281703 -1.4434402,0 -2.5621064,-1.04649413 -2.5621064,-3.13948253 0,-2.3275474 1.2269242,-3.1394825 2.4177624,-3.1394825 0.6495481,0 1.1727952,0.090215 1.4975692,0.252602 l 0.216516,-0.7938921 c -0.378903,-0.162387 -0.9021501,-0.270645 -1.7682142,-0.270645 -1.6238703,0 -3.31991259,1.1006231 -3.31991259,3.9514176 0,2.7425365 1.47952629,3.95141766 3.30186959,3.95141766 0.7578061,0 1.4614832,-0.10825802 1.8945153,-0.45107507 z m 0.7938922,-1.6960423 c 0,1.7140853 0.7397631,2.85079446 2.3816764,2.85079446 1.5336557,0 2.3997197,-1.02845117 2.3997197,-2.85079446 0,-1.7321283 -0.757806,-2.8688375 -2.3997197,-2.8688375 -1.5336553,0 -2.3816764,1.0284512 -2.3816764,2.8688375 z m 0.9021501,0 c 0,-1.4253972 0.5052041,-2.0929884 1.4795263,-2.0929884 1.0825801,0 1.4795257,0.9562792 1.4795257,2.0929884 0,1.4073542 -0.4871606,2.09298834 -1.4795257,2.09298834 -1.0825802,0 -1.4795263,-0.99236514 -1.4795263,-2.09298834 z m 9.31019,2.72449343937 V -3.6444943 c 0.18043,-0.7578061 0.577376,-1.1727952 1.299096,-1.1727952 0.866064,0 1.028451,0.4871611 1.028451,1.5336553 V 1.9233937e-4 h 0.884107 V -3.2655912 c 0,-1.8403863 -0.487161,-2.3275474 -1.696042,-2.3275474 -0.739763,0 -1.353225,0.3428171 -1.696042,0.9021502 -0.23456,-0.6495481 -0.685635,-0.9021502 -1.371269,-0.9021502 -0.829978,0 -1.299096,0.3247741 -1.696042,0.7938921 h -0.03609 l -0.18043,-0.6495481 H 12.540766 V 1.9233937e-4 H 13.40683 V -3.7527523 c 0.18043,-0.5954191 0.631505,-1.0645372 1.299096,-1.0645372 0.866064,0 1.028451,0.5773761 1.028451,1.7321283 V 1.9233937e-4 Z m 8.859114,0 V -3.6444943 c 0.18043,-0.7578061 0.577376,-1.1727952 1.299096,-1.1727952 0.866064,0 1.028451,0.4871611 1.028451,1.5336553 V 1.9233937e-4 h 0.884108 V -3.2655912 c 0,-1.8403863 -0.487162,-2.3275474 -1.696043,-2.3275474 -0.739763,0 -1.353225,0.3428171 -1.696042,0.9021502 -0.234559,-0.6495481 -0.685634,-0.9021502 -1.371268,-0.9021502 -0.829978,0 -1.299096,0.3247741 -1.696043,0.7938921 h -0.03609 l -0.18043,-0.6495481 H 21.39988 V 1.9233937e-4 h 0.866064 V -3.7527523 c 0.180431,-0.5954191 0.631506,-1.0645372 1.299097,-1.0645372 0.866064,0 1.028451,0.5773761 1.028451,1.7321283 V 1.9233937e-4 Z m 4.979869,0 h 0.866064 V -5.4487946 H 30.439425 Z M 30.258995,-7.1087508 c 0,0.324774 0.234559,0.5773761 0.595419,0.5773761 0.342817,0 0.631505,-0.2526021 0.631505,-0.5773761 0,-0.3428171 -0.288688,-0.6134621 -0.631505,-0.6134621 -0.36086,0 -0.595419,0.270645 -0.595419,0.6134621 z m 2.201246,2.4177624 h 0.848021 v 3.1936115 c 0,1.15475218 0.324774,1.62387026 1.208881,1.62387026 0.541291,0 1.010409,-0.12630102063 1.389312,-0.30673105 l -0.18043,-0.66759111 c -0.324774,0.14434402 -0.559333,0.21651604 -0.920193,0.21651604 -0.451076,0 -0.631506,-0.28868805 -0.631506,-1.04649414 v -3.0131815 h 1.49757 v -0.7578062 h -1.49757 v -1.3351822 l -0.866064,0.2526021 v 1.0825801 H 32.460241 Z M 44.6528,-3.1032042 h -1.281053 v -4.6550947 h -0.595419 l -3.626643,5.0520408 v 0.3608601 h 3.355998 V 1.9233937e-4 h 0.866064 V -2.345398 H 44.6528 Z m -2.147117,0 h -1.587784 l -0.775849,0.072172 0.523247,-0.523247 1.533655,-2.0929884 0.396946,-0.7397631 h 0.01804 l -0.108258,0.9021501 z m 0,0"
       style="fill:#000040;fill-opacity:1;fill-rule:nonzero;stroke:none"
       aria-label="Commit4"
       transform="matrix(0.86598667,0,0,0.86598667,449.62815,143.49593)" />
    <path
       id="path131"
       d="M 0,164.76335 V 137.37296"
       style="fill:none;stroke:#000040;stroke-width:1.19553;stroke-linecap:butt;stroke-linejoin:miter;stroke-miterlimit:10;stroke-dasharray:none;stroke-opacity:1"
       transform="matrix(0.86598667,0,0,-0.86598667,469.06608,289.61386)" />
    <path
       id="path132"
       d="M -1.91284,2.55046 C -1.75343,1.59402 0,0.15938 0.4782,0 0,-0.15938 -1.75343,-1.59402 -1.91284,-2.55046"
       style="fill:none;stroke:#000040;stroke-width:0.9564;stroke-linecap:round;stroke-linejoin:round;stroke-miterlimit:10;stroke-dasharray:none;stroke-opacity:1"
       transform="matrix(0,0.86598667,0.86598667,0,469.06608,170.65071)" />
    <path
       id="path133"
       d="m 22.09663,224.04845 h -44.19326 c -2.20095,0 -3.98511,-1.78417 -3.98511,-3.98511 v -7.20004 c 0,-2.20095 1.78416,-3.98511 3.98511,-3.98511 h 44.19326 c 2.20095,0 3.98511,1.78416 3.98511,3.98511 v 7.20004 c 0,2.20094 -1.78416,3.98511 -3.98511,3.98511 z"
       style="fill:none;stroke:#000040;stroke-width:0.3985;stroke-linecap:butt;stroke-linejoin:miter;stroke-miterlimit:10;stroke-dasharray:none;stroke-opacity:1"
       transform="matrix(0.86598667,0,0,-0.86598667,469.06608,289.61386)" />
    <path
       id="path134"
       d="m 5.5942097,-1.0299281 c -0.324774,0.21651607 -0.8299781,0.34281709 -1.4614832,0.34281709 -1.4434402,0 -2.5621064,-1.04649419 -2.5621064,-3.13948249 0,-2.3275474 1.2269242,-3.1394825 2.4177624,-3.1394825 0.6495481,0 1.1727952,0.090215 1.4975692,0.252602 l 0.216516,-0.7938921 c -0.378903,-0.1623871 -0.9021501,-0.2706451 -1.7682142,-0.2706451 -1.6238703,0 -3.31991259,1.1006232 -3.31991259,3.9514177 0,2.7425364 1.47952629,3.95141763 3.30186959,3.95141763 0.7578061,0 1.4614832,-0.10825802 1.8945153,-0.45107508 z m 0.7938922,-1.6960422 c 0,1.7140852 0.7397631,2.85079443 2.3816764,2.85079443 1.5336557,0 2.3997197,-1.02845117 2.3997197,-2.85079443 0,-1.7321283 -0.757806,-2.8688375 -2.3997197,-2.8688375 -1.5336553,0 -2.3816764,1.0284512 -2.3816764,2.8688375 z m 0.9021501,0 c 0,-1.4253973 0.5052041,-2.0929884 1.4795263,-2.0929884 1.0825801,0 1.4795257,0.9562792 1.4795257,2.0929884 0,1.4073542 -0.4871606,2.0929883 -1.4795257,2.0929883 -1.0825802,0 -1.4795263,-0.9923652 -1.4795263,-2.0929883 z m 9.31019,2.72449341 V -3.6461635 c 0.18043,-0.7578061 0.577376,-1.1727952 1.299096,-1.1727952 0.866064,0 1.028451,0.4871611 1.028451,1.5336553 v 3.28382651 h 0.884107 V -3.2672604 c 0,-1.8403863 -0.487161,-2.3275474 -1.696042,-2.3275474 -0.739763,0 -1.353225,0.342817 -1.696042,0.9021501 -0.23456,-0.6495481 -0.685635,-0.9021501 -1.371269,-0.9021501 -0.829978,0 -1.299096,0.324774 -1.696042,0.7938921 h -0.03609 l -0.18043,-0.6495481 h -0.595419 v 5.44898691 H 13.40683 V -3.7544215 c 0.18043,-0.5954191 0.631505,-1.0645372 1.299096,-1.0645372 0.866064,0 1.028451,0.5773761 1.028451,1.7321283 v 3.08535351 z m 8.859114,0 V -3.6461635 c 0.18043,-0.7578061 0.577376,-1.1727952 1.299096,-1.1727952 0.866064,0 1.028451,0.4871611 1.028451,1.5336553 v 3.28382651 h 0.884108 V -3.2672604 c 0,-1.8403863 -0.487162,-2.3275474 -1.696043,-2.3275474 -0.739763,0 -1.353225,0.342817 -1.696042,0.9021501 -0.234559,-0.6495481 -0.685634,-0.9021501 -1.371268,-0.9021501 -0.829978,0 -1.299096,0.324774 -1.696043,0.7938921 h -0.03609 l -0.18043,-0.6495481 H 21.39988 v 5.44898691 h 0.866064 V -3.7544215 c 0.180431,-0.5954191 0.631506,-1.0645372 1.299097,-1.0645372 0.866064,0 1.028451,0.5773761 1.028451,1.7321283 v 3.08535351 z m 4.979869,0 h 0.866064 V -5.4504638 h -0.866064 z m -0.18043,-7.10894321 c 0,0.3247741 0.234559,0.5773761 0.595419,0.5773761 0.342817,0 0.631505,-0.252602 0.631505,-0.5773761 0,-0.342817 -0.288688,-0.6134621 -0.631505,-0.6134621 -0.36086,0 -0.595419,0.2706451 -0.595419,0.6134621 z m 2.201246,2.4177624 h 0.848021 v 3.1936116 c 0,1.15475215 0.324774,1.62387023 1.208881,1.62387023 0.541291,0 1.010409,-0.12630102 1.389312,-0.30673105 l -0.18043,-0.66759111 c -0.324774,0.14434402 -0.559333,0.21651603 -0.920193,0.21651603 -0.451076,0 -0.631506,-0.28868804 -0.631506,-1.0464942 v -3.0131815 h 1.49757 v -0.7578061 h -1.49757 V -6.785646 l -0.866064,0.252602 v 1.0825802 h -0.848021 z m 8.800475,4.0596757 c -0.577376,0 -0.920193,-0.054129 -1.26301,-0.18043003 l -0.216516,0.72172012 c 0.378903,0.14434403 0.811935,0.21651604 1.461483,0.21651604 1.44344,0 2.616235,-0.88410715 2.616235,-2.50797743 0,-1.4795262 -0.884107,-2.2914614 -2.309504,-2.3095044 l -0.469118,0.036086 V -6.839775 h 2.580149 v -0.7938922 h -3.410127 v 3.7709877 l 0.920193,-0.054129 c 1.136709,0 1.822343,0.523247 1.822343,1.5877842 0,1.1006232 -0.72172,1.6960423 -1.732128,1.6960423 z m 0,0"
       style="fill:#000040;fill-opacity:1;fill-rule:nonzero;stroke:none"
       aria-label="Commit5"
       transform="matrix(0.86598667,0,0,0.86598667,449.62815,105.46612)" />
    <path
       id="path135"
       d="m 0,208.67894 v -27.3904"
       style="fill:none;stroke:#000040;stroke-width:1.19553;stroke-linecap:butt;stroke-linejoin:miter;stroke-miterlimit:10;stroke-dasharray:none;stroke-opacity:1"
       transform="matrix(0.86598667,0,0,-0.86598667,469.06608,289.61386)" />
    <path
       id="path136"
       d="M -1.91284,2.55046 C -1.75343,1.59402 0,0.15938 0.4782,0 0,-0.15938 -1.75343,-1.59402 -1.91284,-2.55046"
       style="fill:none;stroke:#000040;stroke-width:0.9564;stroke-linecap:round;stroke-linejoin:round;stroke-miterlimit:10;stroke-dasharray:none;stroke-opacity:1"
       transform="matrix(0,0.86598667,0.86598667,0,469.06608,132.6204)" />
    <path
       id="path137"
       d="M 4.9066932,-0.00214308 V -3.6468297 c 0.1804301,-0.7578061 0.5773761,-1.1727952 1.2990963,-1.1727952 0.8660641,0 1.0284511,0.4871611 1.0284511,1.5336553 v 3.28382652 H 8.1183478 V -3.2679266 c 0,-1.8403863 -0.4871611,-2.3275474 -1.6960423,-2.3275474 -0.7397631,0 -1.3532252,0.3428171 -1.6960423,0.9021501 C 4.4917042,-5.342872 4.0406291,-5.595474 3.354995,-5.595474 c -0.8299781,0 -1.2990962,0.3247741 -1.6960423,0.7938921 H 1.6228667 L 1.4424367,-5.45113 H 0.84701758 v 5.44898692 H 1.7130817 V -3.7550877 c 0.18043,-0.5954191 0.6315051,-1.0645372 1.2990962,-1.0645372 0.8660642,0 1.0284512,0.5773761 1.0284512,1.7321283 v 3.08535352 z M 9.9948201,-5.45113 H 8.9844119 l 2.2012461,5.44898692 C 10.951099,1.0443511 10.53611,1.4232542 10.121121,1.4232542 c -0.09022,0 -0.1804299,-0.018043 -0.2706449,-0.054129 L 9.706132,2.1269313 c 0.1623871,0.072172 0.378903,0.108258 0.631505,0.108258 0.974322,0 1.407354,-1.37126824 1.894515,-2.79666547 L 13.83798,-5.45113 h -0.884107 l -1.046495,3.5183856 -0.252602,1.06453718 h -0.05413 L 11.311959,-1.9147014 Z m 4.5964549,2.7064505 h 2.634279 v -0.8119352 h -2.634279 z m 4.127337,2.41776237 c 0.324774,0.21651603 1.046494,0.41498907 1.840386,0.41498907 1.696043,0 2.670365,-1.01040817 2.670365,-2.90492344 0,-1.8764724 -0.703677,-2.7786225 -2.111032,-2.7786225 -0.613462,0 -1.154752,0.252602 -1.497569,0.6675911 h -0.03609 v -2.7064504 h -0.866064 z m 2.237332,-4.49270777 c 0.992366,0 1.371269,0.8480212 1.371269,1.9847304 0,1.4975692 -0.631505,2.16516031 -1.623871,2.16516031 -0.433032,0 -0.848021,-0.072172 -1.118666,-0.23455904 V -3.6648727 c 0.198473,-0.7397631 0.649548,-1.1547522 1.371268,-1.1547522 z M 27.370232,-5.45113 c -0.270645,-0.090215 -0.505204,-0.126301 -0.72172,-0.126301 -0.577376,0 -0.956279,0.2886881 -1.226924,0.7758491 h -0.03609 L 25.205072,-5.45113 h -0.59542 v 5.44898692 h 0.866065 V -3.8272597 c 0.09022,-0.5232471 0.451075,-0.9021502 1.08258,-0.9021502 0.18043,0 0.396946,0.036086 0.613462,0.1082581 z m 1.127688,1.0464942 c 0.396946,-0.234559 1.136709,-0.3789031 1.605827,-0.3789031 0.866064,0 1.118666,0.2706451 1.118666,1.0825802 0,0.18043 0,0.3608601 -0.03609,0.5954191 -0.198473,-0.036086 -0.396946,-0.036086 -0.595419,-0.036086 -1.587784,0 -2.688407,0.3969461 -2.688407,1.6779993 0,0.95627914 0.703677,1.55169824 1.62387,1.55169824 0.938236,0 1.44344,-0.43303207 1.714085,-0.82997814 h 0.05413 l 0.216516,0.75780613 h 0.649548 c -0.126301,-0.39694607 -0.144344,-0.88410715 -0.144344,-1.42539723 0,-0.7397631 0.05413,-1.5877843 0.05413,-2.4538484 0,-0.7758491 -0.216516,-1.6779993 -1.732128,-1.6779993 -0.793892,0 -1.569741,0.162387 -2.111031,0.4871611 z m 1.281053,3.71685861 c -0.577376,0 -0.974322,-0.34281701 -0.974322,-0.86606411 0,-0.7217202 0.866064,-0.9201932 1.768214,-0.9201932 0.198473,0 0.414989,0.018043 0.613462,0.018043 v 0.9201932 c -0.144344,0.378903 -0.577376,0.84802111 -1.407354,0.84802111 z m 8.313313,0.68563411 V -3.3040126 c 0,-1.8043003 -0.613462,-2.2914614 -1.8043,-2.2914614 -0.793892,0 -1.407354,0.3428171 -1.750171,0.7938921 h -0.03609 L 34.321299,-5.45113 H 33.72588 v 5.44898692 h 0.866064 V -3.7370447 c 0.198473,-0.6134621 0.72172,-1.0825802 1.479526,-1.0825802 0.884107,0 1.154752,0.5773761 1.154752,1.7140853 v 3.10339652 z m 5.029488,-1.02845112 c -0.252603,0.21651599 -0.685635,0.39694602 -1.208882,0.39694602 -1.208881,0 -1.62387,-0.99236512 -1.62387,-2.09298832 0,-1.4073543 0.505204,-2.0929884 1.551698,-2.0929884 0.451075,0 0.866064,0.108258 1.208882,0.3067311 l 0.252602,-0.7578061 C 42.905258,-5.487216 42.454182,-5.595474 41.750505,-5.595474 c -1.515612,0 -2.363633,1.0284512 -2.363633,2.8688375 0,1.7140853 0.631505,2.85079444 2.309504,2.85079444 0.649548,0 1.281054,-0.16238702 1.714086,-0.48716108 z m 5.859465,1.02845112 V -3.3040126 c 0,-1.8043003 -0.559333,-2.2914614 -1.786258,-2.2914614 -0.775849,0 -1.281053,0.3067311 -1.677999,0.7397631 h -0.03609 v -2.7786224 h -0.866064 v 7.63219022 h 0.866064 V -3.6287867 c 0.144344,-0.7036771 0.793892,-1.1908382 1.461483,-1.1908382 0.95628,0 1.172796,0.5773761 1.172796,1.7140853 v 3.10339652 z m 0,0"
       style="fill:#000040;fill-opacity:1;fill-rule:nonzero;stroke:none"
       aria-label="my-branch"
       transform="matrix(0.86598667,0,0,0.86598667,375.36806,104.49795)" />
    <path
       id="path138"
       d="m -54.6278,216.46332 h 27.39039"
       style="fill:none;stroke:#000040;stroke-width:1.19553;stroke-linecap:butt;stroke-linejoin:miter;stroke-miterlimit:10;stroke-dasharray:none;stroke-opacity:1"
       transform="matrix(0.86598667,0,0,-0.86598667,469.06608,289.61386)" />
    <path
       id="path139"
       d="M -1.91284,2.55046 C -1.75343,1.59402 0,0.15938 0.4782,0 0,-0.15938 -1.75343,-1.59402 -1.91284,-2.55046"
       style="fill:none;stroke:#000040;stroke-width:0.9564;stroke-linecap:round;stroke-linejoin:round;stroke-miterlimit:10;stroke-dasharray:none;stroke-opacity:1"
       transform="matrix(0.86598667,0,0,-0.86598667,445.47885,102.15951)" />
    <path
       id="path140"
       d="M 5.5025697,8.5467059e-5 H 6.4047199 V -7.6321048 H 5.5025697 v 3.3199126 H 1.8398401 V -7.6321048 H 0.91964698 V 8.5467059e-5 H 1.8398401 V -3.5002571 h 3.6627296 z m 2.7470472,0 H 12.47168 V -0.81184967 H 9.1698101 V -3.5183001 H 12.146906 V -4.3302352 H 9.1698101 V -6.8382127 H 12.417551 V -7.6321048 H 8.2496169 Z m 10.2709791,0 h 0.95628 L 16.571952,-7.7584058 H 16.156963 L 13.270083,8.5467059e-5 H 14.15419 L 14.930039,-2.1109459 h 2.814708 z M 16.066748,-5.2143424 l 0.270645,-1.1727952 0.288688,1.1547522 0.848021,2.3275474 h -2.255375 z m 4.411514,5.23247087 c 0.306731,0.03608601 1.479526,0.07217201 1.948645,0.07217201 2.652321,0 3.662729,-1.91255828 3.662729,-3.96946068 0,-2.2734183 -1.100623,-3.8431596 -3.554471,-3.8431596 -0.613463,0 -1.49757,0 -2.056903,0.090215 z m 2.074946,-6.94655617 c 1.98473,0 2.580149,1.6419133 2.580149,3.0492675 0,1.6419133 -0.649548,3.17556855 -2.688407,3.17556855 -0.162387,0 -0.902151,-0.036086 -1.046495,-0.054129 V -6.8742987 c 0.198473,-0.036086 0.775849,-0.054129 1.154753,-0.054129 z m 0,0"
       style="fill:#000040;fill-opacity:1;fill-rule:nonzero;stroke:none"
       aria-label="HEAD"
       transform="matrix(0.86598667,0,0,0.86598667,385.34422,66.609301)" />
    <path
       id="path141"
       d="M -83.33064,253.5818 V 226.19142"
       style="fill:none;stroke:#000040;stroke-width:1.19553;stroke-linecap:butt;stroke-linejoin:miter;stroke-miterlimit:10;stroke-dasharray:none;stroke-opacity:1"
       transform="matrix(0.86598667,0,0,-0.86598667,469.06608,289.61386)" />
    <path
       id="path142"
       d="M -1.91284,2.55046 C -1.75343,1.59402 0,0.15938 0.4782,0 0,-0.15938 -1.75343,-1.59402 -1.91284,-2.55046"
       style="fill:none;stroke:#000040;stroke-width:0.9564;stroke-linecap:round;stroke-linejoin:round;stroke-miterlimit:10;stroke-dasharray:none;stroke-opacity:1"
       transform="matrix(0,0.86598667,0.86598667,0,396.90286,93.735104)" />
  </g>
</svg>
